<?xml version="1.0" encoding="UTF-8" standalone="no"?>
<svg
   version="1.1"
   width="215.12109"
   height="249.8103"
   style="clip-rule:evenodd;fill-rule:evenodd;image-rendering:optimizeQuality;shape-rendering:geometricPrecision;text-rendering:geometricPrecision"
   id="svg612"
   xmlns="http://www.w3.org/2000/svg"
   xmlns:svg="http://www.w3.org/2000/svg">
  <defs
     id="defs612" />
  <path
     id="rect623"
     style="fill:#d8c4a9;stroke-width:1.0209"
     d="m 61.329571,137.44005 109.582539,-6.86216 c 13.44105,-0.84169 47.08771,-0.19079 42.92727,12.61786 l -11.3438,34.9239 c -4.16043,12.80863 -17.88175,25.88359 -30.82633,29.59953 L 29.537101,248.52039 C 16.592519,252.23633 0.14737338,247.98199 3.7331104,235.00074 L 22.494741,167.07901 c 3.58574,-12.98125 25.39378,-28.79726 38.83483,-29.63896 z" />
  <g
     id="g1"
     transform="translate(-79.378899,0.5)">
    <path
       style="opacity:0.604"
       fill="#918a7a"
       d="m 195.5,1.5 c -4.029,1.2898 -7.696,3.2898 -11,6 -0.617,-0.11071 -1.117,-0.44404 -1.5,-1 -1.725,0.96403 -3.559,1.6307 -5.5,2 5.286,-3.87863 11.286,-6.21197 18,-7 z"
       id="path1" />
  </g>
  <g
     id="g2"
     transform="translate(-79.378899,0.5)">
    <path
       style="opacity:1"
       fill="#9f7a5b"
       d="m 239.5,9.5 c 4.044,3.0425 7.377,6.7092 10,11 -2.612,-0.8705 -5.279,-1.5372 -8,-2 -4.889,-0.9173 -9.555,-2.584 -14,-5 -4.903,-4.40624 -10.57,-7.07291 -17,-8 -2.338,-1.53954 -5.005,-2.20621 -8,-2 3.463,-1.02391 7.13,-1.69057 11,-2 4.677,0.66857 9.343,1.33523 14,2 0.199,2.45993 0.865,4.79326 2,7 0.978,-0.4767 1.811,-1.14332 2.5,-2 1.086,2.347 2.419,2.347 4,0 1.138,0.48913 2.305,0.82246 3.5,1 z"
       id="path2" />
  </g>
  <g
     id="g3"
     transform="translate(-79.378899,0.5)">
    <path
       style="opacity:0.987"
       fill="#ba9878"
       d="m 198.5,-0.5 c 6.333,0 12.667,0 19,0 4.649,1.170173 9.316,2.67017 14,4.5 3.256,1.11596 5.922,2.94929 8,5.5 -1.195,-0.17754 -2.362,-0.51087 -3.5,-1 -1.581,2.347 -2.914,2.347 -4,0 -0.689,0.85668 -1.522,1.5233 -2.5,2 -1.135,-2.20674 -1.801,-4.54007 -2,-7 -4.657,-0.66477 -9.323,-1.33143 -14,-2 -3.87,0.30943 -7.537,0.97609 -11,2 -1.614,-1.5746 -3.614,-2.24127 -6,-2 0.667,-0.666667 1.333,-1.333333 2,-2 z"
       id="path3" />
  </g>
  <g
     id="g4"
     transform="translate(-79.378899,0.5)">
    <path
       style="opacity:1"
       fill="#414e4c"
       d="m 184.5,7.5 c 4.694,-0.60447 9.028,0.22886 13,2.5 1.634,0.4935 3.301,0.6602 5,0.5 0.203,1.8904 -0.463,3.3904 -2,4.5 -2.333,0.3333 -4.667,0.6667 -7,1 -0.881,0.7083 -1.547,1.5416 -2,2.5 -1.626,2.5038 -1.959,5.1704 -1,8 -1,0 -2,0 -3,0 0.181,-3.053 0.348,-6.053 0.5,-9 -4.011,-1.6745 -6.011,-4.6745 -6,-9 -1.067,0.69055 -2.234,1.19055 -3.5,1.5 0.556,0.3826 0.889,0.8826 1,1.5 -3,0.6667 -6,1.3333 -9,2 2.05,-2.0475 4.383,-3.71412 7,-5 1.941,-0.3693 3.775,-1.03597 5.5,-2 0.383,0.55596 0.883,0.88929 1.5,1 z"
       id="path4" />
  </g>
  <g
     id="g5"
     transform="translate(-79.378899,0.5)">
    <path
       style="opacity:1"
       fill="#505447"
       d="m 195.5,1.5 c 0.333,0 0.667,0 1,0 2.386,-0.24127 4.386,0.4254 6,2 2.995,-0.20621 5.662,0.46046 8,2 -2.776,-0.41106 -3.443,0.42228 -2,2.5 -0.405,0.94544 -1.072,1.61211 -2,2 2.51,0.3763 4.843,1.2096 7,2.5 -0.457,0.7975 -1.124,1.1309 -2,1 -5.112,2.0482 -10.445,3.2149 -16,3.5 -1.066,2.012 -2.4,2.512 -4,1.5 0.453,-0.9584 1.119,-1.7917 2,-2.5 2.333,-0.3333 4.667,-0.6667 7,-1 1.537,-1.1096 2.203,-2.6096 2,-4.5 -1.699,0.1602 -3.366,-0.0065 -5,-0.5 -3.972,-2.27114 -8.306,-3.10447 -13,-2.5 3.304,-2.7102 6.971,-4.7102 11,-6 z"
       id="path5" />
  </g>
  <g
     id="g6"
     transform="translate(-79.378899,0.5)">
    <path
       style="opacity:1"
       fill="#47443b"
       d="m 210.5,5.5 c 6.43,0.92709 12.097,3.59376 17,8 0.331,1.8224 0.998,3.4891 2,5 -0.891,-0.6098 -1.891,-0.9431 -3,-1 -1.188,-0.8636 -2.355,-1.8636 -3.5,-3 -1.5,1.1667 -3,2.3333 -4.5,3.5 2.093,3.2824 3.76,6.7824 5,10.5 -1,0 -2,0 -3,0 -0.871,-3.0645 -2.038,-6.0645 -3.5,-9 -2.131,-1.1148 -3.965,-2.4481 -5.5,-4 0,-0.6667 0,-1.3333 0,-2 0.876,0.1309 1.543,-0.2025 2,-1 -2.157,-1.2904 -4.49,-2.1237 -7,-2.5 0.928,-0.38789 1.595,-1.05456 2,-2 -1.443,-2.07772 -0.776,-2.91106 2,-2.5 z"
       id="path6" />
  </g>
  <g
     id="g7"
     transform="translate(-79.378899,0.5)">
    <path
       style="opacity:1"
       fill="#3d4850"
       d="m 187.5,26.5 c -1.333,0 -2.667,0 -4,0 -0.961,-1.7646 -1.295,-3.7646 -1,-6 -2,0 -4,0 -6,0 0.086,-0.9959 -0.248,-1.8292 -1,-2.5 3.223,-0.9381 4.556,-3.1048 4,-6.5 -0.111,-0.6174 -0.444,-1.1174 -1,-1.5 1.266,-0.30945 2.433,-0.80945 3.5,-1.5 -0.011,4.3255 1.989,7.3255 6,9 -0.152,2.947 -0.319,5.947 -0.5,9 z"
       id="path7" />
  </g>
  <g
     id="g8"
     transform="translate(-79.378899,0.5)">
    <path
       style="opacity:1"
       fill="#48443e"
       d="m 226.5,17.5 c 1.109,0.0569 2.109,0.3902 3,1 5.994,0.1527 10.827,2.486 14.5,7 3.802,7.6532 1.635,11.6532 -6.5,12 0.404,-1.2564 1.071,-2.4231 2,-3.5 -1.109,-2.0466 -1.776,-4.2133 -2,-6.5 3.058,-0.1257 3.391,-1.6257 1,-4.5 -3.333,-1 -6.667,-2 -10,-3 -0.881,-0.7083 -1.547,-1.5416 -2,-2.5 z"
       id="path8" />
  </g>
  <g
     id="g9"
     transform="translate(-79.378899,0.5)">
    <path
       style="opacity:1"
       fill="#5a5847"
       d="m 211.5,13.5 c 0,0.6667 0,1.3333 0,2 -5.863,2.7668 -12.196,4.4335 -19,5 0.079,1.4305 -0.254,2.7638 -1,4 2.371,2.454 2.538,5.1207 0.5,8 -2.673,3.5177 -6.173,5.5177 -10.5,6 0.333,-1 1,-1.6667 2,-2 0.739,0.131 1.406,-0.0357 2,-0.5 2.021,-3.1313 3.687,-6.298 5,-9.5 -0.959,-2.8296 -0.626,-5.4962 1,-8 1.6,1.012 2.934,0.512 4,-1.5 5.555,-0.2851 10.888,-1.4518 16,-3.5 z"
       id="path9" />
  </g>
  <g
     id="g10"
     transform="translate(-79.378899,0.5)">
    <path
       style="opacity:1"
       fill="#3f4445"
       d="m 226.5,17.5 c 0.453,0.9584 1.119,1.7917 2,2.5 3.333,1 6.667,2 10,3 2.391,2.8743 2.058,4.3743 -1,4.5 0.224,2.2867 0.891,4.4534 2,6.5 -0.929,1.0769 -1.596,2.2436 -2,3.5 -5.632,-1.5387 -10.299,-4.5387 -14,-9 -1.24,-3.7176 -2.907,-7.2176 -5,-10.5 1.5,-1.1667 3,-2.3333 4.5,-3.5 1.145,1.1364 2.312,2.1364 3.5,3 z"
       id="path10" />
  </g>
  <g
     id="g11"
     transform="translate(-79.378899,0.5)">
    <path
       style="opacity:1"
       fill="#3d4141"
       d="m 179.5,11.5 c 0.556,3.3952 -0.777,5.5619 -4,6.5 0.752,0.6708 1.086,1.5041 1,2.5 -2.667,0.6667 -5.333,1.3333 -8,2 0.143,1.7624 -0.191,3.4291 -1,5 -0.891,1.0896 -1.891,1.0896 -3,0 -2.043,3.0296 -4.043,6.0296 -6,9 -2.865,-0.4452 -5.365,0.2215 -7.5,2 -1.297,-3.6541 -0.297,-6.3208 3,-8 0.307,-3.3762 2.14,-4.7096 5.5,-4 -0.067,-1.4587 0.266,-2.7921 1,-4 3.333,-3 6.667,-6 10,-9 3,-0.6667 6,-1.3333 9,-2 z"
       id="path11" />
  </g>
  <g
     id="g12"
     transform="translate(-79.378899,0.5)">
    <path
       style="opacity:1"
       fill="#475655"
       d="m 176.5,20.5 c 2,0 4,0 6,0 -0.295,2.2354 0.039,4.2354 1,6 1.395,1.1477 1.228,2.1477 -0.5,3 -4.114,-1.1038 -8.281,-1.1038 -12.5,0 0.322,2.2224 -0.345,4.0557 -2,5.5 5.079,0.7178 10.079,1.2178 15,1.5 -1,0.3333 -1.667,1 -2,2 -7.808,0.3674 -15.474,-0.2992 -23,-2 1.957,-2.9704 3.957,-5.9704 6,-9 1.109,1.0896 2.109,1.0896 3,0 0.809,-1.5709 1.143,-3.2376 1,-5 2.667,-0.6667 5.333,-1.3333 8,-2 z"
       id="path12" />
  </g>
  <g
     id="g13"
     transform="translate(-79.378899,0.5)">
    <path
       style="opacity:1"
       fill="#92694b"
       d="m 217.5,26.5 c -0.934,1.0676 -1.268,2.401 -1,4 -1.643,-0.0198 -2.976,0.6468 -4,2 -0.667,-1.6667 -1.333,-3.3333 -2,-5 -3.426,1.9782 -7.093,3.4782 -11,4.5 -1.199,1.6943 -2.532,3.1943 -4,4.5 0.304,-3.0792 1.304,-5.9125 3,-8.5 -3.171,-3.1139 -2.671,-5.2806 1.5,-6.5 1.221,0.7718 2.221,1.7718 3,3 1.145,-2.9772 3.312,-4.6439 6.5,-5 1.753,2.1999 4.086,3.3666 7,3.5 0.837,1.0113 1.17,2.1779 1,3.5 z"
       id="path13" />
  </g>
  <g
     id="g14"
     transform="translate(-79.378899,0.5)">
    <path
       style="opacity:1"
       fill="#44525a"
       d="m 183.5,26.5 c 1.333,0 2.667,0 4,0 1,0 2,0 3,0 -1.313,3.202 -2.979,6.3687 -5,9.5 -0.594,0.4643 -1.261,0.631 -2,0.5 -4.921,-0.2822 -9.921,-0.7822 -15,-1.5 1.655,-1.4443 2.322,-3.2776 2,-5.5 4.219,-1.1038 8.386,-1.1038 12.5,0 1.728,-0.8523 1.895,-1.8523 0.5,-3 z"
       id="path14" />
  </g>
  <g
     id="g15"
     transform="translate(-79.378899,0.5)">
    <path
       style="opacity:1"
       fill="#7f664e"
       d="m 211.5,15.5 c 1.535,1.5519 3.369,2.8852 5.5,4 1.462,2.9355 2.629,5.9355 3.5,9 -1,-0.6667 -2,-1.3333 -3,-2 0.17,-1.3221 -0.163,-2.4887 -1,-3.5 -2.914,-0.1334 -5.247,-1.3001 -7,-3.5 -3.188,0.3561 -5.355,2.0228 -6.5,5 -0.779,-1.2282 -1.779,-2.2282 -3,-3 -4.171,1.2194 -4.671,3.3861 -1.5,6.5 -1.696,2.5875 -2.696,5.4208 -3,8.5 -1.904,0.2376 -3.238,1.2376 -4,3 -0.722,-0.4175 -1.222,-1.0842 -1.5,-2 -1.782,3.3224 -4.615,5.3224 -8.5,6 -1.104,2.5511 -2.438,4.8845 -4,7 -2.264,0.7186 -4.597,1.052 -7,1 -0.111,-2.1477 0.556,-2.481 2,-1 1.024,-1.3532 2.357,-2.0198 4,-2 0.333,-2.6667 0.667,-5.3333 1,-8 1.653,-0.1596 2.986,-0.8263 4,-2 4.327,-0.4823 7.827,-2.4823 10.5,-6 2.038,-2.8793 1.871,-5.546 -0.5,-8 0.746,-1.2362 1.079,-2.5695 1,-4 6.804,-0.5665 13.137,-2.2332 19,-5 z"
       id="path15" />
  </g>
  <g
     id="g16"
     transform="translate(-79.378899,0.5)">
    <path
       style="opacity:1"
       fill="#5c4c3d"
       d="m 227.5,13.5 c 4.445,2.416 9.111,4.0827 14,5 0.952,0.952 1.952,1.952 3,3 2.005,5.1837 4.338,10.1837 7,15 -1.863,1.1888 -3.53,2.5221 -5,4 -1.414,1.6385 -1.08,2.9718 1,4 -1.545,0.9519 -3.212,1.2852 -5,1 1.21,4.2674 -0.457,5.6008 -5,4 -1.291,-4.5497 -2.958,-8.8831 -5,-13 -2.306,-0.4926 -4.639,-0.8259 -7,-1 -0.667,-2.3333 -1.333,-4.6667 -2,-7 3.701,4.4613 8.368,7.4613 14,9 8.135,-0.3468 10.302,-4.3468 6.5,-12 -3.673,-4.514 -8.506,-6.8473 -14.5,-7 -1.002,-1.5109 -1.669,-3.1776 -2,-5 z"
       id="path16" />
  </g>
  <g
     id="g17"
     transform="translate(-79.378899,0.5)">
    <path
       style="opacity:1"
       fill="#6d5843"
       d="m 241.5,18.5 c 2.721,0.4628 5.388,1.1295 8,2 2.489,4.4787 4.489,9.1453 6,14 -0.239,1.9672 0.094,3.8005 1,5.5 -3.317,0.4983 -6.65,0.665 -10,0.5 1.47,-1.4779 3.137,-2.8112 5,-4 -2.662,-4.8163 -4.995,-9.8163 -7,-15 -1.048,-1.048 -2.048,-2.048 -3,-3 z"
       id="path17" />
  </g>
  <g
     id="g18"
     transform="translate(-79.378899,0.5)">
    <path
       style="opacity:1"
       fill="#a77f5f"
       d="m 217.5,26.5 c 1,0.6667 2,1.3333 3,2 2.032,3.0615 3.699,6.3948 5,10 -1.667,-0.6667 -3.333,-1.3333 -5,-2 -2.421,-0.3782 -4.754,-1.0448 -7,-2 -1.122,-0.6558 -2.455,-0.9892 -4,-1 -2.55,0.1174 -4.55,1.1174 -6,3 -2.769,1.2682 -5.103,3.1015 -7,5.5 -1.634,0.4935 -3.301,0.6602 -5,0.5 -0.333,0 -0.667,0 -1,0 0.61,-0.891 0.943,-1.891 1,-3 0.762,-1.7624 2.096,-2.7624 4,-3 1.468,-1.3057 2.801,-2.8057 4,-4.5 3.907,-1.0218 7.574,-2.5218 11,-4.5 0.667,1.6667 1.333,3.3333 2,5 1.024,-1.3532 2.357,-2.0198 4,-2 -0.268,-1.599 0.066,-2.9324 1,-4 z"
       id="path18" />
  </g>
  <g
     id="g19"
     transform="translate(-79.378899,0.5)">
    <path
       style="opacity:0.838"
       fill="#a48c6d"
       d="m 249.5,20.5 c 2.587,3.7666 5.42,7.4333 8.5,11 2.211,4.7983 3.711,9.7983 4.5,15 -1.476,-1.5619 -2.976,-3.2286 -4.5,-5 0.03,-2.8615 -0.803,-5.1948 -2.5,-7 -1.511,-4.8547 -3.511,-9.5213 -6,-14 z"
       id="path19" />
  </g>
  <g
     id="g20"
     transform="translate(-79.378899,0.5)">
    <path
       style="opacity:1"
       fill="#987157"
       d="m 220.5,28.5 c 1,0 2,0 3,0 0.667,2.3333 1.333,4.6667 2,7 2.361,0.1741 4.694,0.5074 7,1 2.042,4.1169 3.709,8.4503 5,13 0,0.6667 0,1.3333 0,2 2.171,4.6452 5.338,5.3119 9.5,2 0.5,0.5 1,1 1.5,1.5 -1.939,0.9078 -2.939,2.4078 -3,4.5 -1,0 -2,0 -3,0 -5.172,-1.652 -7.339,-5.3187 -6.5,-11 -1.621,-1.9622 -3.454,-3.6288 -5.5,-5 1.311,-0.7575 1.811,-1.7575 1.5,-3 -1.897,-1.5163 -4.064,-2.183 -6.5,-2 -1.301,-3.6052 -2.968,-6.9385 -5,-10 z"
       id="path20" />
  </g>
  <g
     id="g21"
     transform="translate(-79.378899,0.5)">
    <path
       style="opacity:1"
       fill="#56574b"
       d="m 160.5,22.5 c -0.734,1.2079 -1.067,2.5413 -1,4 -3.36,-0.7096 -5.193,0.6238 -5.5,4 -3.297,1.6792 -4.297,4.3459 -3,8 2.135,-1.7785 4.635,-2.4452 7.5,-2 7.526,1.7008 15.192,2.3674 23,2 -1.014,1.1737 -2.347,1.8404 -4,2 -4.099,-0.358 -8.099,-0.358 -12,0 -2.146,-1.3936 -4.479,-2.0603 -7,-2 0,-0.6667 -0.333,-1 -1,-1 -1.35,0.9831 -2.35,2.3164 -3,4 -2.016,-2.6633 -3.349,-2.33 -4,1 -0.967,-1.3062 -2.301,-1.9729 -4,-2 0.317,4.2016 -0.017,8.2016 -1,12 0,-4 0,-8 0,-12 2.89,-7.8791 7.89,-13.8791 15,-18 z"
       id="path21" />
  </g>
  <g
     id="g22"
     transform="translate(-79.378899,0.5)">
    <path
       style="opacity:1"
       fill="#836a50"
       d="m 261.5,51.5 c -5.5,-0.5946 -8.834,1.7387 -10,7 -1.699,-0.1602 -3.366,0.0065 -5,0.5 1.537,1.1096 2.203,2.6096 2,4.5 -0.988,-1.295 -1.988,-2.6283 -3,-4 0.061,-2.0922 1.061,-3.5922 3,-4.5 -0.5,-0.5 -1,-1 -1.5,-1.5 -4.162,3.3119 -7.329,2.6452 -9.5,-2 1.307,0.6534 2.64,1.3201 4,2 1.328,-2.7483 3.494,-4.4149 6.5,-5 0.973,-1.8921 1.64,-3.8921 2,-6 2.064,-1.0914 4.231,-1.2581 6.5,-0.5 0.63,1.892 1.63,3.5587 3,5 -1.284,0.6838 -2.451,0.5171 -3.5,-0.5 -0.426,2.9321 0.574,3.9321 3,3 1.301,0.1387 2.134,0.8054 2.5,2 z"
       id="path22" />
  </g>
  <g
     id="g23"
     transform="translate(-79.378899,0.5)">
    <path
       style="opacity:0.263"
       fill="#cbb67d"
       d="m 213.5,34.5 c -5.763,-1.3999 -7.929,0.6001 -6.5,6 -2.54,2.2047 -4.707,4.7047 -6.5,7.5 -1.333,0.3333 -2.667,0.6667 -4,1 -3.941,3.4381 -7.275,7.2714 -10,11.5 1.13,-4.8586 3.297,-9.192 6.5,-13 1.667,-1.3333 3.333,-1.3333 5,0 0.202,-1.7556 0.702,-3.4223 1.5,-5 2.164,-0.9143 4.164,-2.081 6,-3.5 -1.256,-0.4169 -1.923,-1.2502 -2,-2.5 1.45,-1.8826 3.45,-2.8826 6,-3 1.545,0.0108 2.878,0.3442 4,1 z"
       id="path23" />
  </g>
  <g
     id="g24"
     transform="translate(-79.378899,0.5)">
    <path
       style="opacity:1"
       fill="#644f40"
       d="m 158.5,38.5 c 2.521,-0.0603 4.854,0.6064 7,2 3.901,-0.358 7.901,-0.358 12,0 -0.333,2.6667 -0.667,5.3333 -1,8 -1.643,-0.0198 -2.976,0.6468 -4,2 -1.444,-1.481 -2.111,-1.1477 -2,1 0.065,0.4382 -0.101,0.7716 -0.5,1 -0.333,-0.6667 -0.667,-1.3333 -1,-2 -0.748,2.251 -2.248,3.5844 -4.5,4 -1.346,-0.99 -2.679,-1.99 -4,-3 -1.134,-2.0376 -1.134,-4.0376 0,-6 -1,-0.6667 -2,-1.3333 -3,-2 0.809,-1.5709 1.143,-3.2376 1,-5 z"
       id="path24" />
  </g>
  <g
     id="g25"
     transform="translate(-79.378899,0.5)">
    <path
       style="opacity:1"
       fill="#b09463"
       d="m 203.5,36.5 c 0.077,1.2498 0.744,2.0831 2,2.5 -1.836,1.419 -3.836,2.5857 -6,3.5 -0.798,1.5777 -1.298,3.2444 -1.5,5 -1.667,-1.3333 -3.333,-1.3333 -5,0 -3.203,3.808 -5.37,8.1414 -6.5,13 -0.359,1.871 -1.359,3.371 -3,4.5 3.929,2.7881 7.929,5.2881 12,7.5 -1.333,0 -2.667,0 -4,0 -2.912,-2.8725 -6.412,-4.5392 -10.5,-5 -1.986,0.0687 -3.486,0.7353 -4.5,2 -0.667,0 -1,0.3333 -1,1 -1,-0.3333 -1.667,-1 -2,-2 1.535,-3.7577 3.535,-7.0911 6,-10 6.565,-3.2532 10.565,-8.5865 12,-16 1.699,0.1602 3.366,-0.0065 5,-0.5 1.897,-2.3985 4.231,-4.2318 7,-5.5 z"
       id="path25" />
  </g>
  <g
     id="g26"
     transform="translate(-79.378899,0.5)">
    <path
       style="opacity:0.944"
       fill="#715b41"
       d="m 255.5,34.5 c 1.697,1.8052 2.53,4.1385 2.5,7 1.524,1.7714 3.024,3.4381 4.5,5 -0.163,2.3568 0.003,4.6902 0.5,7 2.179,2.5109 4.679,4.6776 7.5,6.5 -1.607,1.049 -2.273,2.549 -2,4.5 -0.802,-1.4516 -1.302,-3.1183 -1.5,-5 -4.538,-0.7284 -6.371,-3.3951 -5.5,-8 -0.366,-1.1946 -1.199,-1.8613 -2.5,-2 -2.426,0.9321 -3.426,-0.0679 -3,-3 1.049,1.0171 2.216,1.1838 3.5,0.5 -1.37,-1.4413 -2.37,-3.108 -3,-5 -2.269,-0.7581 -4.436,-0.5914 -6.5,0.5 -0.36,2.1079 -1.027,4.1079 -2,6 -3.006,0.5851 -5.172,2.2517 -6.5,5 -1.36,-0.6799 -2.693,-1.3466 -4,-2 0,-0.6667 0,-1.3333 0,-2 4.543,1.6008 6.21,0.2674 5,-4 1.788,0.2852 3.455,-0.0481 5,-1 -2.08,-1.0282 -2.414,-2.3615 -1,-4 3.35,0.165 6.683,-0.0017 10,-0.5 -0.906,-1.6995 -1.239,-3.5328 -1,-5.5 z"
       id="path26" />
  </g>
  <g
     id="g27"
     transform="translate(-79.378899,0.5)">
    <path
       style="opacity:1"
       fill="#9d785a"
       d="m 191.5,39.5 c -0.057,1.109 -0.39,2.109 -1,3 -1.84,2.1586 -3.007,4.8253 -3.5,8 -1.86,0.6639 -4.027,1.6639 -6.5,3 -2.631,3.6617 -5.297,7.3283 -8,11 -1.018,-0.6925 -2.018,-1.3592 -3,-2 0.734,-1.2079 1.067,-2.5413 1,-4 -1.701,0.4662 -3.201,0.4662 -4.5,0 -1.264,1.6601 -1.764,3.3268 -1.5,5 -1.844,-0.7039 -2.344,-2.0372 -1.5,-4 4.245,-2.5342 8.745,-4.7009 13.5,-6.5 0.752,-0.6708 1.086,-1.5041 1,-2.5 1.562,-2.1155 2.896,-4.4489 4,-7 3.885,-0.6776 6.718,-2.6776 8.5,-6 0.278,0.9158 0.778,1.5825 1.5,2 z"
       id="path27" />
  </g>
  <g
     id="g28"
     transform="translate(-79.378899,0.5)">
    <path
       style="opacity:1"
       fill="#454940"
       d="m 150.5,42.5 c -0.046,3.9681 -1.046,7.6348 -3,11 0.333,0.6667 0.667,1.3333 1,2 -1.566,4.6907 -3.066,9.3574 -4.5,14 -1.049,1.6066 -2.549,2.2733 -4.5,2 -0.052,-2.4029 0.281,-4.7362 1,-7 -0.88,-1.8888 -0.88,-3.8888 0,-6 0,-0.6667 0.333,-1 1,-1 1.68,-1.2822 3.013,-2.9489 4,-5 0.983,-3.7984 1.317,-7.7984 1,-12 1.699,0.0271 3.033,0.6938 4,2 z"
       id="path28" />
  </g>
  <g
     id="g29"
     transform="translate(-79.378899,0.5)">
    <path
       style="opacity:1"
       fill="#806249"
       d="m 170.5,51.5 c 2.403,0.052 4.736,-0.2814 7,-1 0.086,0.9959 -0.248,1.8292 -1,2.5 -4.755,1.7991 -9.255,3.9658 -13.5,6.5 -0.844,1.9628 -0.344,3.2961 1.5,4 -0.333,2 -0.667,4 -1,6 -1.333,0 -2.667,0 -4,0 -0.208,-2.4201 0.126,-4.7534 1,-7 -1.189,-0.9287 -2.522,-1.262 -4,-1 0,-2 0,-4 0,-6 2.737,0.0987 5.404,-0.2347 8,-1 2.252,-0.4156 3.752,-1.749 4.5,-4 0.333,0.6667 0.667,1.3333 1,2 0.399,-0.2284 0.565,-0.5618 0.5,-1 z"
       id="path29" />
  </g>
  <g
     id="g30"
     transform="translate(-79.378899,0.5)">
    <path
       style="opacity:0.239"
       fill="#aba391"
       d="m 145.5,40.5 c 0,4 0,8 0,12 -0.987,2.0511 -2.32,3.7178 -4,5 0.295,-1.9233 1.128,-3.5899 2.5,-5 0.176,-4.1877 0.676,-8.1877 1.5,-12 z"
       id="path30" />
  </g>
  <g
     id="g31"
     transform="translate(-79.378899,0.5)">
    <path
       style="opacity:1"
       fill="#615339"
       d="m 157.5,37.5 c 0.667,0 1,0.3333 1,1 0.143,1.7624 -0.191,3.4291 -1,5 1,0.6667 2,1.3333 3,2 -1.134,1.9624 -1.134,3.9624 0,6 1.321,1.01 2.654,2.01 4,3 -2.596,0.7653 -5.263,1.0987 -8,1 0,2 0,4 0,6 1.478,-0.262 2.811,0.0713 4,1 -0.874,2.2466 -1.208,4.5799 -1,7 -1.508,2.9108 -0.675,5.2441 2.5,7 1.241,4.2125 1.408,8.3792 0.5,12.5 0.916,0.2784 1.582,0.7784 2,1.5 -0.978,0.311 -1.645,0.9777 -2,2 1.972,1.9153 2.972,4.2486 3,7 -2.41,0.4209 -4.243,1.754 -5.5,4 -0.816,-1.323 -1.983,-1.989 -3.5,-2 0.073,-1.5269 -0.594,-2.5269 -2,-3 0.287,-2.9841 1.954,-4.3174 5,-4 -1.333,-5.6667 -1.333,-11.3333 0,-17 -1.5,-4.5024 -4.5,-7.5024 -9,-9 0.227,-2.938 -0.773,-5.2713 -3,-7 -0.086,-0.9959 0.248,-1.8292 1,-2.5 1.601,-0.2734 3.101,-0.7734 4.5,-1.5 0.499,-4.9889 0.666,-9.9889 0.5,-15 1,0 2,0 3,0 0.129,-1.7161 0.462,-3.3828 1,-5 z"
       id="path31" />
  </g>
  <g
     id="g32"
     transform="translate(-79.378899,0.5)">
    <path
       style="opacity:1"
       fill="#b48562"
       d="m 225.5,38.5 c 2.436,-0.183 4.603,0.4837 6.5,2 0.311,1.2425 -0.189,2.2425 -1.5,3 2.046,1.3712 3.879,3.0378 5.5,5 -0.839,5.6813 1.328,9.348 6.5,11 1.369,2.0412 3.036,3.8745 5,5.5 -0.333,0.3333 -0.667,0.6667 -1,1 2.903,0.5686 4.903,2.2352 6,5 -1.237,0.2321 -2.237,0.7321 -3,1.5 -0.876,0.1309 -1.543,-0.2025 -2,-1 -0.574,-1.5589 -1.24,-3.0589 -2,-4.5 -2.325,-1.6052 -4.658,-3.2719 -7,-5 0.333,-0.3333 0.667,-0.6667 1,-1 -0.948,-0.4828 -1.948,-0.6495 -3,-0.5 0.11,-2.5588 -0.556,-4.8921 -2,-7 -0.557,1.8316 -1.557,3.1649 -3,4 -1.473,-5.1322 -2.64,-10.4656 -3.5,-16 -1.417,-0.5779 -2.25,-1.5779 -2.5,-3 z"
       id="path32" />
  </g>
  <g
     id="g33"
     transform="translate(-79.378899,0.5)">
    <path
       style="opacity:0.475"
       fill="#a09c82"
       d="m 140.5,58.5 c -0.88,2.1112 -0.88,4.1112 0,6 -1.869,2.1353 -2.536,4.8019 -2,8 -2.822,-5.077 -2.156,-9.7437 2,-14 z"
       id="path33" />
  </g>
  <g
     id="g34"
     transform="translate(-79.378899,0.5)">
    <path
       style="opacity:1"
       fill="#64503c"
       d="m 261.5,51.5 c -0.871,4.6049 0.962,7.2716 5.5,8 0.198,1.8817 0.698,3.5484 1.5,5 0,1.3333 0,2.6667 0,4 -1.458,3.0969 -2.791,6.4302 -4,10 1.307,1.365 1.307,2.6984 0,4 -1.431,-0.3807 -2.264,-1.3807 -2.5,-3 -1.422,2.1381 -3.255,3.3047 -5.5,3.5 0.458,-2.831 1.792,-5.1643 4,-7 -1.405,-1.2692 -3.071,-1.7692 -5,-1.5 0.16,-1.6992 -0.006,-3.3659 -0.5,-5 -2.711,-1.549 -4.877,-3.549 -6.5,-6 0.203,-1.8904 -0.463,-3.3904 -2,-4.5 1.634,-0.4935 3.301,-0.6602 5,-0.5 1.166,-5.2613 4.5,-7.5946 10,-7 z"
       id="path34" />
  </g>
  <g
     id="g35"
     transform="translate(-79.378899,0.5)">
    <path
       style="opacity:1"
       fill="#bd9e6d"
       d="m 220.5,36.5 c 1.667,0.6667 3.333,1.3333 5,2 0.25,1.4221 1.083,2.4221 2.5,3 0.86,5.5344 2.027,10.8678 3.5,16 0.724,4.2327 2.891,7.5661 6.5,10 0.333,-0.3333 0.667,-0.6667 1,-1 0.333,1.6667 0.667,3.3333 1,5 1,1.3333 2,1.3333 3,0 1.405,1.6911 2.572,3.5245 3.5,5.5 -0.916,0.2784 -1.582,0.7784 -2,1.5 -2.358,-0.2475 -4.358,0.4192 -6,2 0.528,-1.3474 0.695,-2.6807 0.5,-4 -4.333,-6.3333 -8.667,-12.6667 -13,-19 -0.393,-4.7009 -0.393,-9.3676 0,-14 -1.666,-2.4957 -3.5,-4.829 -5.5,-7 z"
       id="path35" />
  </g>
  <g
     id="g36"
     transform="translate(-79.378899,0.5)">
    <path
       style="opacity:1"
       fill="#ac8359"
       d="m 190.5,42.5 c 0.333,0 0.667,0 1,0 -1.435,7.4135 -5.435,12.7468 -12,16 -2.465,2.9089 -4.465,6.2423 -6,10 -2.083,0.5289 -3.917,1.5289 -5.5,3 -0.333,-0.3333 -0.667,-0.6667 -1,-1 -0.455,3.3536 -0.955,6.6869 -1.5,10 -1.311,-4.1829 -1.311,-8.5162 0,-13 1.73,-1.3919 3.064,-3.0585 4,-5 0.982,0.6408 1.982,1.3075 3,2 2.703,-3.6717 5.369,-7.3383 8,-11 2.473,-1.3361 4.64,-2.3361 6.5,-3 0.493,-3.1747 1.66,-5.8414 3.5,-8 z"
       id="path36" />
  </g>
  <g
     id="g37"
     transform="translate(-79.378899,0.5)">
    <path
       style="opacity:1"
       fill="#4e513e"
       d="m 157.5,37.5 c -0.538,1.6172 -0.871,3.2839 -1,5 -1,0 -2,0 -3,0 0.166,5.0111 -0.001,10.0111 -0.5,15 -1.399,0.7266 -2.899,1.2266 -4.5,1.5 -0.752,0.6708 -1.086,1.5041 -1,2.5 -0.575,4.0233 -1.241,8.0233 -2,12 -2.264,-0.7186 -4.597,-1.052 -7,-1 -0.536,-3.1981 0.131,-5.8647 2,-8 -0.719,2.2638 -1.052,4.5971 -1,7 1.951,0.2733 3.451,-0.3934 4.5,-2 1.434,-4.6426 2.934,-9.3093 4.5,-14 -0.333,-0.6667 -0.667,-1.3333 -1,-2 1.954,-3.3652 2.954,-7.0319 3,-11 0.651,-3.33 1.984,-3.6633 4,-1 0.65,-1.6836 1.65,-3.0169 3,-4 z"
       id="path37" />
  </g>
  <g
     id="g38"
     transform="translate(-79.378899,0.5)">
    <path
       style="opacity:1"
       fill="#b28b55"
       d="m 173.5,68.5 c 0.333,1 1,1.6667 2,2 -1.046,3.5838 -1.879,7.2504 -2.5,11 -1.898,2.1838 -4.064,2.5171 -6.5,1 0.172,-0.9916 -0.162,-1.6583 -1,-2 0.545,-3.3131 1.045,-6.6464 1.5,-10 0.333,0.3333 0.667,0.6667 1,1 1.583,-1.4711 3.417,-2.4711 5.5,-3 z"
       id="path38" />
  </g>
  <g
     id="g39"
     transform="translate(-79.378899,0.5)">
    <path
       style="opacity:1"
       fill="#c49972"
       d="m 249.5,72.5 c 0,1 0,2 0,3 2,0 4,0 6,0 0,2.3333 0,4.6667 0,7 -1,0 -2,0 -3,0 0.331,1.8224 0.998,3.4891 2,5 -1.307,-0.6534 -2.64,-1.3201 -4,-2 -0.665,6.1662 -2.332,11.9995 -5,17.5 0.07,0.765 0.403,1.265 1,1.5 -1.915,2.077 -3.248,4.077 -4,6 -1.896,0.966 -3.896,1.299 -6,1 2.368,-1.283 4.535,-2.95 6.5,-5 0.739,-3.885 2.073,-7.5519 4,-11 0.667,-4.6667 0.667,-9.3333 0,-14 -1.045,-0.8734 -1.878,-1.8734 -2.5,-3 0.418,-0.7216 1.084,-1.2216 2,-1.5 -0.928,-1.9755 -2.095,-3.8089 -3.5,-5.5 -1,1.3333 -2,1.3333 -3,0 -0.333,-1.6667 -0.667,-3.3333 -1,-5 -0.333,0.3333 -0.667,0.6667 -1,1 -3.609,-2.4339 -5.776,-5.7673 -6.5,-10 1.443,-0.8351 2.443,-2.1684 3,-4 1.444,2.1079 2.11,4.4412 2,7 1.052,-0.1495 2.052,0.0172 3,0.5 -0.333,0.3333 -0.667,0.6667 -1,1 2.342,1.7281 4.675,3.3948 7,5 0.76,1.4411 1.426,2.9411 2,4.5 0.457,0.7975 1.124,1.1309 2,1 z"
       id="path39" />
  </g>
  <g
     id="g40"
     transform="translate(-79.378899,0.5)">
    <path
       style="opacity:1"
       fill="#555135"
       d="m 191.5,72.5 c 1.435,1.4848 1.268,2.8181 -0.5,4 -3.058,-0.2629 -6.225,-0.4295 -9.5,-0.5 -1.693,-0.8466 -3.36,-1.6799 -5,-2.5 0,-1.3333 0,-2.6667 0,-4 1.014,-1.2647 2.514,-1.9313 4.5,-2 4.088,0.4608 7.588,2.1275 10.5,5 z"
       id="path40" />
  </g>
  <g
     id="g41"
     transform="translate(-79.378899,0.5)">
    <path
       style="opacity:1"
       fill="#4f4d3c"
       d="m 147.5,61.5 c 2.227,1.7287 3.227,4.062 3,7 4.5,1.4976 7.5,4.4976 9,9 -1.333,0 -2.667,0 -4,0 0.744,3.6185 1.077,7.2852 1,11 -2.203,-0.4349 -4.203,-0.4349 -6,0 -0.996,-0.0858 -1.829,0.2476 -2.5,1 -2.072,-3.4316 -2.738,-7.0983 -2,-11 3.669,1.5093 5.169,0.1759 4.5,-4 -1.792,0.134 -3.458,-0.1993 -5,-1 0.759,-3.9767 1.425,-7.9767 2,-12 z"
       id="path41" />
  </g>
  <g
     id="g42"
     transform="translate(-79.378899,0.5)">
    <path
       style="opacity:1"
       fill="#706e56"
       d="m 216.5,68.5 c 2.619,-0.2683 5.119,0.065 7.5,1 -0.593,2.5188 -1.759,4.8522 -3.5,7 -2.667,-0.3333 -5.333,-0.6667 -8,-1 -0.247,-2.3583 0.419,-4.3583 2,-6 0.342,-0.8382 1.008,-1.1716 2,-1 z"
       id="path42" />
  </g>
  <g
     id="g43"
     transform="translate(-79.378899,0.5)">
    <path
       style="opacity:0.649"
       fill="#a49375"
       d="m 262.5,46.5 c 0.809,1.7922 1.309,3.7922 1.5,6 2.479,2.569 5.146,4.9023 8,7 4.635,7.863 4.469,15.1963 -0.5,22 -0.333,0 -0.667,0 -1,0 -1.109,-0.79 -2.442,-1.29 -4,-1.5 2.426,-1.1447 4.759,-2.478 7,-4 -0.813,-1.3139 -1.813,-2.4805 -3,-3.5 0.525,-0.6924 1.192,-1.1924 2,-1.5 -1.82,-0.2004 -3.153,-1.0337 -4,-2.5 0,-1.3333 0,-2.6667 0,-4 -0.273,-1.951 0.393,-3.451 2,-4.5 -2.821,-1.8224 -5.321,-3.9891 -7.5,-6.5 -0.497,-2.3098 -0.663,-4.6432 -0.5,-7 z"
       id="path43" />
  </g>
  <g
     id="g44"
     transform="translate(-79.378899,0.5)">
    <path
       style="opacity:1"
       fill="#99734f"
       d="m 169.5,62.5 c -0.936,1.9415 -2.27,3.6081 -4,5 -1.311,4.4838 -1.311,8.8171 0,13 0.838,0.3417 1.172,1.0084 1,2 0.6,1.3999 1.6,2.3999 3,3 -2.797,0.4666 -4.131,2.1333 -4,5 -0.333,0 -0.667,0 -1,0 -0.418,-0.7216 -1.084,-1.2216 -2,-1.5 0.908,-4.1208 0.741,-8.2875 -0.5,-12.5 -3.175,-1.7559 -4.008,-4.0892 -2.5,-7 1.333,0 2.667,0 4,0 0.333,-2 0.667,-4 1,-6 -0.264,-1.6732 0.236,-3.3399 1.5,-5 1.299,0.4662 2.799,0.4662 4.5,0 0.067,1.4587 -0.266,2.7921 -1,4 z"
       id="path44" />
  </g>
  <g
     id="g45"
     transform="translate(-79.378899,0.5)">
    <path
       style="opacity:1"
       fill="#9a7759"
       d="m 242.5,59.5 c 1,0 2,0 3,0 1.012,1.3717 2.012,2.705 3,4 1.623,2.451 3.789,4.451 6.5,6 0.494,1.6341 0.66,3.3008 0.5,5 1.929,-0.2692 3.595,0.2308 5,1.5 -2.208,1.8357 -3.542,4.169 -4,7 2.245,-0.1953 4.078,-1.3619 5.5,-3.5 0.236,1.6193 1.069,2.6193 2.5,3 1.139,3.1729 -0.027,3.8395 -3.5,2 -2.368,0.6999 -4.534,1.6999 -6.5,3 -1.002,-1.5109 -1.669,-3.1776 -2,-5 1,0 2,0 3,0 0,-2.3333 0,-4.6667 0,-7 -2,0 -4,0 -6,0 0,-1 0,-2 0,-3 0.763,-0.7679 1.763,-1.2679 3,-1.5 -1.097,-2.7648 -3.097,-4.4314 -6,-5 0.333,-0.3333 0.667,-0.6667 1,-1 -1.964,-1.6255 -3.631,-3.4588 -5,-5.5 z"
       id="path45" />
  </g>
  <g
     id="g46"
     transform="translate(-79.378899,0.5)">
    <path
       style="opacity:0.992"
       fill="#8f886c"
       d="m 138.5,72.5 c 2.403,-0.052 4.736,0.2814 7,1 1.542,0.8007 3.208,1.134 5,1 0.669,4.1759 -0.831,5.5093 -4.5,4 -0.738,3.9017 -0.072,7.5684 2,11 0.671,-0.7524 1.504,-1.0858 2.5,-1 -0.25,2.714 -0.417,5.3806 -0.5,8 0.333,-0.3333 0.667,-0.6667 1,-1 0.422,1.9257 1.589,2.9257 3.5,3 1.406,0.4731 2.073,1.4731 2,3 -1.066,5.631 -3.566,6.298 -7.5,2 -3.329,-4.0017 -3.163,-7.835 0.5,-11.5 -1.431,-0.4652 -2.597,-1.2986 -3.5,-2.5 -2.662,-5.7362 -5.162,-11.4028 -7.5,-17 z"
       id="path46" />
  </g>
  <g
     id="g47"
     transform="translate(-79.378899,0.5)">
    <path
       style="opacity:0.992"
       fill="#837456"
       d="m 268.5,68.5 c 0.847,1.4663 2.18,2.2996 4,2.5 -0.808,0.3076 -1.475,0.8076 -2,1.5 1.187,1.0195 2.187,2.1861 3,3.5 -2.241,1.522 -4.574,2.8553 -7,4 1.558,0.21 2.891,0.71 4,1.5 0.039,1.2562 -0.461,2.2562 -1.5,3 -1.049,-1.6066 -2.549,-2.2733 -4.5,-2 1.307,-1.3016 1.307,-2.635 0,-4 1.209,-3.5698 2.542,-6.9031 4,-10 z"
       id="path47" />
  </g>
  <g
     id="g48"
     transform="translate(-79.378899,0.5)">
    <path
       style="opacity:1"
       fill="#856342"
       d="m 191.5,72.5 c 1.333,0 2.667,0 4,0 1,0.3333 1.667,1 2,2 1.613,2.6318 3.28,5.2984 5,8 -0.346,1.1956 -0.846,1.1956 -1.5,0 -0.436,2.8979 -1.603,5.2312 -3.5,7 -1.644,-0.2135 -3.144,0.1198 -4.5,1 -0.36,-2.1079 -1.027,-4.1079 -2,-6 -1.011,-0.8366 -2.178,-1.17 -3.5,-1 -1.359,-0.5065 -2.359,-1.5065 -3,-3 -0.667,0.3333 -1.333,0.6667 -2,1 -1.673,-1.5863 -3.673,-2.2529 -6,-2 0,-2 0,-4 0,-6 1.64,0.8201 3.307,1.6534 5,2.5 3.275,0.0705 6.442,0.2371 9.5,0.5 1.768,-1.1819 1.935,-2.5152 0.5,-4 z"
       id="path48" />
  </g>
  <g
     id="g49"
     transform="translate(-79.378899,0.5)">
    <path
       style="opacity:0.625"
       fill="#c1ad8e"
       d="m 216.5,68.5 c 11.484,-1.6732 15.984,3.3268 13.5,15 -1.845,0.5495 -3.345,1.5495 -4.5,3 1.843,0.2552 3.843,0.4219 6,0.5 0.928,0.3879 1.595,1.0546 2,2 -0.939,1.9439 -2.273,3.6106 -4,5 0.752,0.6708 1.086,1.5041 1,2.5 -0.667,-0.3333 -1.333,-0.6667 -2,-1 -0.077,-3.0092 1.256,-5.1759 4,-6.5 -2.525,-0.8959 -4.692,-0.3959 -6.5,1.5 -0.717,-0.5442 -1.217,-1.2109 -1.5,-2 0,-1.6667 0,-3.3333 0,-5 1,0 2,0 3,0 -0.886,-3.537 -3.219,-5.2037 -7,-5 0,-0.6667 0,-1.3333 0,-2 1.741,-2.1478 2.907,-4.4812 3.5,-7 -2.381,-0.935 -4.881,-1.2683 -7.5,-1 z"
       id="path49" />
  </g>
  <g
     id="g50"
     transform="translate(-79.378899,0.5)">
    <path
       style="opacity:1"
       fill="#b2916f"
       d="m 220.5,78.5 c 3.781,-0.2037 6.114,1.463 7,5 -1,0 -2,0 -3,0 0,1.6667 0,3.3333 0,5 -0.65,-0.3039 -1.317,-0.6373 -2,-1 -2.638,1.0826 -4.971,2.4159 -7,4 -0.992,0.1716 -1.658,-0.1618 -2,-1 0.939,-0.8274 0.605,-1.4941 -1,-2 -0.111,-0.6174 -0.444,-1.1174 -1,-1.5 2.108,-0.3599 4.108,-1.0266 6,-2 -0.667,-0.3333 -1.333,-0.6667 -2,-1 2.786,-2.0214 2.453,-3.5214 -1,-4.5 1.896,-0.9656 3.896,-1.2989 6,-1 z"
       id="path50" />
  </g>
  <g
     id="g51"
     transform="translate(-79.378899,0.5)">
    <path
       style="opacity:1"
       fill="#ab8e68"
       d="m 214.5,69.5 c -1.581,1.6417 -2.247,3.6417 -2,6 2.667,0.3333 5.333,0.6667 8,1 0,0.6667 0,1.3333 0,2 -2.104,-0.2989 -4.104,0.0344 -6,1 3.453,0.9786 3.786,2.4786 1,4.5 0.667,0.3333 1.333,0.6667 2,1 -1.892,0.9734 -3.892,1.6401 -6,2 0.556,0.3826 0.889,0.8826 1,1.5 -1.333,0 -2.667,0 -4,0 -0.333,-4 -0.667,-8 -1,-12 0.707,-3.8715 3.04,-6.2048 7,-7 z"
       id="path51" />
  </g>
  <g
     id="g52"
     transform="translate(-79.378899,0.5)">
    <path
       style="opacity:0.908"
       fill="#bd9f77"
       d="m 197.5,74.5 c 3.352,3.1953 6.185,6.862 8.5,11 0.181,-3.1946 0.681,-6.1946 1.5,-9 0.333,4 0.667,8 1,12 1.333,0 2.667,0 4,0 1.605,0.5059 1.939,1.1726 1,2 -1.838,-0.4769 -3.672,-0.8103 -5.5,-1 -0.333,3.3333 -0.667,6.6667 -1,10 -1.412,1.952 -3.245,3.285 -5.5,4 -1.175,0.219 -2.175,-0.114 -3,-1 1.273,-4.4345 0.939,-8.7678 -1,-13 1.897,-1.7688 3.064,-4.1021 3.5,-7 0.654,1.1956 1.154,1.1956 1.5,0 -1.72,-2.7016 -3.387,-5.3682 -5,-8 z"
       id="path52" />
  </g>
  <g
     id="g53"
     transform="translate(-79.378899,0.5)">
    <path
       style="opacity:1"
       fill="#af8a66"
       d="m 176.5,69.5 c 0,1.3333 0,2.6667 0,4 0,2 0,4 0,6 2.327,-0.2529 4.327,0.4137 6,2 0.667,-0.3333 1.333,-0.6667 2,-1 0.641,1.4935 1.641,2.4935 3,3 1.744,1.918 2.744,4.2513 3,7 -0.719,3.1649 -1.052,6.1649 -1,9 -3.013,-3.8348 -7.013,-5.5015 -12,-5 -0.432,-1.2095 -1.099,-2.2095 -2,-3 -0.333,-0.6667 -0.667,-1.3333 -1,-2 0.116,-3.4103 -1.55,-4.7436 -5,-4 -1.4,-0.6001 -2.4,-1.6001 -3,-3 2.436,1.5171 4.602,1.1838 6.5,-1 0.621,-3.7496 1.454,-7.4162 2.5,-11 0,-0.6667 0.333,-1 1,-1 z"
       id="path53" />
  </g>
  <g
     id="g54"
     transform="translate(-79.378899,0.5)">
    <path
       style="opacity:0.89"
       fill="#b7a585"
       d="m 270.5,81.5 c 0.333,0 0.667,0 1,0 0.122,8.3845 -3.878,11.8845 -12,10.5 -1.57,-1.6783 -3.237,-3.1783 -5,-4.5 1.966,-1.3001 4.132,-2.3001 6.5,-3 3.473,1.8395 4.639,1.1729 3.5,-2 1.951,-0.2733 3.451,0.3934 4.5,2 1.039,-0.7438 1.539,-1.7438 1.5,-3 z"
       id="path54" />
  </g>
  <g
     id="g55"
     transform="translate(-79.378899,0.5)">
    <path
       style="opacity:1"
       fill="#57583f"
       d="m 159.5,77.5 c -1.333,5.6667 -1.333,11.3333 0,17 -3.046,-0.3174 -4.713,1.0159 -5,4 -1.911,-0.0743 -3.078,-1.0743 -3.5,-3 -0.333,0.3333 -0.667,0.6667 -1,1 0.083,-2.6194 0.25,-5.286 0.5,-8 1.797,-0.4349 3.797,-0.4349 6,0 0.077,-3.7148 -0.256,-7.3815 -1,-11 1.333,0 2.667,0 4,0 z"
       id="path55" />
  </g>
  <g
     id="g56"
     transform="translate(-79.378899,0.5)">
    <path
       style="opacity:1"
       fill="#a46049"
       d="m 224.5,88.5 c 0.283,0.7891 0.783,1.4558 1.5,2 1.808,-1.8959 3.975,-2.3959 6.5,-1.5 -2.744,1.3241 -4.077,3.4908 -4,6.5 -1,0 -2,0 -3,0 -0.451,-3.6224 -2.451,-5.1224 -6,-4.5 -1.411,3.631 -1.078,7.131 1,10.5 3.029,0.847 5.695,2.181 8,4 0,0.333 0,0.667 0,1 -0.651,0.591 -1.318,1.257 -2,2 -2.644,-0.795 -5.311,-1.462 -8,-2 -0.283,-0.789 -0.783,-1.456 -1.5,-2 -0.175,-4.5195 -0.675,-8.8528 -1.5,-13 2.029,-1.5841 4.362,-2.9174 7,-4 0.683,0.3627 1.35,0.6961 2,1 z"
       id="path56" />
  </g>
  <g
     id="g57"
     transform="translate(-79.378899,0.5)">
    <path
       style="opacity:1"
       fill="#ad6a4c"
       d="m 244.5,78.5 c 0.622,1.1266 1.455,2.1266 2.5,3 0.667,4.6667 0.667,9.3333 0,14 -1.927,3.4481 -3.261,7.115 -4,11 -1.965,2.05 -4.132,3.717 -6.5,5 -1.221,0.528 -2.387,1.195 -3.5,2 -0.464,-0.594 -0.631,-1.261 -0.5,-2 0.744,-3.45 -0.59,-5.116 -4,-5 0,-0.333 0,-0.667 0,-1 1.601,-1.019 2.601,-2.519 3,-4.5 -1.663,-1.4946 -2.663,-3.328 -3,-5.5 0.667,0.3333 1.333,0.6667 2,1 1.29,0.5577 2.123,1.5577 2.5,3 1.077,-6.6556 2.91,-12.9889 5.5,-19 1.642,-1.5808 3.642,-2.2475 6,-2 z"
       id="path57" />
  </g>
  <g
     id="g58"
     transform="translate(-79.378899,0.5)">
    <path
       style="opacity:1"
       fill="#a44e3a"
       d="m 228.5,95.5 c 0.337,2.172 1.337,4.0054 3,5.5 -0.399,1.981 -1.399,3.481 -3,4.5 -2.305,-1.819 -4.971,-3.153 -8,-4 -2.078,-3.369 -2.411,-6.869 -1,-10.5 3.549,-0.6224 5.549,0.8776 6,4.5 1,0 2,0 3,0 z"
       id="path58" />
  </g>
  <g
     id="g59"
     transform="translate(-79.378899,0.5)">
    <path
       style="opacity:1"
       fill="#b0523f"
       d="m 244.5,95.5 c -1.181,2.3357 -2.848,4.3357 -5,6 -2.521,-1.7601 -3.354,-4.0934 -2.5,-7 2.384,-0.5758 4.551,-2.0758 6.5,-4.5 -2.219,-1.6006 -3.552,-3.7672 -4,-6.5 0.76,-3.4599 2.26,-3.7932 4.5,-1 1.561,4.4436 1.728,8.777 0.5,13 z"
       id="path59" />
  </g>
  <g
     id="g60"
     transform="translate(-79.378899,0.5)">
    <path
       style="opacity:0.995"
       fill="#a27547"
       d="m 187.5,83.5 c 1.322,-0.17 2.489,0.1634 3.5,1 0.973,1.8921 1.64,3.8921 2,6 1.356,-0.8802 2.856,-1.2135 4.5,-1 1.939,4.2322 2.273,8.5655 1,13 0.825,0.886 1.825,1.219 3,1 0,0.667 0,1.333 0,2 0,1 0,2 0,3 -0.789,0.283 -1.456,0.783 -2,1.5 1.016,1.677 2.016,3.343 3,5 -1.957,2.501 -2.623,5.167 -2,8 0.916,0.374 1.75,0.874 2.5,1.5 0.278,-0.916 0.778,-1.582 1.5,-2 0.486,2.452 0.486,5.118 0,8 -2.109,0.903 -4.109,1.737 -6,2.5 0.522,-0.561 0.855,-1.228 1,-2 -0.423,-3.478 -1.423,-6.644 -3,-9.5 -0.432,-1.21 -1.099,-2.21 -2,-3 0.317,-3.072 -0.016,-6.072 -1,-9 -1.875,-0.909 -3.208,-2.243 -4,-4 0,-2 0,-4 0,-6 -0.052,-2.8351 0.281,-5.8351 1,-9 -0.256,-2.7487 -1.256,-5.082 -3,-7 z"
       id="path60" />
  </g>
  <g
     id="g61"
     transform="translate(-79.378899,0.5)">
    <path
       style="opacity:1"
       fill="#ab543a"
       d="m 174.5,89.5 c 0.333,0.6667 0.667,1.3333 1,2 -0.157,1.3734 0.01,2.7068 0.5,4 1.709,1.6752 3.376,3.3419 5,5 0.495,1.973 0.662,3.973 0.5,6 -3.012,-0.755 -5.678,-2.088 -8,-4 0,-1 0,-2 0,-3 -1,0 -2,0 -3,0 0.163,-2.3568 -0.003,-4.6902 -0.5,-7 -4.231,-1.6976 -4.397,-3.3643 -0.5,-5 1.677,0.6869 3.344,1.3535 5,2 z"
       id="path61" />
  </g>
  <g
     id="g62"
     transform="translate(-79.378899,0.5)">
    <path
       style="opacity:0.145"
       fill="#d3af8d"
       d="m 215.5,91.5 c 0.825,4.1472 1.325,8.4805 1.5,13 0.717,0.544 1.217,1.211 1.5,2 -3.912,-1.244 -5.912,-3.911 -6,-8 1,0 2,0 3,0 0,-2.3333 0,-4.6667 0,-7 z"
       id="path62" />
  </g>
  <g
     id="g63"
     transform="translate(-79.378899,0.5)">
    <path
       style="opacity:1"
       fill="#ac6245"
       d="m 169.5,85.5 c 3.45,-0.7436 5.116,0.5897 5,4 -1.656,-0.6465 -3.323,-1.3131 -5,-2 -3.897,1.6357 -3.731,3.3024 0.5,5 0.497,2.3098 0.663,4.6432 0.5,7 1,0 2,0 3,0 0,1 0,2 0,3 2.322,1.912 4.988,3.245 8,4 0.162,-2.027 -0.005,-4.027 -0.5,-6 -1.624,-1.6581 -3.291,-3.3248 -5,-5 -0.49,-1.2932 -0.657,-2.6266 -0.5,-4 0.901,0.7905 1.568,1.7905 2,3 2.826,1.4746 5.826,2.8079 9,4 0.841,4.634 0.841,9.301 0,14 -3.912,-0.124 -7.579,-1.124 -11,-3 -1.039,-3.421 -3.039,-6.088 -6,-8 -1.709,-3.4545 -3.042,-7.1212 -4,-11 -0.131,-2.8667 1.203,-4.5334 4,-5 z"
       id="path63" />
  </g>
  <g
     id="g64"
     transform="translate(-79.378899,0.5)">
    <path
       style="opacity:1"
       fill="#a74f3b"
       d="m 239.5,83.5 c 0.448,2.7328 1.781,4.8994 4,6.5 -1.949,2.4242 -4.116,3.9242 -6.5,4.5 -0.854,2.9066 -0.021,5.2399 2.5,7 2.152,-1.6643 3.819,-3.6643 5,-6 -0.874,3.2893 -1.541,6.623 -2,10 -1.333,0 -2.667,0 -4,0 0.116,3.41 -1.55,4.744 -5,4 0.375,-9.239 2.375,-17.9053 6,-26 z"
       id="path64" />
  </g>
  <g
     id="g65"
     transform="translate(-79.378899,0.5)">
    <path
       style="opacity:1"
       fill="#b79163"
       d="m 164.5,90.5 c 0.333,0 0.667,0 1,0 0.958,3.8788 2.291,7.5455 4,11 0,0.667 0,1.333 0,2 -1.756,1.052 -2.423,2.719 -2,5 -2.053,-0.098 -3.72,0.569 -5,2 -4.121,-1.521 -6.121,-4.521 -6,-9 1.517,0.011 2.684,0.677 3.5,2 1.257,-2.246 3.09,-3.5791 5.5,-4 -0.028,-2.7514 -1.028,-5.0847 -3,-7 0.355,-1.0223 1.022,-1.689 2,-2 z"
       id="path65" />
  </g>
  <g
     id="g66"
     transform="translate(-79.378899,0.5)">
    <path
       style="opacity:0.533"
       fill="#c89b7f"
       d="m 201.5,105.5 c 0.651,0.591 1.318,1.257 2,2 1.107,-0.522 2.274,-0.855 3.5,-1 3.649,1.743 7.482,2.743 11.5,3 -1.122,0.656 -2.455,0.989 -4,1 -4.234,-1.386 -8.568,-2.053 -13,-2 0,-1 0,-2 0,-3 z"
       id="path66" />
  </g>
  <g
     id="g67"
     transform="translate(-79.378899,0.5)">
    <path
       style="opacity:0.487"
       fill="#cfc489"
       d="m 249.5,100.5 c 0.725,2.447 1.392,4.947 2,7.5 -1.89,3.927 -4.556,7.093 -8,9.5 -2.08,-0.544 -4.08,-1.378 -6,-2.5 -0.119,-1.145 -0.452,-2.312 -1,-3.5 2.104,0.299 4.104,-0.034 6,-1 0.752,-1.923 2.085,-3.923 4,-6 0.526,-1.73 1.526,-3.064 3,-4 z"
       id="path67" />
  </g>
  <g
     id="g68"
     transform="translate(-79.378899,0.5)">
    <path
       style="opacity:0.125"
       fill="#d7b091"
       d="m 218.5,106.5 c 2.689,0.538 5.356,1.205 8,2 0.682,-0.743 1.349,-1.409 2,-2 3.41,-0.116 4.744,1.55 4,5 -0.667,0.333 -1.333,0.667 -2,1 0.131,-0.739 -0.036,-1.406 -0.5,-2 -0.985,1.314 -2.152,2.314 -3.5,3 -0.617,-0.111 -1.117,-0.444 -1.5,-1 -1.804,4.135 -4.971,6.302 -9.5,6.5 -1.481,0.98 -2.815,2.147 -4,3.5 -0.607,-0.124 -0.94,-0.457 -1,-1 -0.342,-0.838 -1.008,-1.172 -2,-1 1.809,-0.981 3.143,-2.481 4,-4.5 2.633,0.253 5.3,0.253 8,0 2.058,-1.808 2.392,-3.975 1,-6.5 -1,0 -2,0 -3,0 1.333,-1 1.333,-2 0,-3 z"
       id="path68" />
  </g>
  <g
     id="g69"
     transform="translate(-79.378899,0.5)">
    <path
       style="opacity:1"
       fill="#b57555"
       d="m 177.5,94.5 c 4.987,-0.5015 8.987,1.1652 12,5 0,2 0,4 0,6 -2.428,2.487 -2.428,5.153 0,8 -0.5,3 -1,6 -1.5,9 -3.352,4 -6.519,3.834 -9.5,-0.5 0.597,-1.062 0.93,-2.228 1,-3.5 -1.338,-3.02 -2.671,-6.02 -4,-9 3.421,1.876 7.088,2.876 11,3 0.841,-4.699 0.841,-9.366 0,-14 -3.174,-1.1921 -6.174,-2.5254 -9,-4 z"
       id="path69" />
  </g>
  <g
     id="g70"
     transform="translate(-79.378899,0.5)">
    <path
       style="opacity:1"
       fill="#b18e5a"
       d="m 169.5,103.5 c 2.278,2.267 4.111,4.933 5.5,8 0.499,3.986 0.666,7.986 0.5,12 0.131,0.739 -0.036,1.406 -0.5,2 -1.946,-2.92 -4.113,-5.587 -6.5,-8 -2.7,-1.734 -4.7,-4.068 -6,-7 1.28,-1.431 2.947,-2.098 5,-2 -0.423,-2.281 0.244,-3.948 2,-5 z"
       id="path70" />
  </g>
  <g
     id="g71"
     transform="translate(-79.378899,0.5)">
    <path
       style="opacity:1"
       fill="#a1583f"
       d="m 201.5,108.5 c 4.432,-0.053 8.766,0.614 13,2 1.545,-0.011 2.878,-0.344 4,-1 1,0 2,0 3,0 1.392,2.525 1.058,4.692 -1,6.5 -2.7,0.253 -5.367,0.253 -8,0 -0.857,2.019 -2.191,3.519 -4,4.5 -1.983,-0.343 -3.317,0.324 -4,2 -0.722,0.418 -1.222,1.084 -1.5,2 -0.75,-0.626 -1.584,-1.126 -2.5,-1.5 -0.623,-2.833 0.043,-5.499 2,-8 -0.984,-1.657 -1.984,-3.323 -3,-5 0.544,-0.717 1.211,-1.217 2,-1.5 z"
       id="path71" />
  </g>
  <g
     id="g72"
     transform="translate(-79.378899,0.5)">
    <path
       style="opacity:1"
       fill="#b8865e"
       d="m 169.5,101.5 c 2.961,1.912 4.961,4.579 6,8 1.329,2.98 2.662,5.98 4,9 -0.07,1.272 -0.403,2.438 -1,3.5 2.981,4.334 6.148,4.5 9.5,0.5 0.5,-3 1,-6 1.5,-9 -2.428,-2.847 -2.428,-5.513 0,-8 0.792,1.757 2.125,3.091 4,4 0.984,2.928 1.317,5.928 1,9 -1.667,0 -3.333,0 -5,0 1.057,4.606 -0.443,7.94 -4.5,10 -2.286,-2.275 -4.786,-2.942 -7.5,-2 -0.432,-1.21 -1.099,-2.21 -2,-3 0.166,-4.014 -0.001,-8.014 -0.5,-12 -1.389,-3.067 -3.222,-5.733 -5.5,-8 0,-0.667 0,-1.333 0,-2 z"
       id="path72" />
  </g>
  <g
     id="g73"
     transform="translate(-79.378899,0.5)">
    <path
       style="opacity:0.987"
       fill="#c3b782"
       d="m 232.5,111.5 c -0.131,0.739 0.036,1.406 0.5,2 1.113,-0.805 2.279,-1.472 3.5,-2 0.548,1.188 0.881,2.355 1,3.5 1.92,1.122 3.92,1.956 6,2.5 1.226,2.376 3.226,3.876 6,4.5 -1.333,1.333 -1.333,2.667 0,4 -2.227,0.704 -2.56,1.871 -1,3.5 -0.838,0.342 -1.172,1.008 -1,2 -0.667,0 -1,-0.333 -1,-1 0.163,-3.44 -1.504,-5.44 -5,-6 -1.104,-1.889 -2.437,-3.555 -4,-5 -1.247,1.544 -2.58,3.044 -4,4.5 0.333,0.333 0.667,0.667 1,1 -1.372,1.242 -2.372,2.742 -3,4.5 -0.825,0.886 -1.825,1.219 -3,1 1.144,-5.874 1.811,-11.874 2,-18 0.667,-0.333 1.333,-0.667 2,-1 z"
       id="path73" />
  </g>
  <g
     id="g74"
     transform="translate(-79.378899,0.5)">
    <path
       style="opacity:0.968"
       fill="#d2c492"
       d="m 257.5,124.5 c -0.111,0.617 -0.444,1.117 -1,1.5 5.004,3.18 10.338,4.346 16,3.5 0.928,1.835 2.094,2.168 3.5,1 2.265,1.416 3.431,3.416 3.5,6 1.175,-0.219 2.175,0.114 3,1 -0.865,1.083 -1.865,1.249 -3,0.5 -2.363,-2.18 -5.03,-3.847 -8,-5 -6.279,0.689 -12.779,-0.145 -19.5,-2.5 -1.313,0.787 -2.48,0.454 -3.5,-1 -1.56,-1.629 -1.227,-2.796 1,-3.5 -1.333,-1.333 -1.333,-2.667 0,-4 -2.774,-0.624 -4.774,-2.124 -6,-4.5 3.444,-2.407 6.11,-5.573 8,-9.5 -0.608,-2.553 -1.275,-5.053 -2,-7.5 -0.065,-0.438 0.101,-0.7716 0.5,-1 2.964,0.4654 4.797,2.132 5.5,5 -2.109,4.611 -4.442,9.111 -7,13.5 1.904,3.624 4.904,5.791 9,6.5 z"
       id="path74" />
  </g>
  <g
     id="g75"
     transform="translate(-79.378899,0.5)">
    <path
       style="opacity:0.605"
       fill="#cdc194"
       d="m 230.5,112.5 c -0.189,6.126 -0.856,12.126 -2,18 1.175,0.219 2.175,-0.114 3,-1 0.628,-1.758 1.628,-3.258 3,-4.5 -0.333,-0.333 -0.667,-0.667 -1,-1 1.42,-1.456 2.753,-2.956 4,-4.5 1.563,1.445 2.896,3.111 4,5 3.496,0.56 5.163,2.56 5,6 -2.84,-2.643 -6.173,-3.476 -10,-2.5 -2.259,1.715 -4.426,3.548 -6.5,5.5 -1.861,4.808 -4.361,9.142 -7.5,13 -3.032,-0.512 -4.199,-2.178 -3.5,-5 6.524,-7.204 8.691,-15.371 6.5,-24.5 0.837,-1.011 1.17,-2.178 1,-3.5 1.348,-0.686 2.515,-1.686 3.5,-3 0.464,0.594 0.631,1.261 0.5,2 z"
       id="path75" />
  </g>
  <g
     id="g76"
     transform="translate(-79.378899,0.5)">
    <path
       style="opacity:1"
       fill="#bd9a69"
       d="m 168.5,117.5 c 2.387,2.413 4.554,5.08 6.5,8 0.464,-0.594 0.631,-1.261 0.5,-2 0.901,0.79 1.568,1.79 2,3 0.761,1.197 2.428,2.03 5,2.5 -1.619,0.236 -2.619,1.069 -3,2.5 -0.681,1.658 -1.515,3.325 -2.5,5 -1.391,-2.215 -3.057,-2.215 -5,0 2.391,8.604 6.558,9.271 12.5,2 1.459,-0.067 2.792,0.266 4,1 -0.434,4.142 -1.934,7.808 -4.5,11 -0.494,1.634 -0.66,3.301 -0.5,5 -2.656,1.906 -5.656,2.406 -9,1.5 -1.941,-2.454 -4.275,-4.287 -7,-5.5 -4.105,-0.609 -8.105,-1.275 -12,-2 6.451,-0.101 12.784,0.399 19,1.5 -2,-1.667 -4,-3.333 -6,-5 0.808,-0.308 1.475,-0.808 2,-1.5 -0.915,-0.828 -1.581,-1.828 -2,-3 1.278,-2.222 2.278,-4.556 3,-7 4.673,-0.934 5.006,-2.434 1,-4.5 1.473,-0.71 2.14,-1.876 2,-3.5 -2.982,0.463 -5.982,0.796 -9,1 2.292,-0.84 4.625,-1.84 7,-3 -1.61,-2.225 -2.943,-4.559 -4,-7 z"
       id="path76" />
  </g>
  <g
     id="g77"
     transform="translate(-79.378899,0.5)">
    <path
       style="opacity:1"
       fill="#bf9a70"
       d="m 194.5,118.5 c 0.901,0.79 1.568,1.79 2,3 -0.997,-0.03 -1.664,0.47 -2,1.5 -0.822,2.434 -1.156,4.934 -1,7.5 -3.635,0.156 -3.968,1.322 -1,3.5 -0.556,0.383 -0.889,0.883 -1,1.5 -2.412,0.194 -3.412,1.527 -3,4 -1.208,-0.734 -2.541,-1.067 -4,-1 1.239,-0.712 1.739,-1.712 1.5,-3 -2.069,-1.585 -4.236,-2.919 -6.5,-4 0.381,-1.431 1.381,-2.264 3,-2.5 -2.572,-0.47 -4.239,-1.303 -5,-2.5 2.714,-0.942 5.214,-0.275 7.5,2 4.057,-2.06 5.557,-5.394 4.5,-10 1.667,0 3.333,0 5,0 z"
       id="path77" />
  </g>
  <g
     id="g78"
     transform="translate(-79.378899,0.5)">
    <path
       style="opacity:0.898"
       fill="#d4c499"
       d="m 257.5,124.5 c 7.274,1.636 14.608,3.136 22,4.5 3.002,2.503 6.335,4.503 10,6 6.63,8.388 4.63,11.388 -6,9 -4.461,-2.064 -8.794,-4.398 -13,-7 -4.692,-1.186 -9.359,-1.353 -14,-0.5 -1.889,-1.242 -3.889,-1.242 -6,0 -0.575,-1.911 -1.575,-3.578 -3,-5 -0.172,-0.992 0.162,-1.658 1,-2 1.02,1.454 2.187,1.787 3.5,1 6.721,2.355 13.221,3.189 19.5,2.5 2.97,1.153 5.637,2.82 8,5 1.135,0.749 2.135,0.583 3,-0.5 -0.825,-0.886 -1.825,-1.219 -3,-1 -0.069,-2.584 -1.235,-4.584 -3.5,-6 -1.406,1.168 -2.572,0.835 -3.5,-1 -5.662,0.846 -10.996,-0.32 -16,-3.5 0.556,-0.383 0.889,-0.883 1,-1.5 z"
       id="path78" />
  </g>
  <g
     id="g79"
     transform="translate(-79.378899,0.5)">
    <path
       style="opacity:1"
       fill="#ae7f4e"
       d="m 161.5,130.5 c 3.748,-1.869 6.748,-1.036 9,2.5 -2.32,2.954 -4.653,5.954 -7,9 0.952,1.3 0.952,2.467 0,3.5 -1.725,-2.248 -3.058,-1.748 -4,1.5 -1.634,0.494 -3.301,0.66 -5,0.5 -0.898,-0.658 -1.898,-1.324 -3,-2 1.321,-2.215 3.154,-3.882 5.5,-5 1.342,1.402 2.176,1.069 2.5,-1 -1.459,-2.083 -2.792,-4.25 -4,-6.5 2.269,0.374 4.602,0.374 7,0 1.066,-1.159 0.733,-1.992 -1,-2.5 z"
       id="path79" />
  </g>
  <g
     id="g80"
     transform="translate(-79.378899,0.5)">
    <path
       style="opacity:0.757"
       fill="#c8ae7f"
       d="m 208.5,120.5 c 0.992,-0.172 1.658,0.162 2,1 -1,0 -2,0 -3,0 -0.132,8.456 -4.132,14.123 -12,17 -1.236,-0.746 -2.57,-1.079 -4,-1 0,-0.667 0,-1.333 0,-2 0.111,-0.617 0.444,-1.117 1,-1.5 -2.968,-2.178 -2.635,-3.344 1,-3.5 -0.156,-2.566 0.178,-5.066 1,-7.5 0.336,-1.03 1.003,-1.53 2,-1.5 1.577,2.856 2.577,6.022 3,9.5 -0.145,0.772 -0.478,1.439 -1,2 1.891,-0.763 3.891,-1.597 6,-2.5 0.486,-2.882 0.486,-5.548 0,-8 0.683,-1.676 2.017,-2.343 4,-2 z"
       id="path80" />
  </g>
  <g
     id="g81"
     transform="translate(-79.378899,0.5)">
    <path
       style="opacity:1"
       fill="#a97e4c"
       d="m 154.5,129.5 c 2.361,0.174 4.694,0.507 7,1 1.733,0.508 2.066,1.341 1,2.5 -2.398,0.374 -4.731,0.374 -7,0 1.208,2.25 2.541,4.417 4,6.5 -0.324,2.069 -1.158,2.402 -2.5,1 -2.346,1.118 -4.179,2.785 -5.5,5 1.102,0.676 2.102,1.342 3,2 -2.687,0.164 -5.354,-0.003 -8,-0.5 1.333,-0.333 2.667,-0.667 4,-1 -2.579,-2.438 -1.913,-3.938 2,-4.5 1.609,-4.823 -0.225,-6.823 -5.5,-6 -2.544,-0.164 -4.71,0.503 -6.5,2 -1.291,0.237 -2.291,-0.096 -3,-1 5.141,-2.165 10.475,-3.832 16,-5 0.363,-0.683 0.696,-1.35 1,-2 z"
       id="path81" />
  </g>
  <g
     id="g82"
     transform="translate(-79.378899,0.5)">
    <path
       style="opacity:1"
       fill="#c6a876"
       d="m 179.5,131.5 c 2.264,1.081 4.431,2.415 6.5,4 0.239,1.288 -0.261,2.288 -1.5,3 -5.942,7.271 -10.109,6.604 -12.5,-2 1.943,-2.215 3.609,-2.215 5,0 0.985,-1.675 1.819,-3.342 2.5,-5 z"
       id="path82" />
  </g>
  <g
     id="g83"
     transform="translate(-79.378899,0.5)">
    <path
       style="opacity:1"
       fill="#c5ad76"
       d="m 154.5,129.5 c -0.304,0.65 -0.637,1.317 -1,2 -5.525,1.168 -10.859,2.835 -16,5 -2.267,0.923 -4.6,1.756 -7,2.5 1.366,1.6 2.366,3.433 3,5.5 1.836,0.528 3.503,1.194 5,2 -6.447,-0.312 -12.447,1.021 -18,4 -3.768,0.723 -7.435,1.723 -11,3 1.997,-6.664 6.331,-10.997 13,-13 10.399,-4.187 21.065,-7.853 32,-11 z"
       id="path83" />
  </g>
  <g
     id="g84"
     transform="translate(-79.378899,0.5)">
    <path
       style="opacity:1"
       fill="#bc9b63"
       d="m 137.5,136.5 c 0.709,0.904 1.709,1.237 3,1 2.969,-0.829 5.969,-0.995 9,-0.5 -1.489,3.635 -3.156,7.135 -5,10.5 -2.121,0.175 -4.121,-0.159 -6,-1 -1.497,-0.806 -3.164,-1.472 -5,-2 -0.634,-2.067 -1.634,-3.9 -3,-5.5 2.4,-0.744 4.733,-1.577 7,-2.5 z"
       id="path84" />
  </g>
  <g
     id="g85"
     transform="translate(-79.378899,0.5)">
    <path
       style="opacity:1"
       fill="#b28857"
       d="m 155.5,149.5 c -3.791,-0.159 -7.458,-0.825 -11,-2 1.844,-3.365 3.511,-6.865 5,-10.5 -3.031,-0.495 -6.031,-0.329 -9,0.5 1.79,-1.497 3.956,-2.164 6.5,-2 5.275,-0.823 7.109,1.177 5.5,6 -3.913,0.562 -4.579,2.062 -2,4.5 -1.333,0.333 -2.667,0.667 -4,1 2.646,0.497 5.313,0.664 8,0.5 1.699,0.16 3.366,-0.006 5,-0.5 0.942,-3.248 2.275,-3.748 4,-1.5 0.952,-1.033 0.952,-2.2 0,-3.5 2.347,-3.046 4.68,-6.046 7,-9 -2.252,-3.536 -5.252,-4.369 -9,-2.5 -2.306,-0.493 -4.639,-0.826 -7,-1 3.376,-1.582 7.042,-2.249 11,-2 3.018,-0.204 6.018,-0.537 9,-1 0.14,1.624 -0.527,2.79 -2,3.5 4.006,2.066 3.673,3.566 -1,4.5 -0.722,2.444 -1.722,4.778 -3,7 0.419,1.172 1.085,2.172 2,3 -0.525,0.692 -1.192,1.192 -2,1.5 2,1.667 4,3.333 6,5 -6.216,-1.101 -12.549,-1.601 -19,-1.5 z"
       id="path85" />
  </g>
  <g
     id="g86"
     transform="translate(-79.378899,0.5)">
    <path
       style="opacity:0.939"
       fill="#cbb283"
       d="m 191.5,135.5 c 0,0.667 0,1.333 0,2 -1.037,2.238 -1.203,4.571 -0.5,7 1.394,1.888 2.56,3.888 3.5,6 -0.117,1.984 0.55,3.65 2,5 -0.442,1.239 -1.109,2.239 -2,3 -2.486,-0.653 -5.153,-0.653 -8,0 -1.4,-0.6 -2.4,-1.6 -3,-3 -0.16,-1.699 0.006,-3.366 0.5,-5 2.566,-3.192 4.066,-6.858 4.5,-11 -0.412,-2.473 0.588,-3.806 3,-4 z"
       id="path86" />
  </g>
  <g
     id="g87"
     transform="translate(-79.378899,0.5)">
    <path
       style="opacity:0.885"
       fill="#c7b895"
       d="m 256.5,136.5 c -1.29,0.558 -2.123,1.558 -2.5,3 -0.798,3.393 -1.798,6.726 -3,10 -0.708,0.881 -1.542,1.547 -2.5,2 -2.667,0.333 -5.333,0.667 -8,1 -2.526,-0.419 -4.859,-0.586 -7,-0.5 0.333,-0.333 0.667,-0.667 1,-1 -1.537,-1.11 -2.203,-2.61 -2,-4.5 6.095,-1.087 11.762,-3.253 17,-6.5 0.837,-1.011 1.17,-2.178 1,-3.5 2.111,-1.242 4.111,-1.242 6,0 z"
       id="path87" />
  </g>
  <g
     id="g88"
     transform="translate(-79.378899,0.5)">
    <path
       style="opacity:0.998"
       fill="#d4c594"
       d="m 122.5,140.5 c -6.669,2.003 -11.003,6.336 -13,13 3.565,-1.277 7.232,-2.277 11,-3 -5.847,3.682 -9.181,9.015 -10,16 -2.839,-4.063 -6.839,-5.73 -12,-5 0.7625,-0.768 1.763,-1.268 3,-1.5 -0.808,-0.308 -1.475,-0.808 -2,-1.5 0.897,-3.847 2.563,-7.18 5,-10 2.493,0.369 3.16,-0.297 2,-2 5.12,-2.56 10.454,-4.56 16,-6 z"
       id="path88" />
  </g>
  <g
     id="g89"
     transform="translate(-79.378899,0.5)">
    <path
       style="opacity:0.903"
       fill="#d0bd97"
       d="m 232.5,146.5 c -0.203,1.89 0.463,3.39 2,4.5 -0.333,0.333 -0.667,0.667 -1,1 2.141,-0.086 4.474,0.081 7,0.5 -0.653,1.307 -1.32,2.64 -2,4 0.47,0.963 1.137,0.963 2,0 -0.466,1.701 -0.466,3.201 0,4.5 -4.607,2.973 -9.607,4.807 -15,5.5 3.314,-2.272 6.981,-4.105 11,-5.5 2.315,-1.368 2.315,-2.201 0,-2.5 -4.739,0.645 -9.239,1.978 -13.5,4 -1.062,-0.597 -2.228,-0.93 -3.5,-1 -2.678,0.675 -5.344,1.342 -8,2 0.667,-1.333 1.333,-2.667 2,-4 1.726,0.315 3.393,0.481 5,0.5 1.852,-3.211 3.519,-6.544 5,-10 2.989,-1.273 5.989,-2.439 9,-3.5 z"
       id="path89" />
  </g>
  <g
     id="g90"
     transform="translate(-79.378899,0.5)">
    <path
       style="opacity:0.265"
       fill="#d5c1a0"
       d="m 248.5,151.5 c -0.273,1.951 0.393,3.451 2,4.5 2.667,0.333 5.333,0.667 8,1 2.118,0.26 3.784,1.26 5,3 2.429,0.703 4.762,0.537 7,-0.5 1.792,0.809 3.792,1.309 6,1.5 -1.293,0.49 -2.627,0.657 -4,0.5 -3.299,1.247 -6.633,1.247 -10,0 -0.453,-0.958 -1.119,-1.792 -2,-2.5 -3.036,-0.638 -6.036,-0.472 -9,0.5 -1.172,-0.419 -2.172,-1.085 -3,-2 -2.229,1.077 -4.563,1.744 -7,2 0.237,-1.291 -0.096,-2.291 -1,-3 -0.863,0.963 -1.53,0.963 -2,0 0.68,-1.36 1.347,-2.693 2,-4 2.667,-0.333 5.333,-0.667 8,-1 z"
       id="path90" />
  </g>
  <g
     id="g91"
     transform="translate(-79.378899,0.5)">
    <path
       style="opacity:0.924"
       fill="#d1c698"
       d="m 106.5,146.5 c 1.16,1.703 0.493,2.369 -2,2 -2.437,2.82 -4.103,6.153 -5,10 0.525,0.692 1.192,1.192 2,1.5 -1.237,0.232 -2.2375,0.732 -3,1.5 -2.4418,-0.381 -3.1085,0.286 -2,2 -2.0424,4.17 -4.3758,8.17 -7,12 -1.291,0.237 -2.291,-0.096 -3,-1 1.7733,-12.897 8.4399,-22.23 20,-28 z"
       id="path91" />
  </g>
  <g
     id="g92"
     transform="translate(-79.378899,0.5)">
    <path
       style="opacity:1"
       fill="#d3b791"
       d="m 194.5,150.5 c 5.422,4.877 11.756,7.877 19,9 -0.667,1.333 -1.333,2.667 -2,4 -1.639,0.973 -2.973,2.306 -4,4 -0.617,0.111 -1.117,0.444 -1.5,1 -0.49,-1.293 -0.657,-2.627 -0.5,-4 -3.36,0.116 -6.693,0.449 -10,1 -0.02,-1.643 0.647,-2.976 2,-4 -1.27,-0.788 -2.27,-1.788 -3,-3 0.891,-0.761 1.558,-1.761 2,-3 -1.45,-1.35 -2.117,-3.016 -2,-5 z"
       id="path92" />
  </g>
  <g
     id="g93"
     transform="translate(-79.378899,0.5)">
    <path
       style="opacity:1"
       fill="#ccb488"
       d="m 240.5,156.5 c 0.904,0.709 1.237,1.709 1,3 2.437,-0.256 4.771,-0.923 7,-2 0.828,0.915 1.828,1.581 3,2 2.964,-0.972 5.964,-1.138 9,-0.5 0.881,0.708 1.547,1.542 2,2.5 0.24,2.092 -0.594,4.092 -2.5,6 -2.472,-1.101 -4.972,-2.101 -7.5,-3 -4.482,1.163 -8.316,3.496 -11.5,7 -0.923,-1.259 -1.757,-2.592 -2.5,-4 -0.683,0.363 -1.35,0.696 -2,1 -3.296,1.86 -6.63,2.527 -10,2 -0.934,-1.068 -1.268,-2.401 -1,-4 5.393,-0.693 10.393,-2.527 15,-5.5 -0.466,-1.299 -0.466,-2.799 0,-4.5 z"
       id="path93" />
  </g>
  <g
     id="g94"
     transform="translate(-79.378899,0.5)">
    <path
       style="opacity:0.899"
       fill="#d2bb9c"
       d="m 270.5,159.5 c 3.018,-0.165 6.018,0.002 9,0.5 1.167,0.5 2,1.333 2.5,2.5 1.561,8.701 0.061,16.701 -4.5,24 -3.623,-0.149 -3.957,-1.316 -1,-3.5 -0.733,-1.766 -1.067,-3.599 -1,-5.5 0.321,-1.548 1.321,-2.215 3,-2 -0.239,-1.967 0.094,-3.801 1,-5.5 -1.546,-1.44 -2.379,-3.273 -2.5,-5.5 -0.671,-0.752 -1.504,-1.086 -2.5,-1 -0.667,-0.667 -1.333,-1.333 -2,-2 1.373,0.157 2.707,-0.01 4,-0.5 -2.208,-0.191 -4.208,-0.691 -6,-1.5 z"
       id="path94" />
  </g>
  <g
     id="g95"
     transform="translate(-79.378899,0.5)">
    <path
       style="opacity:1"
       fill="#d7b998"
       d="m 274.5,163.5 c 0.996,-0.086 1.829,0.248 2.5,1 0.121,2.227 0.954,4.06 2.5,5.5 -0.906,1.699 -1.239,3.533 -1,5.5 -1.679,-0.215 -2.679,0.452 -3,2 -1.582,-1.376 -3.415,-2.376 -5.5,-3 -1.011,0.556 -1.844,1.222 -2.5,2 -0.221,-2.597 -0.721,-2.597 -1.5,0 -0.464,-0.594 -0.631,-1.261 -0.5,-2 1.098,-0.897 1.098,-1.73 0,-2.5 0.667,-0.333 1.333,-0.667 2,-1 -2,-0.333 -4,-0.667 -6,-1 0.857,-0.689 1.523,-1.522 2,-2.5 3.169,-0.202 6.503,-0.869 10,-2 0.363,-0.683 0.696,-1.35 1,-2 z"
       id="path95" />
  </g>
  <g
     id="g96"
     transform="translate(-79.378899,0.5)">
    <path
       style="opacity:1"
       fill="#cfb289"
       d="m 194.5,158.5 c 0.73,1.212 1.73,2.212 3,3 -1.353,1.024 -2.02,2.357 -2,4 3.307,-0.551 6.64,-0.884 10,-1 -0.157,1.373 0.01,2.707 0.5,4 0.383,-0.556 0.883,-0.889 1.5,-1 0.271,1.88 -0.396,3.213 -2,4 -0.417,-0.624 -1.084,-0.957 -2,-1 -3.82,1.645 -7.82,2.311 -12,2 2.653,-2.597 2.486,-4.931 -0.5,-7 0.203,-5.471 -1.131,-6.137 -4,-2 -1.454,-1.744 -1.621,-3.411 -0.5,-5 2.847,-0.653 5.514,-0.653 8,0 z"
       id="path96" />
  </g>
  <g
     id="g97"
     transform="translate(-79.378899,0.5)">
    <path
       style="opacity:1"
       fill="#d4b896"
       d="m 262.5,161.5 c 3.367,1.247 6.701,1.247 10,0 0.667,0.667 1.333,1.333 2,2 -0.304,0.65 -0.637,1.317 -1,2 -3.497,1.131 -6.831,1.798 -10,2 -0.477,0.978 -1.143,1.811 -2,2.5 2,0.333 4,0.667 6,1 -0.667,0.333 -1.333,0.667 -2,1 1.098,0.77 1.098,1.603 0,2.5 -2.027,-0.162 -4.027,0.005 -6,0.5 1,0.333 2,0.667 3,1 -3.382,0.176 -6.715,0.676 -10,1.5 -0.743,0.682 -1.409,1.349 -2,2 -4.121,-1.521 -6.121,-4.521 -6,-9 2.955,-1.622 5.622,-3.622 8,-6 2.528,0.899 5.028,1.899 7.5,3 1.906,-1.908 2.74,-3.908 2.5,-6 z"
       id="path97" />
  </g>
  <g
     id="g98"
     transform="translate(-79.378899,0.5)">
    <path
       style="opacity:1"
       fill="#c9ab87"
       d="m 167.5,151.5 c 2.725,1.213 5.059,3.046 7,5.5 3.344,0.906 6.344,0.406 9,-1.5 0.6,1.4 1.6,2.4 3,3 -1.121,1.589 -0.954,3.256 0.5,5 2.869,-4.137 4.203,-3.471 4,2 2.986,2.069 3.153,4.403 0.5,7 -1.373,0.157 -2.707,-0.01 -4,-0.5 -1.631,-2.805 -3.964,-4.638 -7,-5.5 -2.002,-2.834 -4.502,-5.167 -7.5,-7 -1.273,-3.097 -3.107,-5.764 -5.5,-8 z"
       id="path98" />
  </g>
  <g
     id="g99"
     transform="translate(-79.378899,0.5)">
    <path
       style="opacity:1"
       fill="#c6bd8d"
       d="m 98.5,161.5 c 5.161,-0.73 9.161,0.937 12,5 0,0.667 -0.333,1 -1,1 -1,0 -2,0 -3,0 0,1 0,2 0,3 -1.175,-0.219 -2.175,0.114 -3,1 -1.884,5.164 -4.0511,10.164 -6.5,15 -0.6667,5.667 -0.6667,11.333 0,17 0.2784,0.916 0.7784,1.582 1.5,2 0,0.667 -0.3333,1 -1,1 -0.7216,-0.418 -1.2216,-1.084 -1.5,-2 -0.3333,0.667 -0.6667,1.333 -1,2 -0.4186,-1.172 -1.0853,-2.172 -2,-3 -0.4561,-1.244 0.0439,-2.077 1.5,-2.5 -1.5037,-1.337 -2.5037,-3.004 -3,-5 -0.8317,-0.688 -1.4984,-0.521 -2,0.5 -0.556,1.163 -0.8893,2.163 -1,3 -0.3333,0 -0.6667,0 -1,0 -0.3851,-8.142 0.2815,-16.142 2,-24 2.6242,-3.83 4.9576,-7.83 7,-12 -1.1085,-1.714 -0.4418,-2.381 2,-2 z"
       id="path99" />
  </g>
  <g
     id="g100"
     transform="translate(-79.378899,0.5)">
    <path
       style="opacity:1"
       fill="#c89f78"
       d="m 163.5,166.5 c 2.448,0.973 5.115,1.306 8,1 -0.667,2 -1.333,4 -2,6 -2.73,-1.328 -4.397,-0.328 -5,3 -0.667,-0.667 -1.333,-1.333 -2,-2 -1.018,0.693 -2.018,1.359 -3,2 -1.714,-2.015 -3.714,-3.681 -6,-5 0.419,-1.172 1.085,-2.172 2,-3 2.644,-0.795 5.311,-1.462 8,-2 z"
       id="path100" />
  </g>
  <g
     id="g101"
     transform="translate(-79.378899,0.5)">
    <path
       style="opacity:0.997"
       fill="#c2a27c"
       d="m 163.5,165.5 c 5.038,-1.052 9.038,0.448 12,4.5 5.498,1.247 10.498,3.414 15,6.5 0,0.667 0,1.333 0,2 -2.227,2.231 -4.894,3.564 -8,4 0.171,3.297 -0.495,3.631 -2,1 0.746,-1.236 1.079,-2.57 1,-4 -1.333,0 -2.667,0 -4,0 0.039,-1.083 0.373,-2.083 1,-3 -2.282,-1.4 -3.782,-0.734 -4.5,2 -2,-1.333 -4,-1.333 -6,0 -0.182,-1.83 0.318,-3.497 1.5,-5 0.667,-2 1.333,-4 2,-6 -2.885,0.306 -5.552,-0.027 -8,-1 0,-0.333 0,-0.667 0,-1 z"
       id="path101" />
  </g>
  <g
     id="g102"
     transform="translate(-79.378899,0.5)">
    <path
       style="opacity:0.566"
       fill="#d4c899"
       d="m 109.5,167.5 c -2.333,8.166 -5.167,16.166 -8.5,24 -0.943,4.66 -1.7766,9.327 -2.5,14 -0.7216,-0.418 -1.2216,-1.084 -1.5,-2 -0.6667,-5.667 -0.6667,-11.333 0,-17 2.4489,-4.836 4.616,-9.836 6.5,-15 0.825,-0.886 1.825,-1.219 3,-1 0,-1 0,-2 0,-3 1,0 2,0 3,0 z"
       id="path102" />
  </g>
  <g
     id="g103"
     transform="translate(-79.378899,0.5)">
    <path
       style="opacity:1"
       fill="#d4bb97"
       d="m 275.5,177.5 c -0.067,1.901 0.267,3.734 1,5.5 -2.957,2.184 -2.623,3.351 1,3.5 -4.297,4.798 -8.797,9.465 -13.5,14 0.126,-4.033 0.46,-8.033 1,-12 -2.481,-1.814 -5.315,-2.48 -8.5,-2 0,-0.667 0,-1.333 0,-2 2.354,-0.338 4.687,-0.838 7,-1.5 -1.611,-5.111 -0.777,-5.611 2.5,-1.5 0.608,-1.654 1.108,-3.321 1.5,-5 0.656,-0.778 1.489,-1.444 2.5,-2 2.085,0.624 3.918,1.624 5.5,3 z"
       id="path103" />
  </g>
  <g
     id="g104"
     transform="translate(-79.378899,0.5)">
    <path
       style="opacity:1"
       fill="#d3bb97"
       d="m 265.5,174.5 c -0.131,0.739 0.036,1.406 0.5,2 0.779,-2.597 1.279,-2.597 1.5,0 -0.392,1.679 -0.892,3.346 -1.5,5 -3.277,-4.111 -4.111,-3.611 -2.5,1.5 -2.313,0.662 -4.646,1.162 -7,1.5 -0.768,-0.763 -1.268,-1.763 -1.5,-3 -0.483,0.948 -0.649,1.948 -0.5,3 -4.152,-0.131 -4.818,-1.631 -2,-4.5 -0.594,-0.464 -1.261,-0.631 -2,-0.5 0.591,-0.651 1.257,-1.318 2,-2 3.285,-0.824 6.618,-1.324 10,-1.5 -1,-0.333 -2,-0.667 -3,-1 1.973,-0.495 3.973,-0.662 6,-0.5 z"
       id="path104" />
  </g>
  <g
     id="g105"
     transform="translate(-79.378899,0.5)">
    <path
       style="opacity:1"
       fill="#ceaa86"
       d="m 156.5,165.5 c 2.333,0 4.667,0 7,0 0,0.333 0,0.667 0,1 -2.689,0.538 -5.356,1.205 -8,2 -0.915,0.828 -1.581,1.828 -2,3 2.286,1.319 4.286,2.985 6,5 -0.16,1.699 0.006,3.366 0.5,5 2.658,-1.194 3.824,-0.194 3.5,3 1,0 2,0 3,0 0.055,-3.353 1.722,-4.853 5,-4.5 -1.026,2.464 -0.192,4.298 2.5,5.5 0.497,2.646 0.664,5.313 0.5,8 0,1 0,2 0,3 -1.333,0 -2.667,0 -4,0 -0.047,-3.068 -0.547,-6.068 -1.5,-9 -0.805,2.401 -1.638,2.234 -2.5,-0.5 -0.948,-0.483 -1.948,-0.649 -3,-0.5 -2.386,-0.873 -4.386,-2.373 -6,-4.5 -1.293,-0.49 -2.627,-0.657 -4,-0.5 0,-1 0,-2 0,-3 -1,0 -2,0 -3,0 0.208,-2.42 -0.126,-4.753 -1,-7 2.256,-0.921 3.256,-2.588 3,-5 1.599,0.268 2.932,-0.066 4,-1 z"
       id="path105" />
  </g>
  <g
     id="g106"
     transform="translate(-79.378899,0.5)">
    <path
       style="opacity:1"
       fill="#ccaa83"
       d="m 169.5,173.5 c -1.182,1.503 -1.682,3.17 -1.5,5 2,-1.333 4,-1.333 6,0 0.718,-2.734 2.218,-3.4 4.5,-2 -0.627,0.917 -0.961,1.917 -1,3 -1.113,1.194 -2.113,2.527 -3,4 0.627,0.917 0.961,1.917 1,3 0,2.333 0,4.667 0,7 -0.333,0 -0.667,0 -1,0 0.164,-2.687 -0.003,-5.354 -0.5,-8 -2.692,-1.202 -3.526,-3.036 -2.5,-5.5 -3.278,-0.353 -4.945,1.147 -5,4.5 -1,0 -2,0 -3,0 0.324,-3.194 -0.842,-4.194 -3.5,-3 -0.494,-1.634 -0.66,-3.301 -0.5,-5 0.982,-0.641 1.982,-1.307 3,-2 0.667,0.667 1.333,1.333 2,2 0.603,-3.328 2.27,-4.328 5,-3 z"
       id="path106" />
  </g>
  <g
     id="g107"
     transform="translate(-79.378899,0.5)">
    <path
       style="opacity:0.353"
       fill="#d7bd9a"
       d="m 180.5,166.5 c 3.036,0.862 5.369,2.695 7,5.5 1.293,0.49 2.627,0.657 4,0.5 4.18,0.311 8.18,-0.355 12,-2 0.916,0.043 1.583,0.376 2,1 -3.569,2.987 -7.569,3.654 -12,2 -1.021,0.502 -1.188,1.168 -0.5,2 9.494,6.352 19.661,7.518 30.5,3.5 1.851,-1.684 3.518,-3.517 5,-5.5 -0.693,-1.018 -1.359,-2.018 -2,-3 3.37,0.527 6.704,-0.14 10,-2 0,1.667 0,3.333 0,5 -1.291,-0.237 -2.291,0.096 -3,1 -1.333,1 -2.667,2 -4,3 -2.584,0.069 -4.584,1.235 -6,3.5 -11.706,3.488 -22.706,1.988 -33,-4.5 -4.502,-3.086 -9.502,-5.253 -15,-6.5 -2.962,-4.052 -6.962,-5.552 -12,-4.5 2.606,-1.848 5.606,-2.015 9,-0.5 2.259,3.476 5.259,4.642 9,3.5 -0.363,-0.683 -0.696,-1.35 -1,-2 z"
       id="path107" />
  </g>
  <g
     id="g108"
     transform="translate(-79.378899,0.5)">
    <path
       style="opacity:0.997"
       fill="#d0b28b"
       d="m 190.5,178.5 c -0.17,1.322 0.163,2.489 1,3.5 2.098,0.014 3.931,-0.153 5.5,-0.5 0.908,1.939 2.408,2.939 4.5,3 0.172,0.992 -0.162,1.658 -1,2 -2.333,0 -4.667,0 -7,0 0.269,1.929 -0.231,3.595 -1.5,5 -2.499,-0.503 -5.332,-1.003 -8.5,-1.5 -2.384,-1.902 -5.051,-3.069 -8,-3.5 -0.039,-1.083 -0.373,-2.083 -1,-3 0.887,-1.473 1.887,-2.806 3,-4 1.333,0 2.667,0 4,0 0.079,1.43 -0.254,2.764 -1,4 1.505,2.631 2.171,2.297 2,-1 3.106,-0.436 5.773,-1.769 8,-4 z"
       id="path108" />
  </g>
  <g
     id="g109"
     transform="translate(-79.378899,0.5)">
    <path
       style="opacity:1"
       fill="#d2b995"
       d="m 252.5,164.5 c -2.378,2.378 -5.045,4.378 -8,6 -1.391,4.287 -2.391,8.62 -3,13 -1.35,1.45 -3.016,2.117 -5,2 2.83,-1.862 3.663,-4.529 2.5,-8 -2.209,-0.489 -4.042,-1.489 -5.5,-3 0.709,-0.904 1.709,-1.237 3,-1 0,-1.667 0,-3.333 0,-5 0.65,-0.304 1.317,-0.637 2,-1 0.743,1.408 1.577,2.741 2.5,4 3.184,-3.504 7.018,-5.837 11.5,-7 z"
       id="path109" />
  </g>
  <g
     id="g110"
     transform="translate(-79.378899,0.5)">
    <path
       style="opacity:1"
       fill="#d3b694"
       d="m 156.5,165.5 c -1.068,0.934 -2.401,1.268 -4,1 0.256,2.412 -0.744,4.079 -3,5 0.874,2.247 1.208,4.58 1,7 1,0 2,0 3,0 0,1 0,2 0,3 -2.882,-1.369 -5.382,-0.702 -7.5,2 -0.333,-0.333 -0.667,-0.667 -1,-1 -0.335,2.003 -1.168,3.67 -2.5,5 -4.01,-12.62 0.656,-19.953 14,-22 z"
       id="path110" />
  </g>
  <g
     id="g111"
     transform="translate(-79.378899,0.5)">
    <path
       style="opacity:1"
       fill="#d3bc98"
       d="m 244.5,170.5 c -0.121,4.479 1.879,7.479 6,9 0.739,-0.131 1.406,0.036 2,0.5 -2.818,2.869 -2.152,4.369 2,4.5 -0.149,-1.052 0.017,-2.052 0.5,-3 0.232,1.237 0.732,2.237 1.5,3 0,0.667 0,1.333 0,2 -3.965,0.196 -7.465,1.53 -10.5,4 -7.442,-3.538 -13.276,-1.705 -17.5,5.5 -1.907,1.122 -3.907,1.955 -6,2.5 -0.116,-3.41 1.55,-4.744 5,-4 0,-2.333 0,-4.667 0,-7 2.773,-1.157 5.773,-1.824 9,-2 1.984,0.117 3.65,-0.55 5,-2 0.609,-4.38 1.609,-8.713 3,-13 z"
       id="path111" />
  </g>
  <g
     id="g112"
     transform="translate(-79.378899,0.5)">
    <path
       style="opacity:1"
       fill="#d5b794"
       d="m 233.5,174.5 c 1.458,1.511 3.291,2.511 5.5,3 1.163,3.471 0.33,6.138 -2.5,8 -3.227,0.176 -6.227,0.843 -9,2 -0.996,-0.086 -1.829,0.248 -2.5,1 -0.388,-0.928 -1.055,-1.595 -2,-2 -1.69,0.649 -3.523,0.649 -5.5,0 -0.418,-0.722 -1.084,-1.222 -2,-1.5 3.758,-2.142 6.591,-1.976 8.5,0.5 1.225,-0.362 2.391,-0.862 3.5,-1.5 0.538,-1.899 1.205,-4.066 2,-6.5 1.333,-1 2.667,-2 4,-3 z"
       id="path112" />
  </g>
  <g
     id="g113"
     transform="translate(-79.378899,0.5)">
    <path
       style="opacity:1"
       fill="#ceb28d"
       d="m 190.5,176.5 c 10.294,6.488 21.294,7.988 33,4.5 1.416,-2.265 3.416,-3.431 6,-3.5 -0.795,2.434 -1.462,4.601 -2,6.5 -1.109,0.638 -2.275,1.138 -3.5,1.5 -1.909,-2.476 -4.742,-2.642 -8.5,-0.5 0.916,0.278 1.582,0.778 2,1.5 -2.356,1.075 -4.689,1.075 -7,0 1.063,-1.866 0.396,-2.366 -2,-1.5 0.333,0.333 0.667,0.667 1,1 -2,0.667 -4,0.667 -6,0 0.667,-0.333 1.333,-0.667 2,-1 -1.293,-0.49 -2.627,-0.657 -4,-0.5 -2.092,-0.061 -3.592,-1.061 -4.5,-3 -1.569,0.347 -3.402,0.514 -5.5,0.5 -0.837,-1.011 -1.17,-2.178 -1,-3.5 0,-0.667 0,-1.333 0,-2 z"
       id="path113" />
  </g>
  <g
     id="g114"
     transform="translate(-79.378899,0.5)">
    <path
       style="opacity:1"
       fill="#d1ae8d"
       d="m 163.5,186.5 c 1.052,-0.149 2.052,0.017 3,0.5 0.862,2.734 1.695,2.901 2.5,0.5 0.953,2.932 1.453,5.932 1.5,9 1.333,0 2.667,0 4,0 0,-1 0,-2 0,-3 0.333,0 0.667,0 1,0 0.828,3.501 2.828,6.168 6,8 3.43,0.669 6.763,1.003 10,1 1.538,0.047 2.538,-0.62 3,-2 3.149,-0.289 6.149,0.211 9,1.5 -0.948,0.483 -1.948,0.649 -3,0.5 0,1 0,2 0,3 -2.579,-0.417 -4.746,0.25 -6.5,2 -4.06,-1.795 -8.227,-2.128 -12.5,-1 -1.112,0.765 -1.779,1.765 -2,3 -2.667,0 -5.333,0 -8,0 -3.415,-7.284 -6.082,-14.95 -8,-23 z"
       id="path114" />
  </g>
  <g
     id="g115"
     transform="translate(-79.378899,0.5)">
    <path
       style="opacity:1"
       fill="#d3b895"
       d="m 175.5,186.5 c 2.949,0.431 5.616,1.598 8,3.5 3.168,0.497 6.001,0.997 8.5,1.5 1.269,-1.405 1.769,-3.071 1.5,-5 2.333,0 4.667,0 7,0 0.617,1.729 1.617,3.229 3,4.5 -0.544,0.717 -1.211,1.217 -2,1.5 -0.789,0.283 -1.456,0.783 -2,1.5 1.655,1.444 2.322,3.278 2,5.5 -2.333,0 -4.667,0 -7,0 0,0.333 0,0.667 0,1 -0.462,1.38 -1.462,2.047 -3,2 -3.237,0.003 -6.57,-0.331 -10,-1 -3.172,-1.832 -5.172,-4.499 -6,-8 0,-2.333 0,-4.667 0,-7 z m 19,13 c -5.221,1.059 -10.221,0.226 -15,-2.5 -3.291,-2.332 -3.791,-5.165 -1.5,-8.5 3.677,3.923 8.177,6.423 13.5,7.5 1.21,1.039 2.21,2.206 3,3.5 z"
       id="path115" />
  </g>
  <g
     id="g116"
     transform="translate(-79.378899,0.5)">
    <path
       style="opacity:1"
       fill="#d5b792"
       d="m 201.5,184.5 c 1.373,-0.157 2.707,0.01 4,0.5 -0.667,0.333 -1.333,0.667 -2,1 2,0.667 4,0.667 6,0 -0.333,-0.333 -0.667,-0.667 -1,-1 2.396,-0.866 3.063,-0.366 2,1.5 2.311,1.075 4.644,1.075 7,0 0.221,1.235 0.888,2.235 2,3 -1.333,1.333 -1.333,2.667 0,4 -1.529,1.263 -3.195,2.263 -5,3 -0.661,-1.218 -1.328,-2.551 -2,-4 -0.978,0.477 -1.811,1.143 -2.5,2 -0.667,-2.667 -1.333,-2.667 -2,0 -1.25,-1.073 -2.584,-1.073 -4,0 -1.301,-0.139 -2.134,-0.805 -2.5,-2 0.789,-0.283 1.456,-0.783 2,-1.5 -1.383,-1.271 -2.383,-2.771 -3,-4.5 0.838,-0.342 1.172,-1.008 1,-2 z"
       id="path116" />
  </g>
  <g
     id="g117"
     transform="translate(-79.378899,0.5)">
    <path
       style="opacity:0.991"
       fill="#d6b897"
       d="m 217.5,186.5 c 1.977,0.649 3.81,0.649 5.5,0 0.945,0.405 1.612,1.072 2,2 0.671,-0.752 1.504,-1.086 2.5,-1 0,2.333 0,4.667 0,7 -3.45,-0.744 -5.116,0.59 -5,4 -2.667,0.667 -5.333,1.333 -8,2 -0.905,-1.202 -0.905,-2.536 0,-4 1.805,-0.737 3.471,-1.737 5,-3 -1.333,-1.333 -1.333,-2.667 0,-4 -1.112,-0.765 -1.779,-1.765 -2,-3 z"
       id="path117" />
  </g>
  <g
     id="g118"
     transform="translate(-79.378899,0.5)">
    <path
       style="opacity:0.996"
       fill="#d3c893"
       d="m 86.5,174.5 c 0.709,0.904 1.709,1.237 3,1 -1.7185,7.858 -2.3851,15.858 -2,24 -0.8218,2.228 -2.1552,2.895 -4,2 -1.0836,1.165 -1.9169,2.498 -2.5,4 -0.4966,-2.31 -0.6633,-4.643 -0.5,-7 0.7149,-7.074 1.8815,-14.074 3.5,-21 0.3768,-1.442 1.2101,-2.442 2.5,-3 z"
       id="path118" />
  </g>
  <g
     id="g119"
     transform="translate(-79.378899,0.5)">
    <path
       style="opacity:1"
       fill="#d2b590"
       d="m 201.5,192.5 c 0.366,1.195 1.199,1.861 2.5,2 1.416,-1.073 2.75,-1.073 4,0 0.667,-2.667 1.333,-2.667 2,0 0.689,-0.857 1.522,-1.523 2.5,-2 0.672,1.449 1.339,2.782 2,4 -0.905,1.464 -0.905,2.798 0,4 -5.59,1.795 -10.59,4.628 -15,8.5 -6.658,0.5 -13.325,0.666 -20,0.5 0.221,-1.235 0.888,-2.235 2,-3 4.273,-1.128 8.44,-0.795 12.5,1 1.754,-1.75 3.921,-2.417 6.5,-2 0,-1 0,-2 0,-3 1.052,0.149 2.052,-0.017 3,-0.5 -2.851,-1.289 -5.851,-1.789 -9,-1.5 0,-0.333 0,-0.667 0,-1 2.333,0 4.667,0 7,0 0.322,-2.222 -0.345,-4.056 -2,-5.5 0.544,-0.717 1.211,-1.217 2,-1.5 z"
       id="path119" />
  </g>
  <g
     id="g124"
     transform="translate(-79.378899,0.5)">
    <path
       style="opacity:0.985"
       fill="#c9bd8f"
       d="m 97.5,206.5 c 0.134,1.792 -0.1993,3.458 -1,5 -4.1207,-0.867 -5.454,0.799 -4,5 -2.1155,3.182 -3.9489,6.515 -5.5,10 -3.0544,-0.824 -3.8878,-2.491 -2.5,-5 2.5884,-6.999 3.9217,-14.333 4,-22 0.1107,-0.837 0.444,-1.837 1,-3 0.5016,-1.021 1.1683,-1.188 2,-0.5 0.4963,1.996 1.4963,3.663 3,5 -1.4561,0.423 -1.9561,1.256 -1.5,2.5 0.9147,0.828 1.5814,1.828 2,3 0.3333,-0.667 0.6667,-1.333 1,-2 0.2784,0.916 0.7784,1.582 1.5,2 z"
       id="path124" />
  </g>
  <g
     id="g125"
     transform="translate(-79.378899,0.5)">
    <path
       style="opacity:1"
       fill="#d2b492"
       d="m 153.5,181.5 c 1.373,-0.157 2.707,0.01 4,0.5 1.614,2.127 3.614,3.627 6,4.5 1.918,8.05 4.585,15.716 8,23 -4.679,0.166 -9.345,-0.001 -14,-0.5 -0.556,-0.383 -0.889,-0.883 -1,-1.5 0.134,-2.857 0.967,-5.857 2.5,-9 4.148,-1.564 4.314,-3.23 0.5,-5 -1.06,-4.539 -3.06,-8.539 -6,-12 z"
       id="path125" />
  </g>
  <g
     id="g127"
     transform="translate(-79.378899,0.5)">
    <path
       style="opacity:0.633"
       fill="#c9b599"
       d="m 152.5,203.5 c -3.656,-3.303 -6.322,-7.303 -8,-12 0.967,-1.306 2.301,-1.973 4,-2 0.343,-3.938 2.343,-4.938 6,-3 1.645,3.82 2.311,7.82 2,12 -3.635,0.156 -3.968,1.322 -1,3.5 -1.237,0.232 -2.237,0.732 -3,1.5 z"
       id="path127" />
  </g>
  <g
     id="g128"
     transform="translate(-79.378899,0.5)">
    <path
       style="opacity:0.994"
       fill="#d2ba98"
       d="m 153.5,181.5 c 2.94,3.461 4.94,7.461 6,12 3.814,1.77 3.648,3.436 -0.5,5 -1.533,3.143 -2.366,6.143 -2.5,9 -1.667,-1 -3,-2.333 -4,-4 0.763,-0.768 1.763,-1.268 3,-1.5 -2.968,-2.178 -2.635,-3.344 1,-3.5 0.311,-4.18 -0.355,-8.18 -2,-12 -3.657,-1.938 -5.657,-0.938 -6,3 -1.699,0.027 -3.033,0.694 -4,2 -1.174,-1.014 -1.84,-2.347 -2,-4 1.332,-1.33 2.165,-2.997 2.5,-5 0.333,0.333 0.667,0.667 1,1 2.118,-2.702 4.618,-3.369 7.5,-2 z"
       id="path128" />
  </g>
  <g
     id="g131"
     transform="translate(-79.378899,0.5)">
    <path
       style="opacity:0.898"
       fill="#d4c995"
       d="m 80.5,198.5 c -0.1633,2.357 0.0034,4.69 0.5,7 0.5831,-1.502 1.4164,-2.835 2.5,-4 1.8448,0.895 3.1782,0.228 4,-2 0.3333,0 0.6667,0 1,0 -0.0783,7.667 -1.4116,15.001 -4,22 -1.4063,0.473 -2.073,1.473 -2,3 -1,0 -2,0 -3,0 -0.3264,-8.849 0.007,-17.516 1,-26 z"
       id="path131" />
  </g>
  <g
     id="g139"
     transform="translate(-79.378899,0.5)">
    <path
       style="opacity:0.84"
       fill="#cdc095"
       d="m 96.5,211.5 c -1.114,7.472 -2.7807,14.805 -5,22 -2.7675,1.727 -5.6008,2.393 -8.5,2 -0.6355,-1.466 -1.4688,-2.8 -2.5,-4 1.6713,-2.01 2.338,-4.343 2,-7 -0.073,-1.527 0.5937,-2.527 2,-3 -1.3878,2.509 -0.5544,4.176 2.5,5 1.5511,-3.485 3.3845,-6.818 5.5,-10 -1.454,-4.201 -0.1207,-5.867 4,-5 z"
       id="path139" />
  </g>
  <g
     id="g152"
     transform="translate(-79.378899,0.5)">
    <path
       style="opacity:0.766"
       fill="#d1c29a"
       d="m 79.5,224.5 c 1,0 2,0 3,0 0.338,2.657 -0.3287,4.99 -2,7 1.0312,1.2 1.8645,2.534 2.5,4 2.8992,0.393 5.7325,-0.273 8.5,-2 0.3652,4.555 -0.8014,8.555 -3.5,12 -2.7683,-1.542 -5.1016,-3.542 -7,-6 -1.1601,-4.934 -1.6601,-9.934 -1.5,-15 z"
       id="path152" />
  </g>
  <g
     id="g160"
     transform="translate(-79.378899,0.5)">
    <path
       style="opacity:0.012"
       fill="#d9cfae"
       d="m 261.5,235.5 c 10.866,0.494 21.866,0.994 33,1.5 -16.667,0.667 -33.333,0.667 -50,0 5.848,-0.173 11.515,-0.673 17,-1.5 z"
       id="path160" />
  </g>
  <path
     style="fill:#d8c4a9;fill-opacity:1;stroke-width:0.177844"
     d="m 153.06362,98.544564 c -0.24454,-0.396534 -0.74287,-0.92006 -1.10739,-1.163392 -0.49521,-0.330566 -0.69178,-0.605751 -0.77748,-1.088444 -0.0631,-0.355312 -0.27413,-0.910289 -0.46898,-1.233281 l -0.35428,-0.587261 1.15414,-1.195481 c 1.25511,-1.300075 2.62105,-3.27364 2.62105,-3.787011 0,-0.402611 -0.966,-1.5199 -1.58254,-1.830381 -0.25447,-0.128147 -1.26297,-0.283231 -2.24111,-0.344632 -0.97815,-0.0614 -2.2836,-0.16446 -2.901,-0.229019 l -1.12256,-0.117381 0.76687,-0.785012 c 0.44465,-0.455173 1.37656,-1.088056 2.21792,-1.506252 l 1.45105,-0.721242 0.23847,-1.179384 c 0.14379,-0.711151 0.23847,-2.379702 0.23847,-4.202738 0,-2.498933 -0.0582,-3.193019 -0.33561,-4.001497 -0.51795,-1.509593 -0.96065,-2.28705 -1.8339,-3.220622 -2.10339,-2.248694 -5.21236,-3.00619 -10.60883,-2.584823 -2.52881,0.197455 -2.65747,0.226312 -3.02335,0.67811 -0.22351,0.275993 -0.7125,0.559557 -1.17795,0.683093 -2.16762,0.575306 -4.18357,2.101945 -5.13646,3.889748 -0.87471,1.641126 -1.93808,6.017412 -2.34859,9.665561 l -0.21407,1.902429 -0.99894,-1.608902 c -1.49283,-2.404349 -3.57747,-5.108118 -5.59847,-7.261156 -0.99158,-1.056368 -1.96293,-2.187924 -2.15856,-2.514567 -0.23914,-0.399287 -0.8219,-0.850783 -1.77844,-1.377846 -3.53435,-1.947455 -10.24949,-6.152058 -11.32048,-7.08818 -0.26853,-0.23471 -0.22813,-0.31794 0.46409,-0.956004 0.77143,-0.71108 1.72807,-2.313959 1.95563,-3.27671 0.32505,-1.375199 4.89312,-7.062813 8.156,-10.154868 l 1.86778,-1.769993 2.04556,-0.498905 2.04557,-0.498905 0.66503,-1.00897 c 1.00758,-1.528708 1.91555,-2.604095 3.93206,-4.657131 l 1.83646,-1.869718 -0.20559,-1.420401 c -0.50835,-3.512107 0.57819,-4.910468 3.80933,-4.902565 1.54751,0.0038 2.16049,0.142873 5.02281,1.139707 0.97814,0.340649 2.46821,0.755828 3.31125,0.92262 l 1.53281,0.303258 1.13486,1.328572 c 0.62417,0.730715 1.82438,2.24621 2.66715,3.367768 l 1.5323,2.039196 -0.0894,4.837827 c -0.0492,2.660804 -0.0305,5.855625 0.0414,7.099602 l 0.13085,2.261776 6.56266,9.592915 c 6.1739,9.024645 6.56266,9.639085 6.56266,10.372268 0,1.078691 -0.3577,2.350038 -1.3914,4.945254 -1.78999,4.493959 -3.67933,10.998871 -4.31296,14.849244 -0.11267,0.684701 -0.2558,1.298863 -0.31806,1.364804 -0.0623,0.06594 -0.31328,-0.204544 -0.55781,-0.601078 z"
     id="path618" />
  <path
     style="fill:#d8c4a9;fill-opacity:1;stroke-width:0.177844"
     d="m 138.12469,109.84327 c -2.87002,-0.29041 -5.90432,-1.05284 -8.79944,-2.21105 -1.94936,-0.77985 -2.26018,-0.78989 -4.16519,-0.13447 l -0.97992,0.33714 -1.03072,-1.01996 c -0.97166,-0.96152 -1.03071,-1.069 -1.03071,-1.87587 0,-0.65816 0.0719,-0.87922 0.31122,-0.9568 1.85631,-0.60176 4.73646,-2.79598 5.16623,-3.93586 0.10101,-0.267914 0.35281,-2.287792 0.55954,-4.488615 0.54456,-5.797181 0.48918,-5.511659 1.05127,-5.420236 3.67929,0.598426 4.57429,0.833325 5.09896,1.33825 0.29613,0.284989 0.79632,0.569742 1.11153,0.632783 l 0.5731,0.114622 v 3.356811 3.356811 h -1.42275 -1.42276 l 0.004,0.755839 c 0.0107,1.853545 0.8713,3.848895 2.24084,5.195245 0.82306,0.80913 1.51955,1.23755 3.45364,2.12436 0.62661,0.2873 1.2371,1.07018 1.2371,1.58641 0,0.35262 -0.86079,1.37277 -1.12734,1.33603 -0.11357,-0.0156 -0.4866,-0.0568 -0.82895,-0.0914 z"
     id="path619" />
  <path
     style="fill:#d8c4a9;fill-opacity:1;stroke-width:0.177844"
     d="m 136.70194,160.27256 c -6.59633,-0.65947 -13.15329,-3.06898 -18.15852,-6.67278 -2.69164,-1.93799 -3.19888,-2.46575 -4.19237,-4.36192 -0.50636,-0.96644 -1.32999,-2.35782 -1.83029,-3.09196 -0.80132,-1.17586 -0.93425,-1.50366 -1.1163,-2.75274 -0.22743,-1.56034 -0.0402,-3.24669 0.51423,-4.63241 l 0.29694,-0.74214 0.93082,0.0961 c 0.51195,0.0528 1.41782,0.29278 2.01304,0.5332 l 1.08222,0.43713 1.35096,-0.58728 c 3.90741,-1.69862 6.96731,-4.46637 8.6786,-7.84999 1.02362,-2.02394 1.89001,-5.60981 1.89309,-7.83531 l 0.001,-0.75584 h 1.4023 c 1.29954,0 1.42365,0.0326 1.69362,0.44461 0.16023,0.24453 0.41762,0.44461 0.57198,0.44461 0.15435,0 0.85277,-0.52993 1.55203,-1.17763 1.58794,-1.47082 2.63746,-2.20051 3.1708,-2.2045 0.96587,-0.007 2.9977,-0.57247 4.23622,-1.17849 1.62589,-0.79555 3.37751,-2.49334 4.2274,-4.09747 l 0.5816,-1.09773 0.70777,0.46339 c 0.65384,0.42808 0.70778,0.52517 0.70778,1.27401 0,0.52194 -0.16616,1.13903 -0.46659,1.73281 l -0.46659,0.92219 0.29939,1.57018 c 0.41191,2.16033 0.55252,5.99806 0.29211,7.97258 -0.63425,4.80918 -2.62366,9.32105 -5.86415,13.2996 -1.25472,1.54049 -1.33963,1.69984 -1.40836,2.64308 -0.0402,0.55207 0.0217,1.29106 0.13756,1.6422 0.28927,0.87649 1.40545,1.78195 2.62392,2.12858 0.55384,0.15755 1.02066,0.26815 1.03737,0.24578 0.0167,-0.0224 0.56666,-0.75649 1.22209,-1.63136 2.16191,-2.88575 4.38032,-6.76912 5.6338,-9.86207 0.5517,-1.36132 0.73412,-1.61085 2.0615,-2.81992 2.48597,-2.26437 4.90599,-4.12142 5.63479,-4.32394 1.04854,-0.29138 3.69624,-0.23485 4.86111,0.10379 1.95343,0.56787 4.41325,2.1103 4.53054,2.84086 0.0313,0.19471 0.2718,0.45672 0.53454,0.58225 1.30005,0.62111 3.16272,3.70368 3.30982,5.47749 0.093,1.12152 -0.28019,2.30946 -0.90203,2.87125 -0.58636,0.52975 -3.68921,2.21381 -5.81992,3.15874 -2.65668,1.17819 -6.0829,2.30711 -9.1668,3.02039 -2.42643,0.56122 -5.50033,1.62244 -9.61925,3.32091 l -1.44622,0.59636 -0.4939,1.1578 c -0.58808,1.37858 -3.22624,6.63732 -3.99347,7.96034 -0.41222,0.71082 -0.6361,0.92804 -0.938,0.91005 -0.21811,-0.013 -1.07681,-0.0916 -1.90823,-0.17477 z"
     id="path620" />
  <path
     style="fill:#d8c4a9;fill-opacity:1;stroke-width:0.125755"
     d="m 128.92241,181.64271 c -2.65694,-0.25776 -5.83252,-1.03888 -8.47674,-2.08509 -2.4399,-0.96537 -6.54021,-3.22926 -6.97623,-3.85178 -0.29953,-0.42764 -0.23539,-0.88359 0.18034,-1.28188 l 0.37214,-0.35653 1.16835,0.32847 c 3.11105,0.87463 5.77533,0.66064 8.39927,-0.67462 0.51874,-0.26398 1.22611,-0.68179 1.57194,-0.92846 0.34582,-0.24667 0.91172,-0.63698 1.25754,-0.86735 1.27316,-0.84809 1.82209,-1.85452 1.82466,-3.34541 10e-4,-0.6438 0.0518,-0.76758 0.62835,-1.53517 0.34493,-0.45921 0.95797,-1.1412 1.36231,-1.51554 1.40567,-1.30141 1.50451,-1.34246 5.95422,-2.47342 l 4.07677,-1.03617 0.98283,0.203 c 0.54055,0.11166 1.29849,0.34261 1.68429,0.51324 l 0.70147,0.31022 1.45295,-0.62309 c 2.02677,-0.86918 3.29397,-1.32217 5.4771,-1.9579 2.18811,-0.63719 5.6231,-1.34078 6.55323,-1.34231 0.72048,-0.001 1.52292,0.2823 1.63643,0.5781 0.22338,0.5821 -1.00973,1.48757 -3.0883,2.26774 -2.99364,1.12363 -8.27329,3.8734 -9.33353,4.86114 -0.3103,0.28907 -0.35789,0.42619 -0.35789,1.03128 0,1.38977 0.18412,1.83813 1.64544,4.00702 0.75497,1.12054 1.37268,2.07843 1.37268,2.12866 0,0.22462 -1.6993,2.20485 -3.23311,3.76761 l -1.67892,1.7106 -1.41095,0.45665 c -4.81781,1.55924 -9.41399,2.13131 -13.74664,1.71099 z"
     id="path621" />
  <path
     style="fill:#d8c4a9;fill-opacity:1;stroke-width:0.0628775"
     d="m 109.47355,200.37606 c -1.13574,-0.0728 -2.85994,-0.3647 -4.018,-0.68019 -2.21406,-0.60318 -4.85235,-1.8108 -5.956759,-2.72658 -2.53059,-2.09837 -2.91851,-4.55394 -1.17596,-7.44393 0.14075,-0.23343 0.27459,-0.42442 0.29743,-0.42442 0.0228,0 0.25302,0.2155 0.51152,0.47889 1.050079,1.06991 2.752629,2.46793 4.023089,3.30349 2.48351,1.63336 5.45775,2.88576 8.33217,3.50852 0.59683,0.12931 0.61699,0.13964 1.06617,0.54646 0.25181,0.22807 0.64804,0.62467 0.8805,0.88134 0.46719,0.51583 1.35915,1.67842 1.50684,1.96402 0.11973,0.23152 0.14719,0.22061 -0.95785,0.3807 -1.54512,0.22384 -3.14682,0.29904 -4.50915,0.2117 z"
     id="path622" />
</svg>
