<?xml version="1.0" standalone="no"?>
<!DOCTYPE svg PUBLIC "-//W3C//DTD SVG 20010904//EN"
 "http://www.w3.org/TR/2001/REC-SVG-20010904/DTD/svg10.dtd">
<svg version="1.0" xmlns="http://www.w3.org/2000/svg"
 width="1000.000000pt" height="1000.000000pt" viewBox="0 0 1000.000000 1000.000000"
 preserveAspectRatio="xMidYMid meet">
<metadata>
Created by potrace 1.14, written by Peter Selinger 2001-2017
</metadata>
<g transform="translate(0.000000,1000.000000) scale(0.100000,-0.100000)"
fill="#000000" stroke="none">
<path d="M5426 9959 c-25 -29 -47 -43 -64 -44 -86 -4 -93 -5 -86 -17 6 -10 4
-10 -8 0 -14 11 -19 9 -33 -10 -10 -13 -15 -16 -12 -7 3 9 -1 16 -9 16 -8 0
-13 -6 -10 -13 7 -18 -13 -29 -27 -15 -9 9 -7 10 7 5 13 -5 17 -4 12 4 -8 14
-36 16 -36 4 0 -5 -13 -9 -29 -10 -17 0 -38 -5 -49 -11 -11 -6 -22 -7 -26 -4
-3 3 -6 1 -6 -6 0 -7 -4 -9 -10 -6 -5 3 -10 2 -10 -3 0 -6 -9 -8 -20 -5 -12 3
-20 0 -20 -7 0 -7 -6 -10 -13 -7 -7 3 -21 -1 -31 -9 -11 -7 -23 -11 -27 -8 -5
3 -9 -2 -9 -10 0 -9 5 -16 10 -16 6 0 10 4 10 10 0 5 16 0 36 -12 l35 -21 31
32 c30 31 52 39 62 23 3 -5 -5 -8 -17 -8 -13 1 -21 -4 -19 -12 1 -8 -2 -11 -6
-8 -5 3 -17 -3 -27 -14 -11 -13 -25 -18 -37 -14 -14 4 -17 1 -12 -13 5 -14 4
-15 -4 -3 -6 8 -8 18 -6 22 3 4 0 8 -5 8 -6 0 -11 -4 -11 -10 0 -5 -5 -10 -11
-10 -8 0 -7 6 2 17 12 15 12 16 -3 10 -23 -8 -50 2 -41 16 7 11 -6 5 -49 -25
-15 -10 -33 -17 -40 -16 -7 2 -13 -4 -12 -12 1 -9 -6 -16 -15 -17 -29 -2 -50
-9 -58 -18 -4 -4 -3 -5 3 -2 12 7 29 -21 19 -31 -3 -3 -5 0 -5 6 0 19 -34 14
-58 -8 -12 -11 -24 -20 -27 -20 -3 0 -29 -12 -58 -26 -78 -40 -155 -95 -229
-166 -16 -16 -33 -28 -39 -28 -6 0 -7 -4 -4 -10 3 -5 2 -10 -3 -10 -7 0 -60
-45 -152 -130 -28 -25 -153 -138 -195 -175 -37 -33 -59 -49 -96 -69 -50 -28
-169 -125 -169 -138 0 -6 -3 -9 -6 -5 -8 8 -72 -59 -144 -148 -110 -139 -220
-362 -215 -435 1 -19 -2 -43 -7 -54 -6 -11 -6 -16 -1 -13 5 4 10 -7 10 -23 0
-17 -5 -27 -10 -23 -6 4 -7 1 -1 -8 12 -19 13 -149 1 -173 -5 -11 -5 -16 0
-13 15 9 10 -130 -4 -145 -7 -6 -13 -18 -13 -26 0 -8 -6 -12 -13 -9 -8 3 -20
1 -28 -4 -12 -8 -12 -9 1 -7 8 2 15 -2 15 -7 0 -6 -4 -9 -8 -7 -5 1 -6 -2 -2
-7 9 -15 -51 -74 -66 -65 -7 4 -9 3 -5 -4 7 -12 -19 -42 -39 -42 -7 0 -16 -8
-20 -17 -3 -10 -6 -18 -5 -18 1 0 -5 -13 -14 -29 -8 -16 -13 -33 -10 -38 3 -4
1 -8 -3 -8 -5 0 -8 -25 -8 -55 0 -30 2 -55 6 -55 3 0 6 -6 7 -12 0 -7 3 -25 5
-41 2 -15 -1 -31 -8 -35 -11 -7 -44 -62 -46 -79 -4 -23 -13 -31 -34 -29 -13 0
-21 5 -18 9 3 5 12 6 22 3 13 -5 13 -3 -2 8 -12 9 -14 16 -8 21 6 3 11 1 11
-5 0 -6 5 -8 11 -5 6 5 4 12 -8 20 -10 7 -20 12 -23 10 -3 -2 -5 10 -5 25 -1
16 3 26 8 23 4 -3 6 -7 3 -11 -3 -3 2 -11 12 -19 9 -8 11 -11 3 -7 -9 5 -12 3
-7 -5 4 -6 12 -9 17 -6 5 4 9 1 9 -6 0 -16 11 -5 14 14 1 8 8 22 16 32 7 9 9
15 4 14 -29 -5 -47 32 -22 47 7 5 8 2 3 -6 -5 -9 -4 -11 3 -6 8 4 10 2 6 -7
-5 -14 24 -33 34 -22 3 3 0 5 -5 5 -6 0 -10 11 -9 24 2 19 -1 23 -13 18 -13
-5 -14 -3 -4 9 9 11 8 18 -2 32 -8 11 -15 14 -18 7 -3 -6 -4 -5 -3 2 2 7 12
12 22 10 16 -2 15 1 -6 19 -16 13 -19 19 -8 15 10 -3 20 0 24 6 5 7 2 8 -7 3
-12 -8 -12 -6 0 8 7 9 10 17 7 17 -4 0 -2 10 4 23 10 20 10 20 -9 -3 -10 -13
-18 -27 -15 -31 2 -4 -3 -10 -12 -13 -8 -3 -13 -10 -9 -15 3 -6 -3 -14 -12
-20 -10 -6 -12 -11 -5 -11 6 0 12 -5 12 -11 0 -5 -5 -7 -12 -3 -6 4 -8 3 -4
-4 3 -5 1 -12 -4 -14 -6 -2 -12 -10 -13 -18 -2 -8 -7 -21 -11 -29 -7 -10 -6
-12 4 -6 8 5 11 3 8 -6 -3 -8 -10 -13 -15 -12 -6 1 -9 -16 -7 -38 2 -27 -1
-37 -8 -33 -7 4 -8 3 -4 -4 4 -6 14 -8 24 -5 16 6 15 5 -1 -14 -16 -18 -16
-22 -3 -36 8 -8 12 -18 9 -21 -4 -4 -8 -13 -9 -21 -2 -11 2 -12 17 -2 13 8 15
13 6 19 -9 6 -8 8 3 8 13 0 13 1 0 10 -8 5 -10 10 -5 10 6 0 17 -5 25 -10 13
-9 13 -10 0 -10 -13 0 -13 -1 0 -10 8 -5 10 -10 5 -10 -13 0 -13 -69 -1 -90 9
-13 8 -13 -8 -1 -16 14 -17 13 -2 -20 8 -19 33 -79 56 -134 23 -55 55 -128 71
-162 16 -34 29 -64 29 -67 0 -7 55 -131 80 -179 11 -22 20 -45 20 -53 0 -8 5
-14 10 -14 6 0 10 -7 10 -15 0 -8 9 -30 20 -50 11 -19 17 -35 14 -35 -13 0 70
-70 102 -85 37 -18 37 -19 -8 -76 -43 -54 -68 -127 -64 -190 3 -57 41 -159 59
-159 6 0 7 -3 4 -6 -10 -10 102 -121 140 -139 46 -22 89 -22 114 1 27 24 59
86 61 119 4 40 18 29 18 -15 0 -37 4 -53 38 -129 19 -45 91 -114 146 -140 46
-23 76 -50 80 -74 4 -26 88 -131 138 -172 27 -22 58 -47 68 -56 11 -9 17 -19
13 -23 -3 -3 -1 -6 6 -6 7 0 10 -4 6 -9 -3 -5 2 -17 11 -25 8 -9 13 -16 10
-16 -4 0 5 -18 19 -40 14 -22 25 -43 25 -46 0 -4 16 -29 35 -55 19 -27 35 -53
35 -57 0 -7 -39 -31 -60 -37 -3 -1 -32 -14 -65 -29 -106 -49 -138 -57 -245
-61 -90 -4 -145 -9 -145 -15 0 -1 -13 -3 -28 -5 -16 -2 -65 -18 -110 -35 -45
-18 -86 -33 -92 -34 -5 -1 -37 -10 -70 -20 -33 -10 -64 -19 -70 -20 -5 -1 -28
-8 -50 -15 -52 -16 -58 -18 -68 -20 -4 0 -22 -7 -41 -15 -19 -8 -37 -12 -40
-8 -3 3 -6 -1 -6 -8 0 -7 -3 -11 -6 -8 -5 5 -84 -17 -144 -39 -8 -3 -19 -7
-25 -9 -27 -7 -283 -96 -300 -104 -68 -31 -565 -211 -565 -204 0 7 -265 -90
-355 -130 -202 -90 -379 -198 -483 -293 -19 -18 -39 -33 -44 -33 -6 0 -7 -7
-4 -16 3 -8 2 -12 -4 -9 -9 6 -60 -43 -60 -58 0 -4 -4 -5 -10 -2 -5 3 -10 1
-10 -5 0 -6 -10 -22 -22 -35 -35 -35 -57 -65 -86 -115 -14 -25 -30 -48 -35
-51 -5 -4 -6 -12 -2 -19 5 -8 4 -11 -2 -7 -10 6 -40 -50 -35 -65 1 -5 -2 -8
-7 -8 -13 0 -73 -158 -65 -171 4 -8 3 -9 -4 -5 -7 4 -13 1 -13 -6 -2 -21 -4
-31 -18 -78 -16 -55 -24 -89 -25 -112 0 -10 -3 -18 -7 -18 -3 0 -4 -11 -1 -25
3 -17 0 -25 -9 -25 -10 0 -11 -2 -2 -8 8 -5 8 -12 -2 -25 -7 -10 -17 -19 -22
-19 -14 -1 -38 -22 -55 -50 -15 -22 -43 -128 -64 -238 -18 -94 -37 -198 -40
-215 -3 -25 -14 -91 -20 -125 -2 -14 -6 -45 -9 -70 -3 -25 -8 -61 -11 -80 -11
-75 -31 -280 -39 -395 -2 -27 -4 -50 -5 -50 -8 0 -4 -93 4 -104 8 -11 8 -13
-1 -8 -8 5 -12 -10 -15 -49 -1 -31 0 -58 5 -61 4 -2 4 -10 0 -16 -11 -17 -10
-656 1 -649 5 3 6 -1 1 -9 -11 -17 -6 -103 6 -107 5 -2 9 -8 9 -13 0 -6 -4 -7
-10 -4 -6 4 -9 -5 -8 -19 1 -15 7 -26 13 -26 5 0 3 -5 -5 -10 -8 -5 -10 -10
-3 -10 6 0 9 -9 6 -20 -3 -11 0 -20 6 -20 7 0 8 -8 1 -25 -6 -15 -6 -26 1 -30
5 -4 7 -11 4 -16 -4 -5 0 -9 7 -9 9 0 9 -3 -2 -10 -8 -5 -10 -10 -4 -10 6 0
11 -10 10 -22 -1 -15 4 -22 13 -20 11 2 12 0 3 -10 -8 -11 -10 -53 -2 -53 1 0
3 -8 5 -18 5 -26 26 -49 41 -43 8 3 11 0 7 -10 -3 -8 7 -26 24 -41 16 -16 43
-48 60 -73 17 -25 45 -56 62 -70 18 -14 37 -30 45 -36 28 -26 193 -99 229
-102 7 0 34 -6 87 -18 80 -18 337 -12 449 11 14 3 37 8 51 10 14 2 46 10 71
19 25 9 54 17 65 19 10 2 39 9 64 16 25 7 45 12 45 10 0 -1 9 3 21 9 11 6 34
14 50 17 38 8 58 13 62 15 1 2 5 3 10 5 4 1 14 4 22 7 8 3 83 24 165 48 83 23
229 64 325 92 96 28 189 54 205 58 17 4 149 43 295 85 146 42 270 78 275 79 6
1 37 10 70 20 33 10 67 20 75 21 8 2 59 17 113 33 54 17 100 30 102 31 3 0 30
8 61 17 31 9 62 17 68 19 6 1 18 5 26 8 15 6 156 45 188 52 9 2 80 23 157 46
77 23 147 43 155 44 8 2 15 4 15 5 0 1 7 3 15 5 8 1 56 15 105 29 50 15 97 29
105 31 8 2 40 11 70 20 30 9 66 18 79 21 14 3 28 7 33 10 7 5 155 48 198 58 8
2 56 16 105 31 50 14 97 28 105 30 8 2 112 31 230 66 118 34 223 62 233 63 9
0 17 4 17 8 0 4 3 7 8 7 4 -1 9 -1 12 1 3 1 16 3 29 6 14 2 44 11 67 19 24 8
53 17 66 19 13 3 61 17 108 31 47 15 94 28 105 30 11 2 65 17 120 34 55 17
109 33 120 36 19 4 47 12 178 51 28 8 59 17 67 19 8 2 15 4 15 5 0 1 7 3 15 5
19 4 93 24 235 65 61 18 115 33 120 35 6 1 17 4 25 7 13 5 110 33 150 43 56
14 336 97 371 110 24 9 49 17 54 19 98 29 395 203 478 279 7 7 42 37 77 67
122 104 244 237 346 380 56 77 71 102 121 195 9 17 20 37 24 45 26 46 118 296
134 360 3 16 77 245 125 390 16 47 72 220 125 385 53 165 110 340 127 388 45
132 38 208 -27 285 -40 48 -128 104 -223 142 -46 18 -99 43 -118 56 -19 13
-34 21 -34 19 0 -3 -9 3 -19 13 -34 30 -50 42 -57 42 -4 0 -15 10 -26 22 -12
14 -31 22 -52 22 -19 1 -32 4 -29 9 2 4 -2 7 -9 8 -41 3 -67 7 -98 14 -19 5
-39 9 -45 10 -47 5 -113 19 -129 27 -14 8 -17 7 -10 -4 6 -10 5 -11 -7 -1 -8
6 -33 14 -56 16 -23 3 -46 8 -51 11 -5 3 -28 8 -52 11 -23 3 -46 7 -50 10 -4
3 -25 7 -46 11 -22 3 -41 8 -43 10 -2 2 -10 -1 -18 -8 -11 -9 -13 -8 -11 2 2
7 -6 14 -17 15 -11 2 -33 7 -50 11 -16 4 -40 8 -52 8 -13 1 -23 3 -23 6 0 3
-10 7 -22 8 -26 2 -63 10 -63 12 0 1 -11 3 -25 6 -26 5 -84 28 -110 44 -8 6
-24 14 -35 19 -27 12 -133 120 -141 143 -3 10 -9 18 -13 18 -16 0 -6 36 26 93
18 32 33 63 33 68 0 5 5 9 11 9 6 0 9 7 5 15 -3 8 -2 15 3 15 11 0 183 344
185 368 3 53 -89 172 -134 172 -11 0 -20 4 -20 9 0 13 -46 19 -64 9 -9 -5 -16
-18 -16 -29 0 -11 -4 -18 -8 -15 -16 10 -101 -101 -97 -126 2 -10 -2 -18 -8
-18 -5 0 -7 -3 -4 -6 4 -4 14 -1 24 7 15 12 16 12 11 -2 -4 -9 -1 -22 5 -29
10 -10 8 -10 -9 -2 -22 12 -34 7 -34 -12 0 -7 3 -6 8 1 6 9 11 6 21 -8 7 -12
8 -18 2 -15 -7 5 -8 0 -5 -11 6 -16 4 -15 -10 2 -10 11 -14 14 -10 6 5 -10 3
-12 -6 -6 -9 6 -11 4 -5 -6 8 -12 6 -12 -9 0 -9 8 -16 10 -14 5 2 -5 -12 -29
-29 -54 -18 -24 -33 -38 -33 -30 0 19 -10 7 -15 -19 -3 -15 0 -19 8 -15 8 5 8
2 -1 -7 -11 -12 -14 -12 -22 1 -6 9 -10 10 -10 3 0 -24 34 -33 54 -15 11 10 7
1 -8 -20 -16 -21 -31 -38 -34 -38 -3 0 -1 5 6 12 15 15 15 28 1 28 -5 0 -8 -4
-5 -9 3 -5 -2 -15 -11 -22 -11 -10 -14 -10 -9 -2 5 9 2 11 -9 6 -12 -4 -13 -8
-5 -13 9 -5 9 -9 1 -14 -6 -4 -11 -2 -11 5 0 8 -4 8 -15 -1 -8 -7 -12 -17 -8
-24 3 -6 -2 -3 -13 6 -14 12 -23 14 -34 7 -13 -9 -12 -10 2 -6 9 3 22 -2 30
-11 12 -16 11 -16 -7 -3 -19 14 -19 14 -2 -5 15 -16 19 -17 28 -4 9 13 10 12
5 -2 -3 -10 -2 -17 2 -15 8 2 12 -7 12 -25 0 -7 -5 -5 -11 5 -5 9 -15 17 -22
17 -7 0 -6 -4 3 -10 8 -5 10 -10 4 -10 -6 0 -19 10 -30 22 -13 14 -14 19 -4
14 8 -4 6 -1 -4 8 -10 8 -23 13 -29 9 -6 -3 -7 -1 -3 5 5 8 1 10 -9 5 -12 -4
-13 -8 -5 -13 9 -5 9 -9 1 -14 -6 -4 -11 -1 -11 6 0 8 -3 9 -8 3 -4 -6 -17
-10 -30 -9 -19 1 -20 -1 -10 -14 7 -9 8 -13 3 -10 -6 4 -11 -2 -11 -12 0 -10
5 -16 10 -13 5 3 6 1 2 -5 -4 -6 -14 -8 -24 -5 -14 5 -13 2 3 -11 11 -10 13
-14 5 -10 -8 4 -11 3 -7 -1 12 -14 38 -15 31 -2 -3 7 6 -1 20 -16 24 -26 38
-25 16 1 -6 6 -7 10 -4 7 4 -3 14 1 23 8 14 11 15 10 1 -8 -14 -19 -14 -19 5
-5 16 11 17 11 8 0 -7 -8 -13 -18 -13 -24 0 -5 6 -1 14 10 14 18 16 18 30 2 9
-10 11 -13 4 -8 -16 13 -28 13 -28 -1 0 -5 4 -8 9 -5 5 3 15 -2 22 -11 10 -11
10 -14 2 -9 -9 5 -11 2 -7 -8 7 -18 -11 -22 -21 -6 -4 6 -10 8 -15 5 -5 -3
-11 -1 -15 5 -4 6 -11 7 -17 4 -7 -4 -8 -2 -4 4 4 7 2 13 -3 13 -53 7 -73 27
-74 77 -1 12 -5 22 -10 22 -4 0 -5 10 -2 21 5 14 4 19 -4 15 -7 -5 -8 -1 -4
10 4 12 3 15 -5 10 -8 -5 -10 -2 -5 9 4 12 8 13 13 5 5 -7 13 -9 20 -5 9 5 11
4 6 -3 -8 -13 6 -17 18 -5 3 4 16 7 28 8 20 2 20 1 3 -12 -17 -12 -17 -13 -2
-13 10 0 20 6 23 14 3 8 13 13 22 12 9 -2 26 3 38 11 11 7 24 10 27 6 4 -3 7
0 7 8 0 12 2 12 9 0 7 -11 12 -9 22 10 7 13 13 27 14 30 0 13 40 79 47 79 4 0
5 8 2 18 -5 14 -4 15 5 2 9 -13 11 -13 11 3 0 9 4 17 10 17 5 0 9 3 7 8 -1 4
8 20 21 36 12 16 22 22 22 15 0 -11 2 -11 10 1 13 21 13 24 -10 50 -26 30 -25
36 10 115 34 76 99 258 105 295 3 14 12 52 20 85 14 54 18 74 30 155 9 56 16
94 18 95 9 3 185 -93 180 -98 -3 -4 -2 -7 4 -7 5 0 23 -11 38 -24 16 -14 33
-23 37 -20 5 3 7 2 6 -3 -2 -5 18 -31 45 -58 44 -45 52 -50 100 -52 28 -2 64
-5 80 -7 15 -2 30 1 33 6 3 4 9 6 14 3 13 -8 100 15 140 38 19 10 47 33 62 50
30 33 63 87 53 87 -3 0 1 10 9 23 15 25 25 80 32 175 2 37 10 69 18 78 8 8 18
23 21 34 3 11 12 20 18 20 7 0 6 4 -3 10 -13 8 -12 10 4 10 11 0 16 3 13 6 -3
4 3 18 14 32 15 20 17 27 7 34 -7 4 -8 8 -3 8 6 0 16 10 24 21 12 20 11 21 -6
15 -14 -6 -13 -3 5 14 16 15 21 28 16 42 -3 11 -1 23 4 27 6 4 13 29 15 57 2
28 7 56 11 62 3 6 -6 15 -21 21 l-28 11 30 -5 c17 -3 25 -2 18 2 -12 9 -12 37
0 49 3 4 2 14 -3 23 -4 9 -10 31 -12 49 -2 17 -13 39 -23 48 -14 11 -15 14 -4
11 12 -4 15 0 11 19 -3 19 -9 23 -26 19 -20 -6 -20 -5 -2 6 15 9 16 13 5 20
-18 11 -32 12 -25 1 2 -4 0 -14 -5 -22 -7 -11 -8 -8 -5 10 2 16 9 24 20 24 9
-1 15 3 13 10 -3 6 -11 9 -18 8 -35 -9 -63 -13 -58 -7 4 3 17 8 29 10 26 5 52
25 32 25 -7 0 -12 3 -11 8 2 15 -14 52 -22 52 -5 0 -8 3 -8 8 1 4 1 14 0 21
-1 12 -4 12 -13 3 -7 -7 -16 -12 -21 -12 -5 0 -1 8 8 17 19 19 19 19 -49 68
-16 11 -34 26 -41 33 -19 17 -27 15 -17 -5 5 -10 7 -25 4 -33 -5 -13 -3 -13
12 -1 9 8 19 11 23 7 3 -3 1 -6 -6 -6 -7 0 -10 -4 -6 -9 9 -15 -12 -22 -23 -8
-9 11 -11 26 -13 69 0 10 -6 15 -14 12 -7 -3 -16 0 -21 7 -5 8 -3 10 7 5 8 -4
1 4 -16 19 -77 69 -115 108 -115 116 0 6 -4 8 -8 5 -11 -7 -36 25 -40 49 -1
11 -5 36 -8 55 -3 19 -6 45 -7 58 0 12 -5 22 -10 22 -5 0 -7 7 -4 15 4 8 1 17
-5 21 -7 5 -8 2 -3 -6 5 -8 4 -11 -2 -7 -5 3 -9 16 -8 29 1 13 -2 32 -8 43 -9
17 -12 36 -16 98 -1 12 -5 16 -13 11 -9 -5 -9 -2 1 9 8 11 9 17 3 17 -7 0 -9
7 -5 17 5 12 3 14 -7 8 -9 -5 -11 -4 -6 4 9 13 -11 109 -27 129 -5 6 -7 12 -3
12 3 0 1 12 -5 28 -6 15 -13 34 -15 42 -11 45 -30 90 -36 90 -5 0 -8 6 -8 14
0 8 -5 27 -12 43 -6 15 -11 31 -10 36 1 4 -2 7 -8 7 -5 0 -10 5 -10 11 0 20
-41 69 -52 63 -6 -4 -8 -2 -5 3 4 6 -7 25 -23 43 -17 18 -30 35 -30 39 0 4 -8
14 -17 22 -27 25 -53 58 -53 69 0 6 -3 10 -8 10 -4 0 -18 18 -32 40 -14 22
-27 40 -31 40 -3 0 -11 12 -17 26 -7 15 -17 22 -24 18 -6 -4 -8 -3 -5 3 4 6 0
16 -8 23 -8 7 -15 16 -15 21 0 12 -107 168 -155 225 -54 64 -129 139 -194 194
-29 25 -85 76 -124 113 -58 56 -194 147 -229 153 -5 1 -10 3 -13 4 -3 1 -8 3
-12 5 -5 1 -19 6 -33 12 -28 12 -260 94 -275 97 -51 13 -72 20 -84 30 -8 6
-16 10 -18 8 -6 -5 -83 11 -83 17 0 12 -28 13 -440 17 l-406 5 -38 -42z m-316
-110 c0 -5 5 -7 10 -4 6 3 10 2 10 -4 0 -5 -12 -9 -27 -7 -34 3 -62 -9 -84
-36 -15 -19 -18 -19 -45 -5 l-29 16 27 -1 c15 -1 24 -6 22 -10 -3 -4 0 -8 7
-8 6 0 9 8 6 20 -3 11 -1 18 4 15 4 -3 21 0 36 8 15 8 34 12 42 9 8 -3 11 0 7
7 -4 6 -2 11 3 11 6 0 11 -5 11 -11z m55 1 c-3 -5 -12 -10 -18 -10 -7 0 -6 4
3 10 19 12 23 12 15 0z m-261 -85 c11 -8 15 -15 9 -15 -7 0 -15 5 -18 10 -3 6
-12 10 -18 10 -7 -1 -2 -9 10 -19 20 -16 21 -21 8 -31 -8 -7 -15 -9 -15 -4 0
5 -5 2 -11 -6 -9 -13 -10 -12 -5 3 7 23 -21 20 -48 -6 -12 -10 -23 -14 -29 -8
-5 5 -17 7 -26 4 -13 -4 -14 -3 -1 5 9 7 18 8 26 1 9 -7 15 -5 21 6 11 20 52
28 70 14 16 -14 18 2 2 18 -6 6 -19 9 -28 6 -11 -4 -10 -1 4 10 24 20 25 20
49 2z m42 -41 c-9 -6 -12 -15 -8 -19 4 -5 1 -5 -6 -1 -8 5 -19 1 -27 -10 -8
-11 -15 -14 -15 -7 0 6 9 18 20 26 11 8 18 16 15 18 -2 3 5 5 16 5 18 0 18 -2
5 -12z m-217 -47 c-2 -1 -13 -9 -24 -17 -19 -14 -19 -14 -6 3 7 9 18 17 24 17
6 0 8 -1 6 -3z m2979 -842 c-3 -3 -9 2 -12 12 -6 14 -5 15 5 6 7 -7 10 -15 7
-18z m-1814 -207 c8 14 109 3 126 -13 16 -16 6 -18 -25 -6 -11 5 -28 5 -37 0
-10 -6 -19 -5 -23 1 -4 6 -13 7 -23 1 -9 -4 -23 -6 -29 -4 -7 3 -13 0 -13 -7
0 -6 -4 -9 -8 -6 -10 6 -52 -30 -52 -45 0 -6 -3 -8 -8 -5 -4 2 -7 -22 -7 -55
0 -34 -4 -59 -10 -59 -5 0 -5 -4 2 -8 6 -4 14 -20 17 -35 3 -18 1 -25 -6 -21
-8 5 -9 1 -5 -10 6 -14 3 -17 -8 -12 -9 3 -13 2 -10 -4 5 -8 -74 -100 -88
-100 -3 0 -4 11 -1 25 2 14 0 25 -5 25 -5 0 -7 -15 -6 -32 2 -23 -5 -41 -22
-63 -14 -16 -29 -30 -34 -30 -4 0 -11 -4 -16 -9 -5 -5 -3 -6 5 -2 21 12 13 -4
-14 -29 -14 -13 -25 -27 -26 -32 0 -4 -5 -7 -10 -5 -6 2 -8 -4 -5 -12 7 -18
-34 -33 -54 -20 -7 4 -9 3 -6 -3 4 -6 0 -13 -8 -17 -8 -3 -15 0 -15 7 0 9 -3
8 -9 -1 -4 -7 -22 -14 -39 -14 -17 -1 -33 -7 -36 -15 -3 -7 -10 -13 -16 -13
-6 0 -8 5 -5 10 11 18 -1 11 -21 -12 -15 -19 -16 -20 -1 -9 27 22 20 5 -14
-28 -17 -17 -37 -31 -45 -31 -9 0 -13 -4 -10 -9 3 -5 -23 -38 -58 -75 -35 -36
-62 -66 -60 -66 2 0 -10 -13 -25 -29 -16 -17 -37 -44 -47 -61 -11 -17 -24 -28
-32 -25 -7 2 -10 0 -7 -5 6 -9 -43 -95 -50 -88 -6 5 19 78 27 78 4 0 5 9 3 21
-3 14 0 19 9 16 7 -3 13 1 13 9 0 7 -5 10 -11 7 -6 -4 -5 1 3 10 7 9 10 17 7
17 -4 0 -1 10 6 23 7 12 11 25 10 30 -1 4 3 8 8 8 6 1 14 2 19 3 5 0 13 4 17
8 3 4 -3 6 -14 3 -15 -3 -19 0 -15 11 3 8 11 13 18 11 6 -3 12 1 12 9 0 7 -4
11 -9 8 -9 -6 12 36 23 46 3 3 8 13 12 23 4 10 11 16 16 13 5 -3 15 2 22 12
13 15 12 16 -3 3 -10 -7 -18 -9 -18 -4 0 16 31 53 40 48 5 -3 12 0 16 6 4 8 3
9 -4 5 -24 -14 -11 10 30 57 29 34 46 47 59 44 11 -3 17 -1 13 4 -3 5 -3 9 0
9 2 0 12 3 22 7 12 4 15 3 10 -5 -4 -7 -2 -12 3 -12 6 0 11 5 11 10 0 6 5 10
11 10 5 0 8 -4 5 -9 -4 -5 2 -7 13 -4 10 3 28 -3 40 -13 16 -15 18 -21 8 -33
-11 -14 -10 -14 5 -2 10 7 15 17 12 22 -3 5 -1 9 5 9 5 0 8 9 6 20 -2 11 0 20
5 20 4 0 7 8 5 18 -1 9 2 23 8 30 5 6 6 12 3 12 -4 0 -4 5 0 11 4 8 9 7 16 -2
6 -10 7 -7 3 8 -3 13 -3 28 2 35 4 7 8 18 8 23 0 6 8 9 18 9 9 -1 15 2 12 6
-7 11 24 22 37 13 6 -3 8 -2 5 4 -3 5 21 23 53 40 33 17 57 32 54 35 -3 3 7 9
22 12 14 4 23 10 20 13 -4 4 6 13 21 20 20 9 22 12 8 10 -13 -1 -19 3 -17 12
3 12 1 12 -14 0 -16 -12 -17 -12 -11 3 4 12 2 15 -7 12 -15 -6 -29 22 -19 38
3 7 1 8 -5 4 -8 -4 -12 0 -12 11 0 21 65 81 97 89 13 4 23 10 23 16 0 5 4 7 9
3 5 -3 12 -1 16 5 3 5 14 10 23 10 15 -1 15 -2 -2 -15 -11 -8 -15 -15 -8 -15
7 0 17 9 24 19 9 14 16 17 24 10 7 -6 15 -6 18 -1z m1907 -21 c-10 -9 -11 -8
-5 6 3 10 9 15 12 12 3 -3 0 -11 -7 -18z m-1741 -7 c0 -5 -2 -10 -4 -10 -3 0
-8 5 -11 10 -3 6 -1 10 4 10 6 0 11 -4 11 -10z m411 -227 c13 -16 12 -17 -3
-4 -10 7 -18 15 -18 17 0 8 8 3 21 -13z m1419 -73 c0 -5 -5 -10 -11 -10 -5 0
-7 5 -4 10 3 6 8 10 11 10 2 0 4 -4 4 -10z m73 -35 c-3 -9 -8 -14 -10 -11 -3
3 -2 9 2 15 9 16 15 13 8 -4z m-1396 -47 c-3 -8 -6 -5 -6 6 -1 11 2 17 5 13 3
-3 4 -12 1 -19z m1479 -195 c-10 -11 -19 -7 -22 10 -2 15 0 16 12 6 8 -6 12
-14 10 -16z m8 -28 c-4 -8 -11 -15 -16 -15 -6 0 -5 6 2 15 7 8 14 15 16 15 2
0 1 -7 -2 -15z m4 -51 c2 -1 -5 -5 -15 -8 -9 -4 -14 -4 -10 0 4 4 1 14 -6 23
-11 14 -10 15 8 1 11 -8 21 -15 23 -16z m8 -26 c4 -7 3 -8 -4 -4 -7 4 -12 2
-12 -5 0 -7 -3 -10 -6 -6 -6 5 3 27 11 27 2 0 7 -5 11 -12z m8 -33 c-7 -16
-24 -21 -24 -6 0 8 7 13 27 20 1 1 0 -6 -3 -14z m16 -46 c0 -6 -4 -7 -10 -4
-5 3 -10 11 -10 16 0 6 5 7 10 4 6 -3 10 -11 10 -16z m-19 -16 c13 -16 12 -17
-3 -4 -10 7 -18 15 -18 17 0 8 8 3 21 -13z m48 0 c-11 -3 -15 -11 -12 -24 3
-10 1 -19 -4 -19 -7 0 -10 30 -4 48 1 1 9 1 19 1 15 -1 15 -2 1 -6z m31 -46
c0 -5 -4 -5 -10 -2 -5 3 -10 14 -10 23 0 15 2 15 10 2 5 -8 10 -19 10 -23z
m20 -37 c0 -5 -4 -10 -10 -10 -5 0 -10 5 -10 10 0 6 5 10 10 10 6 0 10 -4 10
-10z m40 -7 c-8 -3 -22 -11 -30 -17 -13 -10 -13 -9 -1 7 7 9 21 17 30 16 13 0
14 -1 1 -6z m-7 -28 c-3 -9 -8 -14 -10 -11 -3 3 -2 9 2 15 9 16 15 13 8 -4z
m30 -1 c-7 -3 -9 -13 -6 -22 4 -14 3 -14 -5 -2 -12 16 -7 30 11 29 9 0 9 -2 0
-5z m32 -32 c-3 -3 -11 0 -18 7 -9 10 -8 11 6 5 10 -3 15 -9 12 -12z m6 -35
c-10 -9 -11 -8 -5 6 3 10 9 15 12 12 3 -3 0 -11 -7 -18z m79 -32 c0 -8 -4 -15
-10 -15 -5 0 -7 7 -4 15 4 8 8 15 10 15 2 0 4 -7 4 -15z m19 -21 c-9 -11 -9
-14 1 -14 8 0 11 -3 7 -6 -3 -3 -13 -2 -22 4 -16 8 -16 9 0 15 9 4 13 12 9 18
-4 8 -3 9 5 5 9 -6 9 -11 0 -22z m41 2 c0 -3 -4 -8 -10 -11 -5 -3 -10 -1 -10
4 0 6 5 11 10 11 6 0 10 -2 10 -4z m-22 -57 c2 -8 0 -10 -5 -4 -4 6 -17 11
-28 13 -20 3 -20 2 -1 -13 11 -8 15 -15 9 -15 -7 0 -15 5 -18 10 -4 6 -12 7
-18 3 -7 -4 -6 0 2 10 15 19 53 17 59 -4z m35 1 c-3 -11 -9 -20 -15 -20 -5 0
-4 9 2 20 6 11 12 20 14 20 2 0 2 -9 -1 -20z m-119 -14 c-4 -9 2 -13 18 -12
18 1 23 -4 23 -24 0 -26 -26 -36 -31 -12 -1 7 0 8 3 2 8 -16 19 -12 20 9 1 14
-4 19 -17 16 -21 -4 -35 9 -25 25 9 15 15 12 9 -4z m111 -35 c-3 -2 -12 2 -22
10 -15 12 -16 12 -10 -4 4 -11 3 -16 -3 -12 -6 3 -10 1 -10 -6 0 -7 -3 -10 -6
-7 -3 4 -1 16 5 27 10 18 15 19 31 9 10 -7 17 -14 15 -17z m30 19 c3 -5 1 -10
-4 -10 -6 0 -11 5 -11 10 0 6 2 10 4 10 3 0 8 -4 11 -10z m-150 -31 c-4 -5
-12 -9 -18 -8 -9 0 -8 2 1 6 6 2 9 10 6 15 -4 7 -2 8 5 4 6 -4 9 -12 6 -17z
m-5196 -8 c2 -1 -4 -10 -14 -21 -10 -11 -22 -17 -26 -14 -5 3 -9 1 -9 -5 0 -5
5 -13 10 -16 6 -4 8 -11 5 -16 -4 -5 1 -12 10 -15 11 -5 13 -10 5 -19 -5 -6
-9 -14 -7 -16 1 -3 -8 6 -20 20 -16 19 -19 28 -11 38 7 9 7 13 0 13 -6 0 -9 6
-8 14 3 23 26 44 44 41 9 -2 19 -4 21 -4z m5326 -1 c-3 -5 -13 -10 -21 -10 -8
0 -12 -4 -9 -10 4 -6 -1 -7 -11 -3 -14 5 -13 8 7 19 29 16 42 18 34 4z m-110
-20 c3 -6 -1 -7 -9 -4 -18 7 -21 14 -7 14 6 0 13 -4 16 -10z m40 0 c-3 -5 -12
-10 -18 -10 -7 0 -6 4 3 10 19 12 23 12 15 0z m-52 -28 c-4 -15 13 -16 20 -2
3 6 4 5 3 -2 -3 -15 -26 -18 -25 -3 0 5 -8 13 -18 17 -16 7 -16 8 2 5 11 -2
19 -9 18 -15z m83 6 c5 -8 2 -9 -10 -5 -16 6 -17 3 -12 -20 5 -23 4 -25 -5
-10 -12 20 -6 47 10 47 5 0 13 -5 17 -12z m21 -13 c-4 -8 -2 -17 3 -20 5 -3
12 4 15 16 4 11 9 18 12 16 2 -3 0 -15 -6 -26 -10 -17 -15 -19 -30 -9 -14 9
-16 14 -7 24 15 18 19 17 13 -1z m-117 -27 c0 -19 -16 -5 -17 14 -2 18 0 20 7
8 5 -8 10 -18 10 -22z m-3403 -3 c0 -8 -4 -12 -9 -9 -5 3 -6 10 -3 15 9 13 12
11 12 -6z m3473 -28 c0 -4 5 -5 10 -2 13 8 24 -20 16 -41 -5 -13 -9 -13 -32 5
-17 13 -31 18 -38 12 -17 -13 -43 -9 -43 6 0 9 4 10 11 3 16 -16 30 -12 16 5
-9 10 -9 15 -1 15 6 0 11 -5 11 -11 0 -5 4 -8 9 -5 5 3 20 -4 35 -15 l26 -20
0 21 c0 12 -5 18 -10 15 -6 -3 -13 1 -16 9 -3 9 -10 13 -15 10 -5 -3 -6 3 -2
13 5 15 3 16 -8 6 -7 -7 -17 -13 -23 -13 -5 0 -1 7 10 15 17 12 20 12 32 -2 6
-9 12 -21 12 -26z m40 13 c0 -5 -2 -10 -4 -10 -3 0 -8 5 -11 10 -3 6 -1 10 4
10 6 0 11 -4 11 -10z m82 1 c-13 -3 -23 -10 -23 -16 1 -16 -42 -11 -46 5 -3 9
-1 11 4 5 4 -5 17 -11 28 -13 19 -2 19 -2 3 11 -16 12 -13 14 20 14 27 1 31
-1 14 -6z m18 -41 c12 -7 10 -9 -8 -7 -12 0 -22 5 -22 9 0 11 12 10 30 -2z
m-50 -10 c19 -10 17 -40 -2 -40 -6 0 -4 8 3 17 12 15 12 16 -4 10 -10 -4 -16
-3 -12 2 3 5 -1 12 -7 14 -7 3 -9 6 -5 6 5 1 17 -4 27 -9z m-102 -12 c17 -17
-3 -48 -29 -43 -15 3 -19 0 -15 -10 3 -8 1 -15 -5 -15 -6 0 -9 8 -7 18 2 10
12 17 25 16 15 -1 21 4 20 17 -1 20 -17 27 -17 7 0 -6 -3 -9 -6 -5 -7 7 4 27
15 27 4 0 12 -5 19 -12z m70 -13 c-3 -3 -9 2 -12 12 -6 14 -5 15 5 6 7 -7 10
-15 7 -18z m-128 1 c0 -8 -4 -17 -8 -20 -4 -2 -8 4 -8 15 0 10 4 19 8 19 4 0
8 -6 8 -14z m225 -19 c4 4 5 2 0 -6 -7 -12 -10 -11 -22 4 -7 11 -13 24 -13 29
1 6 6 1 13 -12 7 -12 17 -19 22 -15z m-115 13 c0 -5 -5 -10 -11 -10 -5 0 -7 5
-4 10 3 6 8 10 11 10 2 0 4 -4 4 -10z m-44 -38 c-17 -16 -18 -16 -5 5 7 12 15
20 18 17 3 -2 -3 -12 -13 -22z m63 12 c-11 -13 -9 -15 17 -9 23 4 25 3 9 -4
-11 -5 -31 -7 -44 -4 -17 4 -22 2 -16 -6 4 -8 -1 -14 -14 -18 -12 -3 -21 -9
-21 -14 0 -5 -4 -9 -10 -9 -21 0 -9 20 15 26 14 3 22 10 19 16 -3 5 3 12 15
15 12 3 21 9 21 14 0 5 5 9 11 9 8 0 7 -5 -2 -16z m71 -16 c0 -19 -16 -5 -17
14 -2 18 0 20 7 8 5 -8 10 -18 10 -22z m-2095 0 c3 -3 -8 -4 -25 -3 -17 1 -33
5 -36 8 -3 3 8 5 25 3 17 -1 33 -5 36 -8z m40 -8 c8 0 17 -4 20 -10 4 -6 -2
-7 -16 -1 -13 4 -24 13 -25 20 -1 6 0 7 3 1 2 -5 11 -10 18 -10z m2091 11 c-4
-5 -1 -11 6 -13 7 -3 5 -7 -6 -11 -10 -4 -15 -3 -11 3 3 6 0 10 -7 10 -9 0 -9
3 2 10 19 12 23 12 16 1z m-2031 -33 c-1 -16 -5 -31 -10 -36 -4 -4 -4 3 -1 16
4 12 3 22 -2 22 -6 0 -12 6 -15 13 -3 7 3 13 12 13 13 0 17 -8 16 -28z m1827
9 c-7 -8 -9 -17 -5 -21 4 -4 0 -4 -9 -1 -15 6 -15 8 0 24 19 20 31 18 14 -2z
m-1780 -6 c-2 -8 5 -11 20 -6 20 5 21 4 5 -5 -9 -6 -21 -8 -27 -5 -5 3 -14 -4
-21 -16 -10 -19 -8 -25 12 -40 13 -9 27 -15 31 -13 17 11 7 -8 -17 -31 -31
-32 -46 -33 -16 -1 l23 24 -31 18 -30 18 26 35 c19 25 22 33 10 28 -9 -3 -17
-2 -17 4 0 6 8 9 18 7 9 -2 16 -10 14 -17z m1927 -14 c-1 -21 -1 -21 -8 2 -6
23 -7 23 -24 7 -21 -22 -22 -30 -1 -22 8 3 13 2 9 -3 -3 -5 1 -12 7 -14 7 -3
8 -6 2 -6 -5 -1 -18 5 -29 12 -17 13 -17 15 4 36 25 25 41 20 40 -12z m-59 13
c0 -5 -5 -10 -11 -10 -5 0 -7 5 -4 10 3 6 8 10 11 10 2 0 4 -4 4 -10z m105
-19 c-6 -5 -25 10 -25 20 0 5 6 4 14 -3 8 -7 12 -15 11 -17z m-1925 -6 c-7 -9
-15 -13 -19 -10 -3 3 1 10 9 15 21 14 24 12 10 -5z m21 -9 c-10 -12 -8 -17 8
-26 12 -6 21 -7 21 -1 0 5 -5 12 -10 14 -6 3 -5 4 2 3 7 -2 13 -11 13 -21 0
-10 6 -20 14 -23 10 -3 11 0 5 9 -7 12 -5 12 9 0 9 -7 14 -17 11 -22 -3 -5 2
-12 10 -15 9 -3 16 -10 16 -16 0 -5 -5 -6 -10 -3 -6 3 -13 -1 -16 -9 -5 -13
-10 -12 -26 9 -11 14 -24 23 -29 20 -5 -4 -9 -1 -9 4 0 17 14 13 38 -9 11 -11
23 -16 26 -11 4 5 -17 26 -45 46 -42 30 -48 39 -39 51 7 7 15 14 17 14 3 0 0
-6 -6 -14z m1779 4 c-13 -9 -7 -14 13 -11 4 0 7 -3 7 -8 0 -6 -8 -9 -19 -8
-16 1 -19 11 -12 35 1 1 7 2 14 2 8 0 7 -4 -3 -10z m96 -5 c-3 -8 2 -19 12
-24 9 -5 15 -12 12 -14 -11 -11 -40 21 -34 37 3 9 8 16 11 16 3 0 3 -7 -1 -15z
m-1949 -17 c-3 -8 -6 -5 -6 6 -1 11 2 17 5 13 3 -3 4 -12 1 -19z m53 -18 l23
-20 -29 -25 c-16 -14 -33 -25 -37 -25 -4 0 4 11 20 24 23 20 25 26 14 40 -7 9
-17 13 -22 10 -5 -3 -9 0 -9 5 0 17 14 13 40 -9z m1874 -19 c-1 -22 23 -26 39
-6 5 6 7 4 4 -5 -2 -8 -14 -15 -28 -15 -20 0 -23 4 -21 24 2 13 0 21 -5 18 -5
-3 -15 -1 -23 4 -11 7 -8 8 10 5 18 -2 25 -9 24 -25z m-1954 3 l25 -15 -25 7
c-22 6 -23 5 -11 -10 9 -10 10 -16 2 -16 -10 0 -13 7 -10 26 0 4 -5 11 -13 15
-23 15 6 9 32 -7z m1926 -6 c5 -8 2 -9 -9 -5 -10 4 -20 0 -26 -11 -6 -9 -11
-12 -11 -6 0 11 20 34 31 34 4 0 11 -5 15 -12z m-1968 -38 c-7 -11 -15 -15
-17 -9 -2 6 3 15 10 20 20 12 21 11 7 -11z m141 8 c-1 -7 1 -21 6 -31 10 -23
-2 -35 -18 -17 -9 10 -9 11 1 6 6 -4 12 -3 12 2 0 16 -13 22 -27 11 -19 -16
-16 -2 5 20 21 23 23 25 21 9z m1822 -23 c5 4 14 -5 20 -19 7 -14 15 -23 20
-21 14 9 20 -14 9 -32 -9 -15 -10 -14 -4 6 4 15 2 21 -4 17 -6 -4 -17 5 -24
18 -7 14 -17 24 -23 23 -5 -1 -10 7 -11 18 -1 16 0 16 3 2 3 -9 9 -15 14 -12z
m33 6 c-2 -3 -12 3 -22 13 -16 17 -16 18 5 5 12 -7 20 -15 17 -18z m66 25 c0
-2 -8 -10 -17 -17 -16 -13 -17 -12 -4 4 13 16 21 21 21 13z m-2020 -47 c7 -12
7 -19 1 -19 -5 0 -13 9 -16 20 -4 11 -11 17 -17 14 -7 -4 -8 -2 -4 5 9 14 22
7 36 -20z m128 17 c-2 -4 8 -14 22 -22 l25 -15 -25 7 c-23 6 -24 6 -10 -12 8
-10 20 -22 25 -26 6 -5 6 -8 -1 -8 -14 0 -40 40 -39 60 0 8 -4 19 -10 23 -6 6
-5 7 3 5 8 -2 12 -7 10 -12z m1848 -1 c-3 -8 2 -19 12 -24 9 -6 13 -10 7 -11
-20 0 -35 17 -29 33 3 9 8 17 11 17 3 0 3 -7 -1 -15z m-101 -5 c3 -5 1 -10 -4
-10 -6 0 -11 5 -11 10 0 6 2 10 4 10 3 0 8 -4 11 -10z m-1841 -15 c-4 -8 -8
-15 -10 -15 -2 0 -4 7 -4 15 0 8 4 15 10 15 5 0 7 -7 4 -15z m166 11 c0 -3 -4
-8 -10 -11 -5 -3 -10 -1 -10 4 0 6 5 11 10 11 6 0 10 -2 10 -4z m-246 -22
c-19 -14 -18 -14 1 -32 26 -22 54 -58 38 -49 -6 4 -14 2 -16 -3 -3 -6 -4 -5
-3 2 3 16 -34 58 -51 58 -19 0 -16 -18 5 -23 15 -4 15 -5 0 -6 -26 -2 -33 20
-13 36 11 7 15 13 11 13 -17 0 5 16 24 17 21 2 22 1 4 -13z m259 1 c-3 -9 -8
-14 -10 -11 -3 3 -2 9 2 15 9 16 15 13 8 -4z m1692 5 c3 -5 1 -10 -4 -10 -6 0
-11 5 -11 10 0 6 2 10 4 10 3 0 8 -4 11 -10z m-1828 -20 c18 -20 39 -28 28
-10 -3 6 -1 10 5 10 22 0 3 -25 -19 -26 -12 -1 -32 -11 -45 -23 -12 -11 -26
-21 -32 -21 -5 0 5 11 21 25 32 26 23 35 -11 10 -19 -13 -22 -12 -34 10 -7 13
-17 22 -22 19 -4 -3 -8 0 -8 5 0 18 17 12 32 -10 12 -18 17 -20 35 -10 12 6
30 8 40 4 16 -6 16 -5 4 10 -7 9 -17 14 -22 11 -5 -3 -9 0 -9 5 0 17 19 13 37
-9z m113 0 c0 -5 -8 -10 -17 -10 -15 0 -16 2 -3 10 19 12 20 12 20 0z m1743
-5 c4 -8 3 -16 -1 -19 -4 -3 -9 4 -9 15 -2 23 3 25 10 4z m-1906 -1 c-3 -3
-12 -4 -19 -1 -8 3 -5 6 6 6 11 1 17 -2 13 -5z m206 -19 c9 -22 -10 -28 -34
-12 -15 11 -17 16 -7 20 23 10 36 7 41 -8z m298 -2 c13 -16 12 -17 -3 -4 -10
7 -18 15 -18 17 0 8 8 3 21 -13z m-1591 -3 c0 -5 -2 -10 -4 -10 -3 0 -8 5 -11
10 -3 6 -1 10 4 10 6 0 11 -4 11 -10z m1201 -10 c1 -5 2 -14 3 -19 0 -5 4 -13
9 -17 4 -4 7 -14 7 -23 -1 -10 -5 -7 -14 9 -8 14 -12 28 -10 32 2 3 0 9 -6 13
-5 3 -10 1 -10 -6 0 -7 -3 -10 -6 -6 -8 7 4 27 17 27 5 0 10 -4 10 -10z m1854
1 c9 -15 -29 -31 -46 -20 -12 8 -12 10 1 8 29 -3 41 1 35 11 -3 6 -4 10 -1 10
3 0 7 -4 11 -9z m-2095 -11 c0 -5 -2 -10 -4 -10 -3 0 -8 5 -11 10 -3 6 -1 10
4 10 6 0 11 -4 11 -10z m198 2 c-2 -4 7 -18 20 -32 27 -29 28 -40 5 -40 -13 0
-14 3 -5 8 9 6 6 14 -13 32 -26 25 -32 40 -15 40 6 0 9 -3 8 -8z m89 0 c8 -5
8 -12 -2 -25 -11 -16 -13 -16 -19 -2 -3 9 -2 13 4 10 6 -3 10 -2 10 4 0 5 -6
12 -12 14 -7 3 -8 6 -3 6 6 0 15 -3 22 -7z m-282 -40 c-15 -16 -16 -15 -4 12
7 15 15 23 17 16 3 -7 -3 -19 -13 -28z m50 19 c3 -11 15 -23 26 -26 11 -4 18
-9 16 -12 -3 -2 -15 0 -26 6 -23 13 -47 51 -32 51 5 0 12 -9 16 -19z m93 -11
c-12 -16 -25 -30 -30 -30 -4 0 4 14 19 30 14 17 28 30 30 30 2 0 -6 -13 -19
-30z m532 -38 c0 -4 -9 7 -20 23 -11 17 -20 35 -20 40 0 6 9 -5 20 -23 11 -18
20 -36 20 -40z m-342 33 c-3 -3 -9 2 -12 12 -6 14 -5 15 5 6 7 -7 10 -15 7
-18z m-164 -3 c-6 -4 -16 -17 -23 -29 -12 -23 -15 -51 -5 -40 4 3 14 -3 24
-15 11 -14 21 -18 30 -13 11 7 9 10 -6 16 -16 6 -16 8 -2 8 30 2 30 -18 1 -43
-29 -26 -66 -28 -87 -5 -8 9 -6 9 11 0 18 -9 24 -8 33 6 11 17 11 17 6 1 -6
-20 9 -24 20 -6 4 6 -4 20 -19 33 -15 11 -27 25 -27 30 0 17 41 77 48 71 3 -4
2 -10 -4 -14z m146 -3 c0 -6 -4 -7 -10 -4 -5 3 -10 1 -10 -6 0 -7 -2 -10 -5
-7 -9 8 6 38 16 32 5 -3 9 -10 9 -15z m-340 -10 c0 -4 -9 -13 -20 -19 -14 -7
-20 -7 -20 0 0 5 7 10 16 10 8 0 12 5 9 10 -4 6 -11 7 -17 4 -7 -4 -8 -2 -4 4
7 12 36 5 36 -9z m137 15 c-3 -3 -12 -4 -19 -1 -8 3 -5 6 6 6 11 1 17 -2 13
-5z m1938 -4 c-3 -5 -1 -10 6 -10 7 0 10 -3 6 -6 -9 -9 -28 6 -22 17 4 5 8 9
11 9 3 0 2 -4 -1 -10z m-2036 -26 l-24 -26 25 6 25 7 -25 -15 c-27 -17 -55
-22 -30 -6 10 6 11 10 3 10 -7 0 -13 5 -13 11 0 5 4 8 8 5 5 -3 15 4 22 15 8
10 19 19 24 19 5 0 -1 -12 -15 -26z m167 0 c-9 -9 -14 -19 -11 -22 3 -4 10 0
15 8 6 9 10 10 10 3 0 -6 9 -10 20 -8 11 2 18 0 15 -5 -3 -4 1 -10 7 -13 7 -2
10 -7 7 -11 -4 -4 -13 -1 -21 7 -7 8 -23 12 -35 11 -12 -2 -25 1 -28 7 -7 10
24 53 33 45 2 -3 -3 -13 -12 -22z m89 -3 c-3 -6 -11 -11 -16 -11 -5 0 -4 6 3
14 14 16 24 13 13 -3z m61 -1 c0 -12 -4 -16 -9 -11 -5 5 -6 14 -3 20 10 15 12
14 12 -9z m-276 1 c0 -5 15 -8 33 -6 17 2 26 1 19 -2 -10 -4 -10 -8 -1 -19 8
-10 8 -14 0 -14 -6 0 -11 5 -11 11 0 5 -4 7 -10 4 -5 -3 -10 -1 -10 5 0 6 -11
3 -25 -7 -25 -18 -35 -40 -12 -27 6 4 8 3 4 -1 -12 -14 -36 -14 -44 -2 -3 7
-3 9 1 6 4 -4 18 3 31 15 17 15 21 24 13 33 -7 9 -7 13 1 13 6 0 11 -4 11 -9z
m1990 -11 c7 -14 7 -20 0 -20 -5 0 -10 7 -10 16 0 8 -4 12 -10 9 -5 -3 -10 -1
-10 4 0 18 19 12 30 -9z m-1740 6 c0 -2 -7 -7 -16 -10 -8 -3 -12 -2 -9 4 6 10
25 14 25 6z m-343 -28 c-3 -8 -6 -5 -6 6 -1 11 2 17 5 13 3 -3 4 -12 1 -19z
m2043 6 c0 -8 4 -13 8 -10 4 2 14 1 22 -4 11 -7 9 -9 -8 -7 -23 1 -54 37 -32
37 5 0 10 -7 10 -16z m-1690 -36 c0 -5 -11 -1 -25 8 -16 10 -25 12 -25 5 0 -6
7 -14 15 -17 8 -4 15 -11 15 -16 0 -6 -6 -6 -14 1 -11 10 -17 8 -25 -6 -6 -10
-11 -13 -11 -6 0 6 4 14 9 17 4 3 7 17 6 31 l-3 25 29 -17 c16 -10 29 -21 29
-25z m10 32 c8 -5 12 -11 10 -14 -3 -2 -14 2 -24 10 -22 15 -10 19 14 4z
m1670 -35 c0 -5 -5 -3 -10 5 -5 8 -10 20 -10 25 0 6 5 3 10 -5 5 -8 10 -19 10
-25z m-1886 11 c21 -1 36 -26 16 -26 -6 0 -9 4 -5 9 3 6 -3 10 -12 10 -39 1
-53 5 -53 14 0 5 8 6 18 2 9 -4 26 -8 36 -9z m1826 -6 c0 -5 -4 -10 -10 -10
-5 0 -10 5 -10 10 0 6 5 10 10 10 6 0 10 -4 10 -10z m36 -1 c3 -6 1 -16 -6
-22 -10 -9 -12 -8 -7 5 3 9 1 19 -6 22 -9 3 -9 5 0 5 6 1 15 -4 19 -10z
m-1889 -15 c-3 -3 -12 -4 -19 -1 -8 3 -5 6 6 6 11 1 17 -2 13 -5z m241 -15
c-10 -5 -15 -16 -12 -24 4 -8 10 -12 15 -9 5 3 4 -6 -3 -21 -11 -24 -13 -24
-22 -8 -5 10 -16 24 -23 31 -7 7 -13 18 -13 24 0 6 9 0 21 -13 11 -13 18 -17
16 -9 -5 16 22 54 32 44 3 -3 -2 -10 -11 -15z m1568 9 c4 -7 3 -8 -4 -4 -7 4
-12 2 -12 -5 0 -7 -3 -10 -6 -6 -6 5 3 27 11 27 2 0 7 -5 11 -12z m-1667 -20
c-7 -13 -18 -27 -25 -31 -8 -4 -14 -13 -14 -18 0 -6 5 -7 10 -4 6 3 10 2 10
-3 0 -6 -8 -13 -17 -16 -10 -4 -14 -4 -11 0 4 4 3 15 -2 24 -7 13 -5 23 8 37
9 10 14 14 10 9 -14 -18 -8 -29 7 -16 8 7 15 19 15 26 0 8 5 14 10 14 7 0 7
-8 -1 -22z m1683 -14 c-8 -15 -9 -15 -15 0 -4 10 -3 15 3 11 6 -3 10 2 11 12
0 10 3 13 5 6 3 -7 1 -20 -4 -29z m43 -4 c-4 -6 -10 -8 -15 -5 -4 3 -11 -6
-14 -20 l-6 -24 -36 24 c-19 13 -43 21 -52 19 -13 -5 -14 -4 -3 4 7 5 18 16
23 23 7 11 8 9 4 -5 -5 -14 -2 -17 11 -12 10 4 14 4 10 0 -6 -7 20 -33 34 -34
4 0 9 9 12 21 4 13 10 18 17 14 9 -5 10 -1 6 16 -6 20 -5 21 4 6 6 -9 8 -22 5
-27z m32 8 c-3 -8 -6 -5 -6 6 -1 11 2 17 5 13 3 -3 4 -12 1 -19z m-1742 -18
c-18 -20 -8 -29 11 -10 6 6 15 6 24 -1 13 -9 13 -10 0 -8 -8 1 -23 -1 -33 -6
-10 -4 -20 -5 -23 -2 -7 7 18 47 30 47 5 0 1 -9 -9 -20z m1749 -12 c-3 -4 -11
-5 -19 -1 -21 7 -19 12 4 10 11 0 18 -5 15 -9z m-24 -12 c0 -2 -7 -6 -15 -10
-8 -3 -15 -1 -15 4 0 6 7 10 15 10 8 0 15 -2 15 -4z m-1702 -17 c-2 -6 -7 -10
-12 -9 -5 1 -12 -3 -16 -9 -3 -7 -14 -9 -24 -5 -23 9 -1 24 26 19 10 -2 18 0
18 6 0 5 3 9 6 9 3 0 4 -5 2 -11z m32 4 c-1 -14 -27 -43 -39 -43 -6 0 -11 -4
-11 -10 0 -5 5 -10 11 -10 20 0 39 -33 27 -47 -6 -7 -16 -13 -22 -13 -6 0 -22
-9 -36 -19 -18 -15 -29 -17 -43 -9 -16 8 -18 7 -12 -11 4 -14 1 -23 -9 -27 -9
-3 -13 -11 -9 -17 3 -6 1 -7 -5 -3 -17 10 -15 -3 3 -21 20 -19 9 -36 -18 -27
-22 7 -22 6 -3 -14 l18 -21 20 22 19 22 -11 -22 c-6 -13 -7 -23 -3 -23 15 0
40 36 37 53 -1 10 4 17 13 17 13 0 13 -3 3 -15 -7 -8 -9 -15 -5 -15 5 0 1 -8
-8 -18 -16 -18 -14 -32 5 -32 5 0 6 6 2 13 -5 8 -2 7 9 -2 10 -8 21 -10 25 -6
4 4 1 10 -5 12 -7 3 -13 9 -13 15 0 6 7 4 17 -3 15 -12 16 -12 10 3 -3 10 -2
20 4 24 19 11 21 -4 5 -34 -11 -21 -23 -29 -41 -29 -14 0 -27 3 -30 7 -2 4
-17 6 -32 4 -17 -2 -33 4 -43 16 -10 11 -21 16 -26 12 -4 -4 -2 1 5 11 9 12
21 15 35 11 20 -6 20 -5 4 12 -14 14 -20 15 -32 4 -9 -7 -16 -9 -16 -5 0 4 8
14 18 21 16 13 16 13 0 14 -10 0 -18 5 -18 10 0 7 6 7 18 1 12 -6 23 -5 35 4
21 15 22 25 3 25 -8 0 -18 9 -21 20 -4 11 -11 18 -16 14 -6 -3 -4 -15 6 -30
16 -25 12 -32 -8 -11 -13 13 -19 57 -8 55 3 -1 14 2 24 7 10 4 21 5 24 1 4 -3
-1 -6 -11 -6 -14 0 -15 -4 -6 -20 6 -11 16 -18 22 -14 7 4 6 10 -3 16 -11 8
-10 8 4 4 11 -3 20 0 24 10 5 14 8 13 17 -4 8 -16 15 -19 26 -12 13 9 13 10 0
10 -13 0 -13 1 0 10 8 5 23 7 32 4 23 -7 17 22 -8 41 -19 15 -18 16 9 36 15
11 25 25 21 30 -3 5 0 9 5 9 6 0 11 -3 11 -7z m13 -30 c-6 -16 -5 -16 10 -4
21 17 22 5 2 -15 -17 -17 -21 -39 -5 -29 6 3 10 4 10 1 0 -3 -4 -7 -9 -11 -17
-10 -33 33 -21 55 13 25 22 26 13 3z m-76 -57 c-2 -6 -9 -11 -15 -12 -7 -1 -8
0 -2 3 6 3 4 16 -6 36 l-15 32 20 -25 c11 -14 19 -29 18 -34z m-897 -40 c0 -2
-7 -7 -16 -10 -8 -3 -12 -2 -9 4 6 10 25 14 25 6z m20 -26 c0 -5 -2 -10 -4
-10 -3 0 -8 5 -11 10 -3 6 -1 10 4 10 6 0 11 -4 11 -10z m2450 -14 c0 -2 -8
-10 -17 -17 -16 -13 -17 -12 -4 4 13 16 21 21 21 13z m-1610 -67 c0 -14 -17
-10 -23 5 -4 10 -1 13 9 9 7 -3 14 -9 14 -14z m79 8 c-2 -1 -12 -9 -22 -16
-15 -12 -17 -12 -11 3 3 9 13 16 22 16 8 0 13 -1 11 -3z m68 -24 c-4 9 -2 17
4 17 7 0 9 -10 4 -27 -5 -23 -4 -25 9 -14 9 8 16 9 16 5 0 -5 -9 -15 -21 -22
-12 -8 -19 -9 -15 -4 8 13 -24 53 -36 46 -7 -5 -8 -2 -4 5 6 9 13 8 29 -6 19
-17 20 -17 14 0z m1133 13 c0 -2 -8 -10 -17 -17 -16 -13 -17 -12 -4 4 13 16
21 21 21 13z m316 -22 c1 -9 0 -13 -4 -10 -3 4 -7 14 -8 22 -1 9 0 13 4 10 3
-4 7 -14 8 -22z m-1362 -17 c4 4 4 -1 0 -11 -6 -15 -4 -17 6 -11 9 5 11 4 6
-4 -4 -6 -11 -9 -16 -6 -5 3 -12 -4 -15 -16 -4 -11 -9 -18 -12 -16 -2 3 1 15
7 27 9 17 8 25 -4 39 -9 10 -16 21 -16 26 0 4 8 -2 19 -13 10 -12 21 -18 25
-15z m-111 -1 c4 -10 1 -13 -9 -9 -7 3 -14 -1 -14 -8 0 -7 -2 -10 -5 -7 -7 7
5 38 15 38 4 0 10 -7 13 -14z m77 -15 c0 -5 -7 -12 -16 -15 -14 -5 -15 -4 -4
9 14 17 20 19 20 6z m-270 -5 c0 -2 -7 -7 -16 -10 -8 -3 -12 -2 -9 4 6 10 25
14 25 6z m-1080 -10 c0 -2 -8 -10 -17 -17 -16 -13 -17 -12 -4 4 13 16 21 21
21 13z m1090 -23 c1 -16 2 -16 15 1 8 11 15 14 15 8 0 -7 5 -12 11 -12 5 0 7
5 4 10 -3 6 -1 10 5 10 17 0 6 -25 -11 -25 -8 0 -19 -4 -26 -8 -7 -5 -16 1
-23 13 -7 13 -7 20 0 20 5 0 10 -8 10 -17z m309 4 c-9 -7 -14 -19 -11 -27 4
-12 2 -13 -9 -2 -12 11 -11 16 5 28 24 17 38 18 15 1z m1347 -7 c0 -12 -4 -16
-9 -11 -5 5 -6 14 -3 20 10 15 12 14 12 -9z m-2348 -10 c-7 -10 -14 -17 -17
-15 -4 4 18 35 25 35 2 0 -1 -9 -8 -20z m-88 -10 c0 -5 -5 -10 -11 -10 -5 0
-7 5 -4 10 3 6 8 10 11 10 2 0 4 -4 4 -10z m1021 -45 c9 -17 8 -17 -9 2 -11
12 -23 19 -26 15 -4 -3 -4 2 0 12 7 19 13 14 35 -29z m38 31 c9 -10 7 -17 -6
-27 -16 -12 -17 -12 -6 2 13 16 8 29 -9 29 -5 0 -6 -5 -2 -12 4 -7 3 -8 -4 -4
-7 4 -12 11 -12 17 0 14 26 11 39 -5z m-769 -6 c18 -12 2 -12 -25 0 -13 6 -15
9 -5 9 8 0 22 -4 30 -9z m690 -38 c0 -15 -2 -15 -10 -2 -13 20 -13 33 0 25 6
-3 10 -14 10 -23z m25 -2 c3 -5 1 -10 -4 -10 -6 0 -11 5 -11 10 0 6 2 10 4 10
3 0 8 -4 11 -10z m-620 -42 c16 -98 19 -115 19 -150 0 -21 3 -38 6 -38 3 0 7
-11 8 -26 1 -16 -2 -23 -9 -18 -6 3 -3 -5 6 -20 14 -20 14 -26 4 -26 -9 0 -10
-3 -4 -8 6 -4 11 -23 10 -42 0 -19 2 -39 4 -45 9 -17 8 -55 -1 -55 -4 0 -8 -5
-8 -11 0 -5 4 -8 9 -5 5 4 8 -2 7 -11 -2 -10 12 -36 30 -57 19 -22 34 -43 34
-48 0 -4 12 -8 26 -8 16 0 23 -4 18 -11 -4 -8 0 -8 15 0 16 9 21 9 21 0 0 -6
6 -9 14 -6 8 3 17 3 20 -1 4 -3 12 -7 19 -8 106 -22 147 -36 140 -48 -4 -6 0
-5 9 2 12 10 18 10 23 1 5 -7 21 3 46 30 22 23 43 42 49 42 5 1 16 2 23 3 28
5 100 -24 116 -46 23 -32 34 -61 19 -52 -7 5 -8 3 -3 -7 13 -20 13 -49 1 -49
-7 0 -6 -3 1 -8 10 -6 9 -13 -3 -30 -8 -12 -20 -20 -25 -17 -5 4 -9 2 -9 -3 0
-5 -8 -12 -17 -16 -10 -3 -24 -9 -32 -12 -8 -4 -11 -2 -7 4 3 6 3 12 -1 15 -5
2 -3 3 4 1 6 -1 13 6 16 17 6 21 -8 27 -16 7 -3 -7 -6 -3 -6 10 -1 14 -5 20
-12 17 -6 -4 -8 -14 -5 -22 4 -11 2 -13 -9 -9 -8 3 -15 1 -15 -5 0 -6 -6 -7
-12 -3 -7 4 -10 4 -6 0 8 -10 -23 -41 -62 -61 -28 -15 -32 -14 -51 4 -12 11
-28 17 -36 14 -7 -3 -11 -8 -8 -11 2 -3 -7 -20 -21 -39 -14 -18 -22 -33 -19
-33 3 0 -22 -25 -55 -55 -58 -51 -126 -86 -197 -100 -65 -14 -79 -16 -95 -18
-9 -1 -15 -3 -13 -6 6 -5 -35 -41 -48 -41 -6 0 -7 -3 -4 -7 7 -7 -71 -68 -88
-68 -16 0 -46 35 -40 45 4 6 -1 12 -9 15 -55 17 -53 15 -33 26 9 6 22 7 29 3
6 -4 8 -3 4 4 -7 11 51 77 68 77 5 0 10 9 11 21 2 32 28 61 50 58 16 -3 192
-5 278 -3 9 0 17 5 17 11 0 6 3 8 7 4 4 -3 20 15 36 40 21 34 29 59 28 88 -2
70 -5 86 -14 86 -4 0 -6 3 -4 8 3 4 -1 13 -9 20 -8 7 -14 9 -14 5 0 -4 -5 -2
-12 5 -7 7 -17 8 -30 1 -13 -7 -18 -6 -18 2 0 8 -4 8 -13 1 -8 -7 -18 -7 -27
-2 -8 6 -10 10 -4 10 20 0 35 48 22 69 -13 22 -86 71 -105 71 -7 0 -13 5 -13
11 0 5 -4 8 -9 5 -4 -3 -29 17 -55 44 -26 28 -44 50 -39 50 4 0 3 4 -2 8 -18
12 -42 87 -41 128 1 39 1 39 45 42 41 3 43 2 30 -15 -12 -16 -11 -15 9 1 12
11 22 25 22 33 0 8 5 11 12 7 7 -5 8 -3 2 7 -4 8 -9 61 -9 120 -1 58 -5 111
-9 117 -4 7 -3 12 2 12 5 0 13 -19 17 -42z m579 10 c4 7 12 12 19 12 6 0 1 -7
-12 -16 -19 -14 -25 -14 -32 -3 -14 22 -10 35 4 14 10 -12 16 -14 21 -7z m18
-27 c-12 -10 -18 -22 -14 -26 4 -4 -3 -2 -15 4 -27 14 -29 5 -5 -22 10 -13 11
-17 3 -12 -11 6 -13 4 -8 -9 5 -13 3 -15 -12 -7 -10 6 -20 8 -23 6 -3 -3 -5 2
-5 10 0 11 4 12 13 4 8 -7 14 -7 19 1 3 5 1 10 -6 10 -6 0 -9 8 -6 20 3 11 0
20 -6 20 -6 0 -7 3 -4 6 4 4 14 1 22 -6 13 -11 19 -11 33 3 9 10 21 17 26 17
5 0 -1 -8 -12 -19z m-19 -96 c21 4 23 -11 1 -19 -8 -3 -12 -11 -8 -17 4 -8 3
-9 -5 -5 -6 4 -9 11 -6 16 7 12 -30 32 -40 22 -5 -4 -5 -1 -1 6 5 8 13 9 24 3
9 -4 25 -7 35 -6z m-1188 -13 c-3 -3 -11 0 -18 7 -9 10 -8 11 6 5 10 -3 15 -9
12 -12z m1215 -27 c7 -9 8 -15 2 -15 -5 0 -12 7 -16 15 -3 8 -4 15 -2 15 2 0
9 -7 16 -15z m92 -100 c-8 -16 -9 -16 -15 -1 -4 10 -3 15 3 11 6 -3 10 -1 10
6 0 7 3 10 6 6 3 -3 2 -13 -4 -22z m658 -100 c5 3 7 -4 5 -15 -2 -11 0 -20 5
-20 4 0 10 -7 14 -15 4 -13 2 -13 -14 -5 -10 6 -23 18 -28 26 -6 11 -11 13
-16 5 -4 -6 -2 -11 4 -11 6 0 8 -5 4 -11 -4 -8 -9 -7 -15 2 -5 8 -9 9 -9 4 0
-6 6 -17 13 -25 9 -11 8 -11 -8 0 -19 14 -19 14 -5 -5 14 -19 14 -19 -5 -5
-13 9 -16 10 -8 1 6 -7 9 -20 6 -28 -3 -8 0 -13 8 -11 8 2 13 -3 11 -10 -1 -9
2 -11 10 -6 7 4 5 -2 -5 -14 -11 -12 -16 -26 -11 -33 5 -8 3 -10 -6 -4 -9 6
-11 4 -5 -4 6 -10 3 -11 -14 -2 -24 13 -28 23 -6 15 17 -7 21 11 5 21 -8 5 -7
11 1 21 11 13 3 19 -23 15 -14 -1 0 30 28 65 16 20 33 44 38 53 7 11 11 12 14
3 2 -7 8 -10 12 -7z m25 -92 c-2 -7 0 -15 6 -18 5 -4 7 -11 4 -16 -4 -5 -2 -9
4 -9 5 0 8 -8 7 -17 -2 -10 0 -25 4 -33 21 -44 29 -84 19 -91 -7 -4 -8 -12 -4
-19 5 -8 4 -11 -3 -6 -6 3 -13 2 -17 -4 -3 -5 -1 -10 6 -10 7 0 2 -8 -9 -19
-12 -10 -19 -21 -16 -24 3 -3 1 -12 -5 -19 -48 -58 -59 -76 -53 -83 4 -5 2 -5
-4 -2 -7 4 -20 -5 -30 -21 -30 -47 -55 -64 -72 -49 -13 10 -14 9 -4 -9 9 -17
9 -24 -2 -33 -7 -6 -16 -8 -20 -4 -4 4 -9 -3 -13 -15 -3 -12 -9 -19 -14 -16
-5 3 -7 9 -5 12 2 4 -4 19 -14 32 -16 21 -21 23 -32 12 -11 -11 -10 -16 5 -27
13 -9 14 -14 6 -17 -9 -3 -7 -7 5 -11 11 -5 15 -3 10 5 -4 7 -3 8 4 4 18 -11
14 -24 -10 -32 -37 -12 -49 -13 -42 -2 4 6 -1 8 -15 3 -19 -6 -21 -3 -17 19 3
14 1 28 -4 31 -5 3 -7 -3 -5 -15 2 -11 -1 -22 -6 -26 -7 -4 -9 5 -6 24 4 24
-1 36 -24 57 -18 15 -35 23 -42 18 -18 -11 -36 -12 -43 -2 -3 5 -11 6 -17 2
-9 -5 -9 -3 -1 8 5 8 9 24 8 37 0 12 3 22 8 22 5 0 7 -9 3 -19 -3 -11 -1 -22
4 -26 7 -3 8 0 5 9 -3 9 -1 16 6 16 6 0 8 5 4 12 -4 6 -3 8 3 5 6 -4 16 0 23
8 10 12 15 10 36 -14 26 -31 55 -43 74 -31 15 9 13 18 -13 54 -17 24 -18 28
-5 23 9 -3 22 1 28 8 7 8 16 13 20 10 10 -6 75 74 66 82 -3 3 -16 -2 -28 -13
-13 -10 -17 -12 -11 -4 10 10 10 17 1 27 -6 8 -7 13 -2 12 18 -3 37 1 31 7 -3
4 5 21 19 39 18 24 32 32 50 30 14 -1 28 4 34 14 4 9 12 13 16 9 10 -11 34 11
28 26 -3 7 2 19 11 26 14 12 14 15 -1 31 -10 11 -13 23 -8 31 5 7 9 16 10 21
1 4 2 9 3 12 0 3 12 -2 26 -12 13 -10 23 -23 20 -30z m-1880 -153 c-3 -4 2
-10 10 -13 10 -4 12 -1 8 10 -5 12 -2 15 9 10 9 -3 26 2 39 10 13 9 21 13 17
8 -4 -4 0 -14 9 -21 15 -10 20 -9 30 6 13 18 53 24 53 7 0 -4 4 -5 10 -2 5 3
15 -5 22 -19 6 -14 16 -26 22 -26 6 0 5 5 -2 12 -22 22 -15 37 13 25 14 -7 25
-16 25 -20 0 -5 5 -5 10 -2 6 3 16 3 23 -2 6 -4 19 -9 27 -11 27 -5 45 -10 45
-13 0 -1 32 -7 62 -11 7 -1 10 -4 8 -8 -2 -4 12 -7 33 -8 73 -1 180 -22 114
-22 -11 0 -24 -5 -27 -10 -4 -6 -10 -8 -15 -5 -5 3 -11 1 -14 -4 -4 -5 -17 -8
-31 -5 -13 2 -27 -1 -30 -7 -5 -6 -20 3 -40 25 -30 33 -57 47 -54 29 3 -21 -2
-33 -12 -28 -6 4 -8 13 -5 20 3 8 -3 19 -12 27 -16 12 -16 11 -2 -6 9 -12 10
-17 3 -12 -9 5 -11 2 -7 -8 7 -18 -11 -22 -21 -6 -4 6 -15 8 -25 5 -10 -3 -21
-1 -25 5 -3 6 -11 8 -16 5 -5 -4 -17 -1 -26 5 -15 9 -14 10 7 5 l25 -6 -25 15
c-21 12 -25 13 -28 0 -2 -7 -14 -13 -27 -12 -15 2 -21 7 -17 17 4 10 2 12 -9
5 -23 -14 -62 -12 -86 4 -13 8 -21 17 -18 21 2 4 -2 8 -10 8 -10 0 -11 -5 -4
-18 11 -22 12 -39 0 -20 -7 10 -13 11 -30 1 -16 -8 -26 -8 -35 -1 -7 6 -15 8
-18 5 -3 -3 -9 -1 -12 5 -4 6 2 8 14 6 15 -3 19 1 17 15 -4 25 -17 38 -17 17
0 -9 -4 -17 -10 -17 -5 0 -6 7 -3 17 5 12 3 14 -8 8 -11 -7 -12 -6 -2 6 14 17
14 28 1 54 -5 11 8 0 31 -24 22 -24 39 -47 36 -51z m119 25 c-7 -16 -24 -21
-24 -6 0 8 7 13 27 20 1 1 0 -6 -3 -14z m295 -119 c11 -14 6 -15 -27 -7 -4 1
8 21 12 21 2 0 9 -6 15 -14z m630 -103 c-12 -15 -12 -16 6 -9 17 6 17 4 -4
-18 -24 -25 -17 -38 7 -14 6 6 19 13 27 14 12 2 13 -2 4 -17 -5 -11 -8 -23 -5
-27 3 -4 1 -14 -4 -22 -5 -8 -5 -21 1 -31 6 -12 4 -22 -7 -33 -8 -9 -11 -16
-6 -16 22 0 21 -31 -2 -51 -18 -15 -23 -29 -21 -57 2 -20 1 -31 -2 -24 -8 21
-20 13 -20 -13 0 -25 11 -34 20 -15 3 6 4 5 3 -2 -2 -7 -9 -13 -17 -13 -10 0
-14 14 -15 50 0 28 1 44 3 38 8 -22 21 -14 21 12 0 25 -12 34 -21 15 -3 -6 -4
-5 -3 2 2 7 13 12 26 10 19 -2 21 0 10 13 -9 10 -9 15 -1 15 6 0 11 -5 11 -11
0 -5 5 -7 10 -4 16 10 -10 37 -29 30 -11 -3 -10 0 3 10 23 18 28 49 11 72 -10
14 -9 20 9 34 11 10 19 20 16 22 -3 3 -16 -3 -29 -14 -21 -17 -22 -23 -12 -45
6 -15 7 -23 1 -19 -5 3 -10 4 -10 1 0 -2 -3 -13 -7 -23 -6 -16 -5 -16 10 -4 9
7 17 9 17 3 0 -17 -28 -22 -41 -6 -6 8 -14 12 -17 9 -3 -3 3 -14 13 -25 17
-19 12 -26 -17 -21 -5 0 -8 -6 -8 -14 0 -17 16 -20 25 -5 3 6 10 10 16 10 5 0
-1 -10 -12 -21 -17 -17 -23 -19 -30 -8 -12 18 -6 45 9 42 7 -2 12 0 12 3 0 10
-41 64 -48 64 -11 0 -31 -50 -26 -64 3 -7 -3 -19 -13 -27 -17 -13 -17 -13 -3
5 11 14 12 20 3 23 -8 3 -6 14 8 37 10 17 17 42 14 54 -5 28 52 63 66 40 5 -7
9 -17 9 -23 -1 -5 -5 -2 -11 7 -8 14 -14 15 -33 7 -25 -12 -28 -31 -7 -52 11
-10 12 -8 7 9 -5 15 -2 24 10 28 14 5 15 4 5 -8 -9 -11 -7 -13 14 -13 14 0 25
5 26 11 0 6 2 19 4 29 2 9 -1 17 -6 17 -5 0 -9 5 -9 11 0 8 5 7 16 -2 13 -11
15 -11 14 2 -4 26 0 39 11 39 8 0 7 -6 -2 -17z m599 -133 c12 -19 11 -20 -8
-8 -20 13 -27 28 -12 28 4 0 13 -9 20 -20z m-692 -55 c-18 -27 -21 -39 -7 -31
5 3 12 -1 15 -9 4 -13 2 -13 -14 -5 -25 14 -30 13 -24 -5 4 -8 10 -12 15 -9 5
3 6 -3 2 -13 -6 -16 -5 -16 10 -4 10 7 17 9 17 3 0 -6 -6 -13 -12 -16 -10 -5
-10 -7 0 -12 6 -3 12 -10 12 -16 0 -6 -6 -6 -15 2 -16 14 -18 10 -9 -14 3 -9
11 -13 18 -9 6 4 3 -5 -7 -20 -20 -31 -5 -37 17 -6 l14 21 21 -21 c12 -12 17
-21 13 -21 -4 0 -13 5 -20 12 -9 10 -16 8 -30 -6 -16 -17 -16 -18 3 -12 28 8
51 -7 33 -21 -7 -6 -20 -10 -28 -10 -8 0 -19 -2 -25 -3 -23 -6 -31 2 -33 30
-1 18 2 29 9 28 6 -2 14 3 16 10 3 6 -1 10 -9 9 -7 -2 -10 -2 -5 0 4 3 7 9 7
14 0 6 -4 7 -10 4 -13 -8 -13 8 0 21 12 12 2 47 -11 38 -5 -3 -6 3 -2 12 5 13
3 15 -8 9 -8 -5 -3 4 10 18 13 14 25 36 26 49 4 41 5 43 16 25 8 -13 7 -24 -5
-42z m127 -57 c-6 -7 -9 -21 -8 -30 2 -10 -1 -18 -5 -18 -12 0 -8 43 5 52 15
11 19 9 8 -4z m-83 -8 c0 -5 -4 -10 -10 -10 -5 0 -10 5 -10 10 0 6 5 10 10 10
6 0 10 -4 10 -10z m0 -30 c0 -5 -4 -10 -10 -10 -5 0 -10 5 -10 10 0 6 5 10 10
10 6 0 10 -4 10 -10z m387 -24 c0 -8 -6 -12 -15 -9 -11 5 -11 7 0 14 7 5 13 9
14 9 0 0 1 -6 1 -14z m-387 -6 c0 -5 -4 -10 -10 -10 -5 0 -10 5 -10 10 0 6 5
10 10 10 6 0 10 -4 10 -10z m80 6 c0 -3 -4 -8 -10 -11 -5 -3 -10 -1 -10 4 0 6
5 11 10 11 6 0 10 -2 10 -4z m334 -21 c3 -8 1 -15 -4 -15 -6 0 -10 7 -10 15 0
8 2 15 4 15 2 0 6 -7 10 -15z m-50 -7 c-5 -7 -2 -9 8 -5 12 4 14 1 11 -13 -3
-10 1 -21 8 -26 8 -5 11 -3 7 8 -4 10 1 14 22 14 24 0 27 -2 20 -17 -11 -20 7
-39 39 -42 15 -1 17 -4 9 -14 -6 -8 -8 -17 -4 -20 4 -4 12 -1 17 7 9 13 10 13
6 0 -5 -21 -32 -19 -30 3 0 11 -4 16 -11 14 -7 -3 -18 4 -25 15 -16 26 -36 9
-36 -30 0 -16 -5 -26 -12 -24 -17 3 -16 -1 8 -42 20 -35 17 -42 -13 -37 -5 0
-8 -3 -8 -7 0 -17 13 -21 31 -9 14 9 21 9 31 -1 22 -22 32 -13 11 11 -34 37
-45 65 -33 86 5 11 7 27 3 37 -4 12 -3 15 5 10 7 -4 11 -24 11 -44 -3 -65 0
-72 22 -69 12 1 24 -5 26 -13 4 -13 3 -13 -6 0 -5 8 -13 11 -17 7 -7 -7 13
-37 26 -37 4 0 10 9 13 20 5 21 -28 54 -45 44 -4 -3 -8 0 -8 6 0 7 7 10 15 7
8 -4 17 -2 20 2 2 5 -4 11 -15 14 -11 3 -20 11 -20 19 0 10 2 11 9 0 4 -7 17
-14 29 -15 11 0 19 -4 16 -8 -2 -4 3 -12 11 -19 12 -10 19 -10 33 1 9 7 14 9
10 5 -4 -5 0 -15 10 -22 9 -8 12 -14 5 -14 -6 0 -15 4 -18 10 -3 6 -15 1 -28
-10 -18 -17 -20 -24 -9 -40 7 -11 12 -23 12 -27 0 -5 -5 -1 -10 7 -15 25 -70
15 -70 -12 0 -7 4 -7 13 -1 15 12 48 13 41 1 -6 -10 30 -11 39 -1 4 3 0 16 -8
29 -13 20 -12 23 1 28 9 3 20 3 25 0 6 -3 17 0 25 7 13 10 13 14 -1 29 -13 14
-13 17 -1 17 8 0 14 -5 13 -11 -1 -6 4 -10 12 -8 12 3 12 0 1 -12 -8 -10 -8
-16 -2 -16 6 0 16 8 21 18 6 9 11 12 11 5 0 -6 -4 -15 -10 -18 -5 -3 -10 -11
-10 -17 0 -6 9 -3 20 7 11 10 20 13 20 7 0 -7 -4 -12 -10 -12 -5 0 -10 -4 -10
-10 0 -5 13 -8 29 -6 17 2 28 -1 27 -8 -6 -33 -19 -57 -29 -53 -15 5 -22 37
-8 37 6 0 8 -8 5 -17 -5 -16 -3 -15 10 1 19 23 17 26 -21 32 -46 8 -66 6 -76
-8 -6 -9 -7 -8 -3 5 4 12 2 17 -6 15 -17 -6 -17 -46 1 -61 12 -10 14 -9 8 5
-4 13 -2 15 10 11 10 -4 14 -2 9 5 -3 6 -2 13 3 16 14 9 37 -3 39 -19 1 -8 3
-22 4 -30 1 -8 14 -20 30 -27 15 -7 28 -17 28 -22 0 -4 6 -3 14 3 10 9 15 8
19 -3 4 -11 1 -13 -11 -9 -15 6 -16 5 -2 -13 13 -17 12 -17 -10 2 -34 28 -100
67 -100 59 0 -4 -7 -2 -15 5 -8 7 -15 9 -15 5 0 -5 -8 -2 -17 6 -13 11 -43 15
-105 14 -48 -1 -83 2 -77 6 8 4 5 11 -7 19 -18 11 -18 11 -1 6 12 -4 17 -2 14
6 -2 7 -13 11 -23 10 -27 -5 -29 -9 -14 -27 8 -9 9 -19 4 -23 -32 -27 -91 -67
-99 -67 -5 -1 -8 -7 -7 -15 2 -8 0 -12 -4 -8 -4 5 -14 -1 -22 -13 -12 -17 -16
-18 -30 -7 -13 11 -15 11 -10 -2 4 -11 0 -16 -13 -16 -17 0 -17 2 -2 18 16 18
5 26 -13 8 -6 -6 -14 -3 -22 10 -7 11 -8 20 -3 20 5 0 11 -6 14 -12 3 -10 10
-8 23 5 17 16 17 18 2 15 -9 -2 -17 2 -17 7 0 6 6 9 13 7 7 -1 20 5 27 14 12
15 11 16 -11 11 -14 -4 -19 -4 -11 -1 11 5 11 8 0 16 -10 7 -8 8 6 3 29 -11
57 -8 68 7 6 9 7 8 3 -5 -4 -12 -2 -17 6 -14 15 5 11 39 -5 49 -9 6 -9 8 0 8
7 0 21 -16 30 -35 14 -26 21 -32 33 -25 10 6 11 10 3 10 -15 0 -47 57 -49 85
-1 11 -5 29 -9 40 -5 16 -5 17 4 5 5 -8 13 -11 17 -7 10 10 -17 39 -32 33 -7
-3 -16 0 -20 6 -5 7 -2 8 6 3 10 -6 12 -4 6 11 -6 15 -3 14 18 -5 26 -24 38
-17 14 7 -10 10 -10 15 2 22 8 5 20 10 25 10 6 -1 2 -5 -8 -11 -9 -6 -15 -14
-12 -20 9 -14 27 -11 19 4 -4 6 2 4 14 -6 11 -11 27 -16 34 -12 7 4 2 -2 -10
-12 -22 -18 -23 -21 -7 -36 22 -22 30 -21 32 4 2 17 -1 18 -13 9 -8 -8 -14 -8
-14 -2 0 17 28 22 41 6 6 -8 14 -12 17 -9 3 3 -3 14 -13 25 -17 19 -12 26 18
21 10 -1 9 27 -2 33 -5 3 -11 -1 -14 -8 -9 -22 -63 -15 -59 7 2 10 -4 17 -13
17 -8 0 -15 5 -15 10 0 7 7 7 21 0 12 -7 18 -18 15 -26 -3 -8 -1 -14 3 -14 22
0 19 31 -4 46 -14 9 -22 21 -19 26 4 6 16 -2 28 -17 19 -24 23 -25 35 -12 9
12 10 21 1 36 -15 29 -23 26 -16 -5 4 -15 3 -23 -2 -20 -5 3 -12 17 -14 31 -3
13 -2 22 3 20 4 -3 10 -1 14 5 3 5 8 10 11 10 3 0 2 -5 -2 -12z m-1224 -8 c0
-5 -5 -10 -11 -10 -5 0 -7 5 -4 10 3 6 8 10 11 10 2 0 4 -4 4 -10z m930 -5
c-6 -8 -9 -19 -5 -24 3 -7 0 -8 -9 -5 -12 5 -13 9 -3 25 6 10 16 19 21 19 4 0
3 -7 -4 -15z m-812 -20 c-3 -3 -9 2 -12 12 -6 14 -5 15 5 6 7 -7 10 -15 7 -18z
m-54 3 c-4 -5 -9 -7 -12 -4 -3 3 -12 0 -21 -7 -14 -10 -14 -10 -4 4 13 16 46
23 37 7z m1271 -37 c-6 -5 -25 10 -25 20 0 5 6 4 14 -3 8 -7 12 -15 11 -17z
m-405 -7 c0 -2 -9 0 -20 6 -11 6 -20 13 -20 16 0 2 9 0 20 -6 11 -6 20 -13 20
-16z m-890 -41 c0 -4 -5 0 -11 10 -6 9 -14 15 -18 13 -4 -3 -8 4 -8 15 -2 18
0 18 18 -4 10 -14 19 -29 19 -34z m870 25 c0 -6 -6 -5 -15 2 -22 18 -20 -5 3
-28 25 -26 24 -51 -2 -46 -11 1 -30 4 -40 6 -10 2 -21 -3 -23 -10 -3 -8 1 -10
12 -5 12 4 24 -2 36 -18 24 -31 24 -44 1 -21 -11 9 -17 20 -15 25 2 4 -3 7
-11 7 -22 0 -20 -17 3 -31 17 -11 17 -14 2 -40 -17 -31 -38 -41 -22 -10 10 18
6 31 -11 31 -5 0 -7 -4 -4 -9 8 -12 -4 -41 -16 -41 -6 0 -5 7 2 16 11 12 10
18 -5 32 -17 16 -17 16 -11 -1 3 -10 1 -27 -4 -38 -7 -13 -7 -19 0 -19 18 0
11 -25 -11 -38 -17 -11 -20 -11 -13 0 8 12 12 34 17 98 1 14 6 31 10 38 5 7 4
12 -3 12 -8 0 -8 6 0 20 6 11 7 20 2 20 -4 0 -8 9 -8 20 0 11 4 20 8 20 4 0 8
-9 8 -20 0 -11 6 -20 13 -20 9 0 8 -3 -2 -9 -8 -5 -11 -16 -6 -30 4 -14 2 -21
-6 -21 -7 0 -10 -3 -6 -6 3 -3 9 -6 14 -5 4 0 18 -7 31 -15 29 -19 29 0 0 20
-12 9 -19 16 -14 16 5 0 3 6 -3 14 -9 11 -9 15 0 18 14 5 22 58 9 58 -5 0 -11
-8 -14 -17 -4 -14 -4 -13 -3 2 2 14 9 19 24 18 12 -1 26 4 33 12 12 15 40 10
40 -7z m-1372 -23 c-3 -3 -9 2 -12 12 -6 14 -5 15 5 6 7 -7 10 -15 7 -18z
m1383 2 c-10 -9 -11 -8 -5 6 3 10 9 15 12 12 3 -3 0 -11 -7 -18z m-1346 3 c3
-5 1 -10 -4 -10 -6 0 -11 5 -11 10 0 6 2 10 4 10 3 0 8 -4 11 -10z m405 -14
c0 -3 -4 -8 -10 -11 -5 -3 -10 -1 -10 4 0 6 5 11 10 11 6 0 10 -2 10 -4z m40
-2 c0 -8 -19 -13 -24 -6 -3 5 1 9 9 9 8 0 15 -2 15 -3z m1374 -19 c3 -8 1 -15
-4 -15 -6 0 -10 7 -10 15 0 8 2 15 4 15 2 0 6 -7 10 -15z m-1803 -12 c13 -16
12 -17 -3 -4 -10 7 -18 15 -18 17 0 8 8 3 21 -13z m43 -43 c-6 -6 -10 -3 -10
10 0 13 4 16 10 10 7 -7 7 -13 0 -20z m-80 4 c3 -8 2 -12 -4 -9 -6 3 -10 10
-10 16 0 14 7 11 14 -7z m1360 0 c3 -8 2 -12 -4 -9 -6 3 -10 10 -10 16 0 14 7
11 14 -7z m-1244 -8 c0 -2 -8 -10 -17 -17 -16 -13 -17 -12 -4 4 13 16 21 21
21 13z m295 -43 c-18 -17 -18 -17 -6 0 11 14 11 20 0 35 -12 16 -12 16 6 0 19
-18 19 -18 0 -35z m-430 17 c3 -5 1 -10 -4 -10 -6 0 -11 5 -11 10 0 6 2 10 4
10 3 0 8 -4 11 -10z m75 6 c0 -2 -8 -10 -17 -17 -16 -13 -17 -12 -4 4 13 16
21 21 21 13z m410 -2 c0 -8 -19 -13 -24 -6 -3 5 1 9 9 9 8 0 15 -2 15 -3z
m1090 -6 c0 -4 -7 -8 -16 -8 -11 0 -13 -6 -9 -19 7 -24 -9 -35 -32 -22 -11 6
-13 11 -5 11 7 0 10 5 6 12 -4 6 -3 8 4 4 6 -3 13 2 16 12 6 18 36 27 36 10z
m-210 -19 c0 -5 -4 -7 -10 -4 -5 3 -10 0 -10 -9 0 -8 3 -16 8 -19 4 -2 1 -2
-5 -1 -15 4 -15 2 -7 -20 3 -9 11 -13 18 -9 6 3 8 2 3 -2 -4 -5 -16 -9 -27
-10 -14 -1 -17 2 -10 10 8 9 4 13 -15 13 -27 0 -34 -17 -22 -58 2 -8 2 -12 0
-7 -9 16 -20 6 -20 -18 0 -25 11 -34 20 -15 3 6 4 5 3 -2 -2 -7 -13 -12 -26
-10 -20 2 -21 0 -9 -14 13 -16 12 -16 -9 -3 -20 12 -24 12 -32 -1 -7 -11 -9
-10 -7 8 0 12 5 22 9 22 4 0 5 9 3 20 -3 13 5 25 25 37 16 9 31 25 34 35 2 12
12 18 22 16 12 -2 23 7 32 25 13 27 32 37 32 16z m-1340 -3 c0 -2 -8 -10 -17
-17 -16 -13 -17 -12 -4 4 13 16 21 21 21 13z m433 -11 c-3 -9 -8 -14 -10 -11
-3 3 -2 9 2 15 9 16 15 13 8 -4z m-473 1 c0 -3 -4 -8 -10 -11 -5 -3 -10 -1
-10 4 0 6 5 11 10 11 6 0 10 -2 10 -4z m100 -2 c0 -8 -19 -13 -24 -6 -3 5 1 9
9 9 8 0 15 -2 15 -3z m65 -4 c-3 -5 -12 -10 -18 -10 -7 0 -6 4 3 10 19 12 23
12 15 0z m1892 -2 c-2 -7 2 -21 11 -30 8 -10 11 -19 6 -19 -40 -6 -55 -5 -61
4 -3 6 -1 7 4 4 6 -4 16 7 23 23 12 29 27 44 17 18z m-1997 -16 c0 -5 -7 -9
-15 -9 -8 0 -12 4 -9 9 3 4 9 8 15 8 5 0 9 -4 9 -8z m85 -22 c3 -6 -1 -7 -9
-4 -18 7 -21 14 -7 14 6 0 13 -4 16 -10z m35 6 c0 -3 -4 -8 -10 -11 -5 -3 -10
-1 -10 4 0 6 5 11 10 11 6 0 10 -2 10 -4z m-79 -23 c13 -16 12 -17 -3 -4 -17
13 -22 21 -14 21 2 0 10 -8 17 -17z m1227 -19 c6 -12 7 -26 2 -34 -7 -12 -9
-10 -8 5 0 11 -3 29 -7 40 -10 24 -2 18 13 -11z m-1244 -3 c-3 -4 -7 -4 -9 -1
-1 3 -13 -4 -26 -15 -13 -11 -18 -13 -11 -4 6 9 10 18 7 20 -2 3 7 5 20 5 13
0 22 -2 19 -5z m1272 -18 c-1 -18 4 -28 13 -28 8 0 15 -8 17 -18 2 -18 2 -18
-17 -1 -18 16 -20 16 -39 -1 -26 -23 -26 -15 0 15 12 14 18 31 14 42 -3 10 -1
18 4 18 5 0 9 -12 8 -27z m-921 -22 c-3 -6 -11 -11 -16 -11 -5 0 -4 6 3 14 14
16 24 13 13 -3z m-364 -8 c13 -16 12 -17 -3 -4 -10 7 -18 15 -18 17 0 8 8 3
21 -13z m49 8 c0 -6 -4 -12 -8 -15 -5 -3 -9 1 -9 9 0 8 4 15 9 15 4 0 8 -4 8
-9z m1353 -31 c-3 -3 -8 1 -10 8 -3 6 -12 12 -21 12 -14 0 -15 2 -3 9 10 7 19
4 27 -7 7 -9 10 -19 7 -22z m-1553 10 c0 -5 -5 -10 -11 -10 -5 0 -7 5 -4 10 3
6 8 10 11 10 2 0 4 -4 4 -10z m1506 -8 c1 -7 0 -8 -3 -2 -2 5 -9 8 -14 4 -5
-3 -9 0 -9 6 0 15 23 7 26 -8z m-1450 -17 c1 -8 -1 -17 -5 -19 -4 -3 -7 6 -7
19 0 25 8 25 12 0z m401 10 c0 -8 -3 -13 -5 -10 -3 3 -10 0 -17 -5 -8 -7 -12
-5 -12 5 0 8 4 12 8 9 4 -2 10 0 14 6 9 14 12 13 12 -5z m-313 -7 c-3 -4 -9
-8 -15 -8 -5 0 -9 4 -9 8 0 5 7 9 15 9 8 0 12 -4 9 -9z m-44 -2 c0 -2 -8 -10
-17 -17 -16 -13 -17 -12 -4 4 13 16 21 21 21 13z m-150 -12 c0 -8 -19 -13 -24
-6 -3 5 1 9 9 9 8 0 15 -2 15 -3z m234 -2 c2 -4 -4 -8 -14 -8 -10 0 -16 4 -14
8 3 4 9 8 14 8 5 0 11 -4 14 -8z m71 -42 c2 -12 1 -20 -2 -16 -4 4 -8 16 -10
28 -4 28 6 18 12 -12z m56 13 c13 -16 12 -17 -3 -4 -10 7 -18 15 -18 17 0 8 8
3 21 -13z m149 6 c0 -4 -9 -7 -19 -6 -11 0 -18 4 -16 7 6 9 35 8 35 -1z m-430
-12 c0 -2 -9 -12 -19 -21 -14 -13 -21 -14 -27 -5 -4 7 -3 10 3 6 6 -4 16 0 23
8 12 14 20 19 20 12z m26 -12 c-1 -8 -5 -17 -8 -21 -5 -4 -4 16 1 34 3 9 9 -1
7 -13z m44 3 c0 -4 -4 -8 -9 -8 -6 0 -12 4 -15 8 -3 5 1 9 9 9 8 0 15 -4 15
-9z m120 0 c0 -4 -4 -8 -9 -8 -6 0 -12 4 -15 8 -3 5 1 9 9 9 8 0 15 -4 15 -9z
m-4400 -2700 c0 -4 -4 -8 -9 -8 -6 0 -12 4 -15 8 -3 5 1 9 9 9 8 0 15 -4 15
-9z m-280 -234 c0 -8 -19 -13 -24 -6 -3 5 1 9 9 9 8 0 15 -2 15 -3z m211 -51
c13 -16 12 -17 -3 -4 -17 13 -22 21 -14 21 2 0 10 -8 17 -17z m-218 -708 c-3
-9 -8 -14 -10 -11 -3 3 -2 9 2 15 9 16 15 13 8 -4z m-16 -50 c0 -8 -4 -12 -9
-9 -4 3 -8 9 -8 15 0 5 4 9 8 9 5 0 9 -7 9 -15z m168 5 c-3 -5 -12 -10 -18
-10 -7 0 -6 4 3 10 19 12 23 12 15 0z m-90 -40 c3 -5 1 -10 -4 -10 -6 0 -11 5
-11 10 0 6 2 10 4 10 3 0 8 -4 11 -10z m1 -62 c4 -7 3 -10 -1 -5 -5 4 -16 0
-26 -9 -13 -12 -19 -12 -25 -3 -4 7 -3 10 3 6 6 -4 16 0 23 8 15 18 17 18 26
3z m-36 -78 c0 -5 -2 -10 -4 -10 -3 0 -8 5 -11 10 -3 6 -1 10 4 10 6 0 11 -4
11 -10z m34 -238 c3 -5 -1 -9 -9 -9 -8 0 -12 4 -9 9 3 4 7 8 9 8 2 0 6 -4 9
-8z m-9 -42 c3 -6 -1 -7 -9 -4 -18 7 -21 14 -7 14 6 0 13 -4 16 -10z"/>
<path d="M5791 8587 c-8 -10 -7 -14 2 -14 8 0 14 6 14 14 0 7 -1 13 -2 13 -2
0 -8 -6 -14 -13z"/>
<path d="M5713 8547 c0 -8 6 -14 14 -14 9 0 10 4 2 14 -6 7 -12 13 -14 13 -1
0 -2 -6 -2 -13z"/>
<path d="M5750 8526 c0 -2 7 -7 16 -10 8 -3 12 -2 9 4 -6 10 -25 14 -25 6z"/>
<path d="M5705 8500 c-3 -6 1 -7 9 -4 18 7 21 14 7 14 -6 0 -13 -4 -16 -10z"/>
<path d="M5731 8474 c0 -11 3 -14 6 -6 3 7 2 16 -1 19 -3 4 -6 -2 -5 -13z"/>
<path d="M5760 8480 c-9 -6 -10 -10 -3 -10 6 0 15 5 18 10 8 12 4 12 -15 0z"/>
<path d="M5755 8450 c-3 -6 1 -7 9 -4 18 7 21 14 7 14 -6 0 -13 -4 -16 -10z"/>
<path d="M5765 8380 c-3 -6 1 -7 9 -4 18 7 21 14 7 14 -6 0 -13 -4 -16 -10z"/>
<path d="M5680 8340 c-9 -6 -10 -10 -3 -10 6 0 15 5 18 10 8 12 4 12 -15 0z"/>
<path d="M5733 8327 c0 -8 6 -14 14 -14 9 0 10 4 2 14 -6 7 -12 13 -14 13 -1
0 -2 -6 -2 -13z"/>
<path d="M5630 8318 c0 -6 3 -8 7 -5 3 4 13 1 22 -6 14 -11 14 -10 2 6 -15 20
-31 22 -31 5z"/>
<path d="M5598 8293 c7 -3 16 -2 19 1 4 3 -2 6 -13 5 -11 0 -14 -3 -6 -6z"/>
<path d="M5560 8255 c-7 -9 -11 -17 -9 -20 3 -2 10 5 17 15 14 24 10 26 -8 5z"/>
<path d="M5613 8238 c0 -13 1 -17 4 -10 4 10 10 9 27 -5 17 -14 16 -12 -3 10
-14 15 -25 27 -26 27 0 0 -1 -10 -2 -22z"/>
<path d="M5510 8236 c0 -2 8 -10 18 -17 15 -13 16 -12 3 4 -13 16 -21 21 -21
13z"/>
<path d="M5560 8220 c-9 -6 -10 -10 -3 -10 6 0 15 5 18 10 8 12 4 12 -15 0z"/>
<path d="M5613 8193 c0 -9 4 -10 14 -2 7 6 13 12 13 14 0 1 -6 2 -13 2 -8 0
-14 -6 -14 -14z"/>
<path d="M5505 8179 c-3 -4 2 -6 10 -5 21 3 28 13 10 13 -9 0 -18 -4 -20 -8z"/>
<path d="M5548 8133 c7 -3 16 -2 19 1 4 3 -2 6 -13 5 -11 0 -14 -3 -6 -6z"/>
<path d="M5525 8099 c-4 -6 -13 -8 -19 -6 -7 3 -13 -1 -13 -9 0 -8 3 -12 5 -9
3 3 12 -1 20 -8 13 -10 14 -9 8 1 -4 7 -2 19 4 27 7 8 10 15 7 15 -3 0 -9 -5
-12 -11z"/>
<path d="M5311 8067 c-13 -21 -12 -21 5 -5 10 10 16 20 13 22 -3 3 -11 -5 -18
-17z"/>
<path d="M5341 8074 c0 -11 3 -14 6 -6 3 7 2 16 -1 19 -3 4 -6 -2 -5 -13z"/>
<path d="M5465 8079 c-4 -6 -5 -12 -2 -15 2 -3 7 2 10 11 7 17 1 20 -8 4z"/>
<path d="M5257 8063 c-9 -8 12 -33 27 -33 6 0 3 5 -7 11 -9 6 -15 14 -12 20 7
10 2 12 -8 2z"/>
<path d="M5387 8059 c7 -7 15 -10 18 -7 3 3 -2 9 -12 12 -14 6 -15 5 -6 -5z"/>
<path d="M5320 8045 c0 -2 6 -8 13 -14 10 -8 14 -7 14 2 0 8 -6 14 -14 14 -7
0 -13 -1 -13 -2z"/>
<path d="M5231 8027 c-8 -10 -7 -14 2 -14 8 0 14 6 14 14 0 7 -1 13 -2 13 -2
0 -8 -6 -14 -13z"/>
<path d="M5264 7982 c4 -3 14 -7 22 -8 9 -1 13 0 10 4 -4 3 -14 7 -22 8 -9 1
-13 0 -10 -4z"/>
<path d="M5251 7954 c0 -11 3 -14 6 -6 3 7 2 16 -1 19 -3 4 -6 -2 -5 -13z"/>
<path d="M5190 7946 c0 -2 7 -7 16 -10 8 -3 12 -2 9 4 -6 10 -25 14 -25 6z"/>
<path d="M5175 7921 c-3 -5 -2 -12 3 -15 5 -3 9 1 9 9 0 17 -3 19 -12 6z"/>
<path d="M5205 7880 c-10 -11 -14 -20 -9 -20 5 0 15 9 22 20 7 11 11 20 9 20
-2 0 -12 -9 -22 -20z"/>
<path d="M5135 7879 c-3 -4 2 -6 10 -5 21 3 28 13 10 13 -9 0 -18 -4 -20 -8z"/>
<path d="M5165 7859 c-4 -6 -14 -8 -24 -4 -13 5 -14 4 -3 -6 10 -11 15 -10 29
4 10 9 14 17 11 17 -4 0 -10 -5 -13 -11z"/>
<path d="M5119 7798 c-5 -19 -8 -50 -4 -46 7 7 15 48 9 48 -2 0 -4 -1 -5 -2z"/>
<path d="M3049 7444 c-7 -9 -6 -12 6 -10 22 3 40 23 20 23 -8 0 -20 -6 -26
-13z"/>
<path d="M3046 7392 c-2 -4 2 -16 10 -27 8 -10 14 -14 14 -8 0 7 -5 15 -10 18
-6 4 -8 11 -5 16 4 5 4 9 1 9 -3 0 -7 -3 -10 -8z"/>
<path d="M6715 6990 c3 -5 11 -10 16 -10 6 0 7 5 4 10 -3 6 -11 10 -16 10 -6
0 -7 -4 -4 -10z"/>
<path d="M6596 6601 c-3 -5 1 -11 9 -14 9 -4 12 -1 8 9 -6 16 -10 17 -17 5z"/>
<path d="M6435 5640 c-3 -5 -1 -10 4 -10 6 0 11 5 11 10 0 6 -2 10 -4 10 -3 0
-8 -4 -11 -10z"/>
<path d="M7426 5841 c-4 -5 -2 -12 3 -15 5 -4 12 -2 15 3 4 5 2 12 -3 15 -5 4
-12 2 -15 -3z"/>
<path d="M7451 5796 c-8 -10 -9 -16 -1 -21 5 -3 10 -5 11 -3 4 18 7 38 4 38
-1 0 -8 -6 -14 -14z"/>
<path d="M7493 5865 c3 -6 2 -17 -3 -25 -6 -10 -4 -20 6 -31 13 -14 13 -18 -1
-29 -14 -12 -14 -15 2 -33 16 -18 16 -20 1 -14 -9 3 -22 -1 -29 -9 -6 -8 -14
-12 -17 -9 -3 3 -12 -1 -20 -8 -8 -6 -26 -12 -39 -12 -12 -1 -24 -5 -24 -10
-1 -6 -10 -16 -19 -22 -19 -13 -20 -28 -6 -51 5 -8 1 -21 -10 -33 -9 -10 -14
-19 -9 -19 8 0 -46 -45 -55 -45 -21 -1 -34 -35 -20 -52 2 -2 3 -9 4 -15 1 -7
7 -12 14 -11 6 2 9 -3 6 -10 -9 -24 -71 -14 -103 17 -29 28 -30 28 -48 11 -10
-10 -18 -23 -18 -29 -1 -6 -7 -10 -14 -8 -7 1 -10 -2 -7 -7 14 -22 58 3 49 27
-6 15 -5 15 10 3 10 -8 15 -16 12 -19 -3 -3 13 -25 36 -48 26 -27 40 -48 36
-58 -4 -10 -1 -13 7 -10 8 3 17 1 20 -5 4 -6 13 -8 22 -4 12 5 12 7 -3 19 -10
7 -14 14 -9 14 5 0 3 7 -4 16 -11 12 -10 18 4 32 16 16 19 15 41 -13 21 -26
25 -27 31 -11 5 12 9 14 14 6 5 -9 9 -9 14 -1 4 6 3 11 -1 11 -5 0 -9 9 -10
20 -2 22 7 26 23 10 7 -7 28 10 65 52 58 67 94 118 83 118 -4 0 1 9 11 20 10
11 15 20 11 20 -4 0 2 13 12 28 16 22 18 31 9 47 -6 11 -12 28 -13 38 -1 9 -2
18 -4 20 -1 1 -3 10 -5 20 -2 10 -12 25 -22 34 -17 14 -17 14 1 9 15 -5 17 -4
8 7 -7 8 -10 16 -7 19 3 3 -5 13 -17 24 -12 10 -19 14 -15 9z m21 -40 c-4 -8
-10 -13 -15 -10 -4 3 -6 12 -3 20 4 8 10 13 15 10 4 -3 6 -12 3 -20z m21 -65
c-3 -5 -1 -11 4 -14 5 -4 8 -14 7 -24 -2 -9 3 -26 10 -36 11 -16 10 -23 -7
-48 -11 -15 -17 -28 -13 -28 4 0 0 -8 -9 -17 -8 -10 -17 -22 -19 -28 -2 -5 -7
-9 -12 -7 -5 2 -6 -4 -3 -12 9 -23 -103 -149 -119 -135 -15 12 -35 3 -33 -14
1 -7 -1 -20 -5 -29 -7 -15 -11 -14 -31 10 l-23 27 -26 -24 c-24 -22 -24 -25
-8 -37 9 -7 13 -14 8 -14 -5 0 -2 -8 5 -17 13 -16 12 -17 -4 -4 -9 8 -16 16
-13 18 2 2 -16 23 -40 45 -25 23 -42 43 -39 46 3 3 -3 15 -12 26 -10 12 -2 7
17 -10 26 -22 44 -30 68 -28 48 2 48 2 49 25 1 15 -3 19 -13 15 -8 -3 -12 -2
-9 3 3 5 1 12 -4 15 -10 7 -9 31 1 31 3 0 17 10 30 23 14 12 28 19 31 15 4 -3
8 -1 8 5 1 7 2 17 3 23 0 6 10 17 21 25 16 12 17 16 6 24 -22 13 -22 39 0 51
11 5 17 14 15 18 -3 4 5 7 17 6 12 -1 30 5 40 13 9 8 17 11 17 7 0 -4 9 0 20
10 13 12 20 14 20 5 0 -10 3 -10 15 0 14 12 14 15 0 30 -11 12 -12 19 -3 28
13 13 42 -4 33 -18z m-410 -329 c3 -5 2 -12 -3 -15 -5 -3 -9 1 -9 9 0 17 3 19
12 6z"/>
<path d="M7506 5772 c-3 -5 1 -15 9 -22 14 -11 14 -15 -1 -31 -9 -10 -21 -16
-26 -13 -5 3 -15 0 -23 -6 -8 -7 -15 -9 -15 -5 0 5 -8 1 -18 -8 -10 -10 -22
-14 -27 -10 -4 5 -5 2 -1 -5 5 -9 3 -13 -5 -11 -8 1 -22 -1 -32 -6 -15 -6 -16
-10 -5 -16 10 -7 10 -9 -1 -9 -11 0 -9 -4 5 -15 19 -14 18 -15 -6 -35 -20 -16
-21 -19 -5 -14 18 7 18 5 -4 -19 -13 -15 -27 -24 -31 -22 -4 3 -14 -3 -21 -12
-10 -12 -10 -14 -1 -9 6 4 12 3 12 -2 0 -16 -13 -21 -30 -12 -24 13 -21 -15 3
-32 9 -7 15 -22 13 -33 -2 -11 3 -28 12 -37 16 -19 34 -15 26 6 -7 19 23 41
39 28 10 -8 23 1 55 38 24 27 42 52 41 56 0 4 5 11 13 15 11 7 11 9 -1 9 -11
0 -11 3 -1 15 7 8 17 12 23 8 5 -3 7 -1 4 4 -4 6 0 16 8 23 8 7 13 16 10 20
-3 5 -1 11 4 15 6 3 8 12 4 21 -3 8 -2 14 3 13 21 -4 24 2 12 24 -7 12 -13 30
-14 40 -1 9 -3 19 -4 22 -1 3 -3 9 -4 14 -2 16 -14 23 -20 13z m22 -59 c-1 -5
4 -19 11 -32 7 -13 9 -21 3 -18 -5 4 -18 -1 -28 -9 -10 -9 -14 -13 -7 -10 15
8 27 -10 13 -19 -6 -4 -8 -10 -6 -14 3 -4 -8 -20 -24 -36 -16 -15 -27 -35 -25
-46 2 -11 -11 -31 -36 -53 -21 -20 -37 -36 -33 -36 3 0 2 -5 -1 -10 -5 -8 -11
-7 -21 0 -20 17 -68 -21 -51 -41 10 -11 9 -11 -5 0 -10 7 -15 21 -12 36 3 16
-3 29 -18 40 -14 10 -17 15 -8 14 8 -1 23 1 33 6 15 6 15 10 5 23 -7 9 -8 13
-2 9 6 -3 24 7 39 23 16 17 25 30 21 30 -5 0 -3 7 4 15 8 10 9 19 3 28 -13 18
-9 43 6 39 8 -2 24 7 37 19 13 12 24 19 24 15 0 -5 7 -3 15 4 8 6 18 9 23 6 6
-3 15 1 22 9 13 16 21 19 18 8z"/>
<path d="M7506 5691 c-4 -5 -13 -8 -20 -5 -8 3 -17 0 -21 -5 -3 -6 -10 -9 -15
-6 -5 3 -17 -6 -28 -19 -14 -18 -22 -22 -30 -14 -13 13 -11 -9 2 -30 4 -7 2
-19 -4 -27 -7 -8 -9 -15 -4 -15 4 0 -8 -16 -27 -36 -18 -19 -33 -37 -31 -40 5
-9 2 -24 -5 -23 -22 4 -24 -3 -8 -21 13 -14 14 -20 5 -20 -7 0 -10 -3 -7 -7 4
-3 16 2 27 12 16 15 22 16 35 5 9 -8 15 -9 14 -4 -3 19 1 35 9 30 12 -7 59 45
57 64 -1 8 12 30 29 48 16 17 26 32 22 32 -5 0 -3 7 4 15 11 13 10 14 -4 9
-24 -9 -20 12 6 30 16 12 19 19 11 27 -7 7 -13 7 -17 0z m-8 -26 c-16 -13 -23
-27 -18 -30 6 -4 8 -11 5 -16 -4 -5 -1 -9 6 -9 14 0 -27 -47 -53 -61 -14 -7
-16 -6 -12 6 4 8 1 15 -4 15 -6 0 -9 -9 -7 -20 2 -11 0 -18 -5 -15 -6 4 -7 -1
-3 -11 5 -14 3 -16 -11 -11 -9 4 -15 3 -11 -2 9 -15 42 -9 41 7 -1 8 4 17 10
19 20 7 11 -27 -14 -49 -14 -13 -22 -17 -18 -10 10 16 -2 15 -19 -2 -8 -7 -11
-17 -7 -21 4 -5 1 -5 -6 -1 -7 4 -19 3 -26 -3 -10 -8 -17 -7 -27 6 -8 10 -9
14 -2 10 7 -5 16 1 23 13 6 11 7 20 3 20 -4 0 8 16 27 35 19 19 30 35 26 35
-5 0 -3 7 4 15 10 12 10 18 -1 32 -8 9 -9 14 -3 10 7 -4 19 4 28 18 9 14 21
23 26 20 5 -3 12 0 15 6 4 5 13 8 21 5 7 -3 16 -1 19 4 4 6 9 10 13 10 4 0 -5
-11 -20 -25z"/>
<path d="M7465 5660 c-4 -6 -10 -8 -15 -5 -4 3 -15 -6 -24 -20 -10 -16 -12
-26 -5 -30 6 -4 3 -12 -8 -22 -10 -8 -12 -12 -5 -8 7 4 19 2 26 -4 10 -8 17
-6 29 7 16 18 17 37 4 59 -4 7 0 16 10 22 10 6 13 11 6 11 -6 0 -15 -5 -18
-10z m2 -49 c2 -17 -25 -53 -28 -37 -1 3 -2 9 -3 14 -1 4 -5 13 -9 20 -5 7 -2
14 7 18 9 3 13 11 9 18 -4 7 -1 6 7 -1 8 -7 15 -21 17 -32z"/>
<path d="M7440 5620 c-12 -7 -12 -10 -1 -10 8 0 11 -6 7 -16 -3 -8 -2 -12 3
-9 7 4 13 47 6 45 0 0 -7 -5 -15 -10z"/>
<path d="M7375 5530 c-16 -16 -25 -30 -21 -30 5 0 0 -12 -9 -27 l-18 -26 32
22 c25 18 29 26 20 37 -11 13 -5 19 16 14 6 -1 7 2 3 6 -4 4 -3 13 3 21 21 25
3 13 -26 -17z m0 -29 c3 -5 2 -12 -3 -15 -5 -3 -9 1 -9 9 0 17 3 19 12 6z"/>
<path d="M7170 5418 c0 -2 13 -16 28 -31 28 -27 29 -27 45 -9 17 18 16 19 -10
17 -16 -1 -36 5 -45 13 -10 8 -18 13 -18 10z m70 -34 c0 -8 -19 -13 -24 -6 -3
5 1 9 9 9 8 0 15 -2 15 -3z"/>
<path d="M5603 5716 c0 -8 4 -13 8 -11 3 3 12 -2 19 -10 7 -8 9 -15 5 -15 -4
0 -2 -7 5 -15 10 -12 10 -15 0 -15 -8 0 -11 -3 -7 -6 3 -3 13 -2 22 4 16 8 16
9 0 15 -9 4 -14 11 -11 15 3 5 -5 19 -18 31 -17 16 -23 18 -23 7z"/>
<path d="M5786 5692 c-3 -5 1 -9 9 -9 8 0 15 4 15 9 0 4 -4 8 -9 8 -6 0 -12
-4 -15 -8z"/>
<path d="M5724 5682 c4 -7 2 -12 -6 -12 -7 0 -4 -6 7 -14 25 -17 73 -15 86 4
7 12 10 11 15 -7 4 -13 10 -23 14 -23 12 0 18 23 11 40 -7 17 -19 19 -38 7 -7
-5 -13 -6 -13 -2 0 3 -8 1 -18 -4 -14 -7 -25 -6 -42 6 -13 9 -20 11 -16 5z
m117 -19 c13 -16 12 -17 -3 -4 -10 7 -18 15 -18 17 0 8 8 3 21 -13z"/>
<path d="M5887 5669 c7 -9 9 -20 5 -25 -4 -5 -3 -6 2 -2 5 4 16 -2 26 -14 17
-21 46 -17 34 5 -3 7 3 1 15 -13 17 -22 19 -22 16 -5 -2 11 -4 24 -4 28 -1 5
-5 6 -10 2 -5 -3 -12 -1 -16 5 -4 6 -10 8 -15 5 -5 -3 -22 2 -37 12 -22 14
-26 15 -16 2z m60 -34 c0 -8 -4 -12 -9 -9 -5 3 -6 10 -3 15 9 13 12 11 12 -6z"/>
<path d="M6090 5593 c18 -25 27 -30 37 -22 7 6 10 16 7 23 -3 6 0 4 8 -4 11
-14 28 -17 43 -10 3 1 9 3 14 4 26 3 18 13 -9 11 -16 -1 -30 0 -30 4 0 4 -11
7 -25 7 -14 0 -25 -4 -25 -10 0 -5 -10 -1 -22 10 -20 18 -20 17 2 -13z m40 -7
c0 -3 -4 -8 -10 -11 -5 -3 -10 -1 -10 4 0 6 5 11 10 11 6 0 10 -2 10 -4z"/>
<path d="M6710 5399 c0 -5 5 -7 10 -4 6 3 10 8 10 11 0 2 -4 4 -10 4 -5 0 -10
-5 -10 -11z"/>
<path d="M6629 5374 c-7 -8 -6 -14 1 -19 5 -3 10 -1 10 4 0 6 5 11 11 11 5 0
7 -4 4 -10 -3 -5 -2 -10 3 -10 8 0 22 22 22 34 0 8 -43 -1 -51 -10z"/>
<path d="M6580 5103 c1 -19 16 -32 29 -24 11 7 9 11 -8 20 -11 7 -21 8 -21 4z"/>
<path d="M6630 5090 c0 -5 5 -10 10 -10 6 0 10 5 10 10 0 6 -4 10 -10 10 -5 0
-10 -4 -10 -10z"/>
<path d="M7063 5114 c3 -4 -8 -16 -25 -28 -34 -23 -47 -46 -27 -46 7 0 10 3 6
6 -3 4 8 16 25 28 34 23 47 46 27 46 -7 0 -10 -3 -6 -6z"/>
<path d="M6941 5006 c-6 -7 -8 -16 -5 -19 3 -3 2 -12 -2 -19 -5 -7 -10 -21
-11 -30 -3 -21 31 -81 40 -72 4 4 -2 19 -13 34 -18 25 -18 29 -4 34 9 3 23 2
31 -2 13 -8 13 -10 -1 -15 -12 -5 -14 -11 -8 -24 5 -10 7 -25 4 -33 -5 -13 -3
-13 11 -1 13 10 14 17 6 27 -12 15 -4 34 16 34 7 0 16 7 19 16 3 8 10 12 16 9
5 -3 10 0 10 7 0 8 -9 14 -20 15 -11 1 -19 -1 -19 -5 4 -28 -2 -32 -25 -17
-13 8 -32 13 -42 9 -18 -5 -18 -5 -1 6 9 6 14 16 11 22 -4 6 -1 14 6 18 7 5 8
10 2 14 -5 3 -15 0 -21 -8z"/>
<path d="M7140 4982 c0 -5 7 -15 15 -22 8 -7 15 -8 15 -2 0 5 -7 15 -15 22 -8
7 -15 8 -15 2z"/>
<path d="M7235 4930 c-3 -5 1 -10 10 -10 9 0 13 5 10 10 -3 6 -8 10 -10 10 -2
0 -7 -4 -10 -10z"/>
<path d="M6950 4919 c0 -5 5 -7 10 -4 6 3 10 8 10 11 0 2 -4 4 -10 4 -5 0 -10
-5 -10 -11z"/>
<path d="M7190 4919 c0 -5 5 -7 10 -4 6 3 10 8 10 11 0 2 -4 4 -10 4 -5 0 -10
-5 -10 -11z"/>
<path d="M7050 4900 c-6 -11 -9 -20 -8 -21 32 -8 47 -6 52 7 14 35 -26 48 -44
14z m35 0 c3 -5 1 -10 -4 -10 -6 0 -11 5 -11 10 0 6 2 10 4 10 3 0 8 -4 11
-10z"/>
<path d="M7253 4883 c4 -3 2 -12 -4 -20 -6 -7 -10 -13 -8 -14 48 -9 47 -10 35
16 -6 14 -15 25 -20 25 -5 0 -6 -3 -3 -7z"/>
<path d="M6916 4841 c-4 -6 -2 -11 5 -11 7 0 10 -2 7 -5 -3 -3 -17 0 -32 6
-21 10 -29 9 -44 -4 -22 -20 -25 -52 -8 -67 10 -8 17 -4 30 14 21 33 20 39 -3
33 -14 -3 -18 -1 -14 9 4 11 10 11 33 -1 22 -12 30 -12 38 -2 6 7 7 19 3 26
-6 9 -11 10 -15 2z m-56 -61 c0 -5 -2 -10 -4 -10 -3 0 -8 5 -11 10 -3 6 -1 10
4 10 6 0 11 -4 11 -10z"/>
<path d="M6640 5035 c-7 -9 -11 -16 -9 -18 39 -22 52 -28 56 -23 10 9 -6 36
-19 32 -7 -1 -10 -1 -5 1 10 6 9 23 -2 23 -5 0 -14 -7 -21 -15z"/>
<path d="M6855 4880 c-3 -5 -1 -10 4 -10 6 0 11 5 11 10 0 6 -2 10 -4 10 -3 0
-8 -4 -11 -10z"/>
<path d="M6566 4795 c-11 -8 -14 -15 -8 -15 7 0 12 -5 12 -11 0 -5 -4 -8 -8
-5 -5 3 -9 -1 -9 -9 0 -8 4 -15 7 -15 12 0 30 26 23 33 -3 4 0 13 7 22 16 19
1 19 -24 0z"/>
<path d="M7350 4840 c0 -5 5 -10 10 -10 6 0 10 5 10 10 0 6 -4 10 -10 10 -5 0
-10 -4 -10 -10z"/>
<path d="M3312 7971 c7 -9 13 -18 15 -20 1 -2 1 5 0 16 0 11 -7 20 -14 20 -10
0 -10 -4 -1 -16z"/>
<path d="M3295 7881 c-3 -5 -2 -12 3 -15 5 -3 9 1 9 9 0 17 -3 19 -12 6z"/>
<path d="M3032 7198 c-5 -8 -6 -22 -1 -33 9 -23 10 -21 13 18 3 31 2 32 -12
15z"/>
<path d="M7343 5728 c-9 -10 -13 -18 -9 -18 4 0 -2 -15 -14 -32 l-22 -33 30
35 c17 19 30 39 29 44 -1 6 3 10 10 11 17 0 25 12 8 12 -8 0 -22 -9 -32 -19z"/>
<path d="M7255 5583 c3 -3 0 -11 -5 -18 -7 -8 -5 -12 4 -12 14 0 16 22 3 32
-4 3 -5 2 -2 -2z"/>
<path d="M7186 5518 c3 -5 10 -6 15 -3 13 9 11 12 -6 12 -8 0 -12 -4 -9 -9z"/>
<path d="M7055 5499 c-4 -6 -13 -8 -19 -6 -11 4 -14 -22 -6 -43 1 -3 2 -8 1
-12 0 -5 3 -8 9 -8 5 0 8 12 7 28 -1 15 3 26 9 25 6 -1 11 5 11 13 0 17 -4 18
-12 3z"/>
<path d="M7064 5372 c4 -3 14 -7 22 -8 9 -1 13 0 10 4 -4 3 -14 7 -22 8 -9 1
-13 0 -10 -4z"/>
<path d="M7127 5337 c3 -4 8 -6 11 -3 3 3 10 1 17 -4 8 -7 12 -6 12 3 0 7 -11
13 -23 13 -12 0 -20 -4 -17 -9z"/>
</g>
</svg>
